<svg width="3214" height="76" viewBox="0 0 3214 76" fill="none" xmlns="http://www.w3.org/2000/svg">
<path fill-rule="evenodd" clip-rule="evenodd" d="M3190.46 1H3202.93V27.8091H3213.4V38.4068H3202.93V75.6112H3190.46V1ZM3201.93 37.4068H3212.4V28.8091H3201.93V2H3191.46V74.6112H3201.93V37.4068ZM3148 57.2596H3154.1C3158.32 57.2596 3162.28 57.2075 3165.98 57.1032C3169.68 56.999 3173.27 56.7645 3176.76 56.3998C3180.31 56.035 3183.9 55.54 3187.55 54.9148L3186.53 46.3171C3186.2 46.3753 3185.87 46.4323 3185.55 46.4882C3182.35 47.0333 3179.21 47.4713 3176.14 47.8021C3172.75 48.1148 3169.26 48.3493 3165.66 48.5056C3163.66 48.5638 3161.57 48.6057 3159.4 48.6314C3159.06 48.6354 3158.73 48.6389 3158.4 48.6421V17.085H3181.77V8.72182H3148V57.2596ZM3159.4 18.085H3182.77V7.72182H3147V58.2596H3154.1C3158.33 58.2596 3162.29 58.2074 3166.01 58.1029C3169.73 57.998 3173.35 57.7619 3176.87 57.3944C3180.43 57.0273 3184.05 56.5293 3187.72 55.9004L3188.65 55.74L3187.4 45.1483L3186.36 45.3323C3182.84 45.9534 3179.4 46.4449 3176.04 46.8071C3172.67 47.1176 3169.2 47.3507 3165.63 47.5062C3163.63 47.564 3161.55 47.6058 3159.4 47.6314V18.085Z" fill="#8000FF"/>
<path fill-rule="evenodd" clip-rule="evenodd" d="M3122.21 0.546631H3134.51V74.844H3122.21V0.546631ZM3075.91 7.41722H3088.29V46.1607C3092.04 46.0721 3095.9 45.8848 3099.87 45.5988C3105.6 45.1336 3111.44 44.3065 3117.39 43.1169L3118.44 42.9061L3119.79 53.5514L3118.89 53.7421C3112.7 55.0519 3106.6 55.9433 3100.57 56.4153L3100.56 56.4159C3094.6 56.8338 3088.85 57.0429 3083.31 57.0429H3075.91V7.41722ZM3076.91 56.0429H3083.31C3088.83 56.0429 3094.55 55.8347 3100.49 55.4183C3106.47 54.9499 3112.54 54.065 3118.68 52.7638L3117.59 44.0975C3117.26 44.1631 3116.93 44.2276 3116.6 44.2911C3110.96 45.3848 3105.4 46.1531 3099.94 46.5959C3095.95 46.8838 3092.06 47.0721 3088.29 47.161C3087.96 47.1689 3087.63 47.176 3087.29 47.1823V8.41722H3076.91V56.0429ZM3123.21 1.54663V73.844H3133.51V1.54663H3123.21Z" fill="#8000FF"/>
<path fill-rule="evenodd" clip-rule="evenodd" d="M3050 0.624634H3062.38V41.4279H3050V0.624634ZM3012.36 42.6289H3024.59V49.3434H3050.07V42.6289H3062.38V74.1413H3012.36V42.6289ZM3051.07 50.3434H3023.59V43.6289H3013.36V73.1413H3061.38V43.6289H3051.07V50.3434ZM3039.96 31.071C3038.13 33.7773 3035.65 35.8932 3032.54 37.4217C3029.42 38.955 3025.91 39.7102 3022.03 39.7102C3018.15 39.7102 3014.64 38.955 3011.52 37.4217C3008.41 35.8932 3005.92 33.7773 3004.1 31.071L3004.1 31.0632C3002.26 28.2859 3001.35 25.1248 3001.35 21.6118C3001.35 18.099 3002.26 14.9601 3004.1 12.2307C3005.92 9.52446 3008.41 7.40853 3011.52 5.88002C3014.64 4.34671 3018.15 3.59148 3022.03 3.59148C3025.91 3.59148 3029.42 4.34671 3032.54 5.88002C3035.65 7.40853 3038.13 9.52446 3039.96 12.2307C3041.8 14.9601 3042.7 18.0989 3042.7 21.6118C3042.7 25.1248 3041.8 28.2859 3039.96 31.0632L3039.96 31.071ZM3029.47 17.6304L3029.46 17.6225C3028.74 16.4881 3027.74 15.6235 3026.45 15.0236L3026.44 15.0177C3025.19 14.4163 3023.73 14.1016 3022.03 14.1016C3020.33 14.1016 3018.84 14.4159 3017.53 15.0236C3016.24 15.6228 3015.25 16.4858 3014.52 17.618C3013.86 18.678 3013.5 19.9938 3013.5 21.6118C3013.5 23.2786 3013.86 24.6479 3014.52 25.7615C3015.24 26.8336 3016.23 27.671 3017.52 28.2718C3018.83 28.8319 3020.33 29.122 3022.03 29.122C3023.73 29.122 3025.2 28.8307 3026.46 28.2746C3027.75 27.6714 3028.75 26.829 3029.47 25.7494C3030.18 24.6374 3030.55 23.2733 3030.55 21.6118C3030.55 20.0036 3030.18 18.6956 3029.47 17.6382L3029.47 17.6304ZM3026.87 29.1851C3025.46 29.8097 3023.85 30.122 3022.03 30.122C3020.21 30.122 3018.57 29.8097 3017.11 29.1851C3015.65 28.5084 3014.51 27.5455 3013.68 26.2963C3012.89 24.9951 3012.5 23.4336 3012.5 21.6118C3012.5 19.8421 3012.89 18.3327 3013.68 17.0835C3014.51 15.7822 3015.65 14.7933 3017.11 14.1166C3018.57 13.44 3020.21 13.1016 3022.03 13.1016C3023.85 13.1016 3025.46 13.44 3026.87 14.1166C3028.33 14.7933 3029.47 15.7822 3030.31 17.0835C3031.14 18.3327 3031.55 19.8421 3031.55 21.6118C3031.55 23.4336 3031.14 24.9951 3030.31 26.2963C3029.47 27.5455 3028.33 28.5084 3026.87 29.1851ZM3023.59 64.8653V58.307H3051.07V64.8653H3023.59ZM3050.07 63.8653V59.307H3024.59V63.8653H3050.07ZM3051 1.62463V40.4279H3061.38V1.62463H3051ZM3032.1 6.77758C3029.13 5.32018 3025.78 4.59148 3022.03 4.59148C3018.28 4.59148 3014.92 5.32018 3011.96 6.77758C3008.99 8.23497 3006.65 10.2389 3004.93 12.7893C3003.21 15.3398 3002.35 18.2806 3002.35 21.6118C3002.35 24.943 3003.21 27.9099 3004.93 30.5124C3006.65 33.0628 3008.99 35.0667 3011.96 36.5241C3014.92 37.9815 3018.28 38.7102 3022.03 38.7102C3025.78 38.7102 3029.13 37.9815 3032.1 36.5241C3035.07 35.0667 3037.41 33.0628 3039.13 30.5124C3040.85 27.9099 3041.7 24.943 3041.7 21.6118C3041.7 18.2806 3040.85 15.3398 3039.13 12.7893C3037.41 10.2389 3035.07 8.23497 3032.1 6.77758Z" fill="#8000FF"/>
<path fill-rule="evenodd" clip-rule="evenodd" d="M2928.52 56.0578H2956V44.7851H2935.39V5.15295H2947.77V16.3177H2976.53V5.15295H2988.84V44.7851H2968.31V56.0578H2996.02V66.4899H2928.52V56.0578ZM2967.31 57.0578V43.7851H2987.84V6.15295H2977.53V17.3177H2946.77V6.15295H2936.39V43.7851H2957V57.0578H2929.52V65.4899H2995.02V57.0578H2967.31ZM2946.77 35.5091V25.4375H2977.53V35.5091H2946.77ZM2976.53 34.5091V26.4375H2947.77V34.5091H2976.53Z" fill="#8000FF"/>
<path fill-rule="evenodd" clip-rule="evenodd" d="M2893.55 15.9273H2906.74V0.624634H2919.2V55.9498H2906.74V26.3594H2893.55V15.9273ZM2907.74 25.3594V54.9498H2918.2V1.62463H2907.74V16.9273H2894.55V25.3594H2907.74ZM2873.25 4.99683H2885.71V13.8824C2885.71 16.1345 2886.01 18.3342 2886.61 20.4842C2887.21 22.623 2888.13 24.6661 2889.38 26.6155C2890.61 28.5425 2892.2 30.2807 2894.14 31.8288C2896.13 33.3172 2898.48 34.5446 2901.2 35.5027L2902.43 35.9359L2895.79 45.6199L2895.05 45.3465C2890.61 43.6851 2886.9 41.2878 2883.98 38.1424C2882.3 36.3475 2880.88 34.3754 2879.71 32.2286C2878.39 34.939 2876.71 37.4042 2874.67 39.6207C2871.63 42.9287 2867.74 45.432 2863.03 47.1452L2862.3 47.4124L2855.67 37.5645L2856.9 37.1402C2859.83 36.129 2862.31 34.8241 2864.34 33.2374C2866.39 31.6385 2868.05 29.824 2869.34 27.7953C2870.64 25.6902 2871.62 23.4629 2872.27 21.111C2872.92 18.7536 2873.25 16.319 2873.25 13.8043V4.99683ZM2870.19 28.3263C2868.83 30.4603 2867.09 32.3601 2864.96 34.0257C2863.05 35.5102 2860.8 36.7465 2858.19 37.7349C2857.88 37.8555 2857.55 37.9724 2857.23 38.0856L2862.69 46.2054C2867.27 44.5398 2871.02 42.1195 2873.93 38.9444C2876.07 36.6182 2877.81 34.0079 2879.13 31.1136C2879.32 30.7127 2879.49 30.3063 2879.66 29.8945C2879.85 30.2988 2880.04 30.6972 2880.24 31.0897C2881.44 33.4228 2882.93 35.5466 2884.71 37.461C2887.52 40.4799 2891.08 42.7961 2895.4 44.4097L2900.87 36.446C2900.54 36.3308 2900.22 36.2117 2899.9 36.0887C2897.49 35.1561 2895.37 33.9999 2893.53 32.6204C2891.5 31.0068 2889.83 29.1851 2888.53 27.1551C2887.23 25.1252 2886.27 22.9911 2885.64 20.753C2885.02 18.5148 2884.71 16.2246 2884.71 13.8824V5.99683H2874.25V13.8043C2874.25 16.4068 2873.91 18.9312 2873.23 21.3776C2872.55 23.8239 2871.54 26.1402 2870.19 28.3263ZM2870.34 72.6728H2919.76V64.3188H2880.73V49.6407H2870.34V72.6728ZM2881.73 63.3188V48.6407H2869.34V73.6728H2920.76V63.3188H2881.73Z" fill="#8000FF"/>
<path fill-rule="evenodd" clip-rule="evenodd" d="M2783.67 5.76259C2788.3 3.62854 2794.75 2.56152 2803.03 2.56152C2811.25 2.56152 2817.66 3.62854 2822.24 5.76259C2826.87 7.89664 2829.19 10.9676 2829.19 14.9754C2829.19 18.9312 2826.87 21.9761 2822.24 24.1102C2817.66 26.2442 2811.25 27.3113 2803.03 27.3113C2794.75 27.3113 2788.3 26.2442 2783.67 24.1102C2779.09 21.9761 2776.8 18.9312 2776.8 14.9754C2776.8 10.9676 2779.09 7.89664 2783.67 5.76259ZM2822.66 25.0176C2817.89 27.2395 2811.32 28.3113 2803.03 28.3113C2794.69 28.3113 2788.07 27.2391 2783.25 25.0185L2783.25 25.0167C2780.85 23.9021 2778.99 22.5165 2777.72 20.8271C2776.44 19.1243 2775.8 17.1613 2775.8 14.9754C2775.8 12.7667 2776.43 10.7851 2777.71 9.06853C2778.98 7.36478 2780.85 5.97155 2783.25 4.85615L2783.25 4.85433C2788.07 2.63367 2794.69 1.56152 2803.03 1.56152C2811.32 1.56152 2817.89 2.63334 2822.66 4.85521C2825.08 5.9695 2826.96 7.36134 2828.25 9.06417C2829.54 10.7808 2830.19 12.764 2830.19 14.9754C2830.19 17.164 2829.54 19.1286 2828.24 20.8314C2826.96 22.5199 2825.07 23.9041 2822.66 25.0176ZM2794.51 11.7487L2794.5 11.7502C2792.27 12.0549 2790.71 12.5496 2789.75 13.1645L2789.74 13.1712C2788.88 13.7033 2788.57 14.2948 2788.57 14.9754C2788.57 15.6574 2788.88 16.2789 2789.74 16.8609C2790.72 17.431 2792.28 17.8975 2794.5 18.2006C2796.73 18.5047 2799.54 18.6599 2802.95 18.6599C2806.41 18.6599 2809.25 18.5046 2811.48 18.2006C2813.72 17.8961 2815.24 17.4284 2816.15 16.8666C2817.02 16.2831 2817.33 15.6598 2817.33 14.9754C2817.33 14.2946 2817.03 13.7031 2816.17 13.1712L2816.15 13.1623L2816.14 13.1529C2815.23 12.5496 2813.72 12.0553 2811.48 11.7502L2811.47 11.7487L2811.46 11.747C2809.24 11.3939 2806.41 11.2129 2802.95 11.2129C2799.55 11.2129 2796.74 11.3938 2794.52 11.747L2794.51 11.7487ZM2816.69 17.7081C2815.6 18.3847 2813.91 18.8792 2811.62 19.1915C2809.33 19.5038 2806.44 19.6599 2802.95 19.6599C2799.52 19.6599 2796.65 19.5038 2794.36 19.1915C2792.07 18.8792 2790.36 18.3847 2789.21 17.7081C2788.12 16.9794 2787.57 16.0685 2787.57 14.9754C2787.57 13.8824 2788.12 12.9975 2789.21 12.3209C2790.36 11.5922 2792.07 11.0717 2794.36 10.7594C2796.65 10.395 2799.52 10.2129 2802.95 10.2129C2806.44 10.2129 2809.33 10.395 2811.62 10.7594C2813.91 11.0717 2815.6 11.5922 2816.69 12.3209C2817.79 12.9975 2818.33 13.8824 2818.33 14.9754C2818.33 16.0685 2817.79 16.9794 2816.69 17.7081ZM2769.24 29.6685H2836.67V39.8664H2769.24V29.6685ZM2776.73 41.9262H2828.7V62.43H2789.12V64.568H2830.65V74.4536H2776.81V53.2471H2816.47V51.5776H2776.73V41.9262ZM2817.47 50.5776V54.2471H2777.81V73.4536H2829.65V65.568H2788.12V61.43H2827.7V42.9262H2777.73V50.5776H2817.47ZM2770.24 30.6685V38.8664H2835.67V30.6685H2770.24Z" fill="#8000FF"/>
<path d="M2725.98 41.3648H2736.28V52.2953H2725.98V41.3648ZM2698.42 35.4311H2763.84V43.629H2698.42V35.4311ZM2704.12 3.57654H2758.07V11.8525H2704.12V3.57654ZM2704.66 22.7049H2757.44V30.9028H2704.66V22.7049ZM2713.33 6.54338H2723.71V28.0921H2713.33V6.54338ZM2738.47 6.54338H2748.85V28.0921H2738.47V6.54338ZM2706.07 49.5627H2756.04V73.1413H2706.07V49.5627ZM2745.89 57.6825H2716.22V64.9434H2745.89V57.6825Z" fill="#8000FF"/>
<path d="M2678.83 1.54663H2688.74V73.844H2678.83V1.54663ZM2655.01 26.2964H2667.04V34.7285H2655.01V26.2964ZM2664.23 2.71776H2673.91V70.5649H2664.23V2.71776ZM2639.48 13.3359H2647.28V20.7531C2647.28 24.813 2646.97 28.8208 2646.35 32.7766C2645.77 36.7324 2644.86 40.48 2643.61 44.0194C2642.36 47.5067 2640.73 50.6558 2638.7 53.4665C2636.67 56.2772 2634.22 58.5934 2631.36 60.4151L2625.19 52.7638C2628.73 50.5256 2631.54 47.7149 2633.62 44.3317C2635.7 40.8964 2637.19 37.1488 2638.07 33.0889C2639.01 28.977 2639.48 24.865 2639.48 20.7531V13.3359ZM2641.82 13.3359H2649.55V20.7531C2649.55 24.7609 2649.99 28.7167 2650.87 32.6205C2651.76 36.5242 2653.22 40.0896 2655.25 43.3167C2657.28 46.4918 2660.04 49.0943 2663.52 51.1242L2657.51 58.6194C2653.66 56.3292 2650.59 53.2322 2648.3 49.3285C2646.01 45.4247 2644.34 41.0265 2643.3 36.1338C2642.31 31.1891 2641.82 26.0622 2641.82 20.7531V13.3359ZM2627.84 8.8076H2660.09V17.1616H2627.84V8.8076Z" fill="#8000FF"/>
<path d="M2588.95 1.62463H2599.33V53.5445H2588.95V1.62463ZM2551.16 64.3188H2601.21V72.6728H2551.16V64.3188ZM2551.16 48.3915H2561.55V67.7541H2551.16V48.3915ZM2559.98 6.23105C2563.68 6.23105 2567.01 7.0118 2569.98 8.5733C2572.95 10.1348 2575.29 12.2949 2577.01 15.0535C2578.77 17.8122 2579.66 20.9872 2579.66 24.5787C2579.66 28.066 2578.77 31.215 2577.01 34.0257C2575.29 36.7844 2572.95 38.9705 2569.98 40.584C2567.01 42.1455 2563.68 42.9263 2559.98 42.9263C2556.29 42.9263 2552.96 42.1455 2549.99 40.584C2547.02 38.9705 2544.66 36.7844 2542.89 34.0257C2541.17 31.215 2540.31 28.066 2540.31 24.5787C2540.31 20.9872 2541.17 17.8122 2542.89 15.0535C2544.66 12.2949 2547.02 10.1348 2549.99 8.5733C2552.96 7.0118 2556.29 6.23105 2559.98 6.23105ZM2559.98 15.1316C2558.21 15.1316 2556.6 15.522 2555.14 16.3027C2553.69 17.0314 2552.54 18.0984 2551.71 19.5038C2550.88 20.8571 2550.46 22.5487 2550.46 24.5787C2550.46 26.5045 2550.88 28.1701 2551.71 29.5755C2552.54 30.9288 2553.69 31.9958 2555.14 32.7765C2556.6 33.5052 2558.21 33.8696 2559.98 33.8696C2561.75 33.8696 2563.37 33.5052 2564.83 32.7765C2566.28 31.9958 2567.43 30.9288 2568.26 29.5755C2569.09 28.1701 2569.51 26.5045 2569.51 24.5787C2569.51 22.5487 2569.09 20.8571 2568.26 19.5038C2567.43 18.0984 2566.28 17.0314 2564.83 16.3027C2563.37 15.522 2561.75 15.1316 2559.98 15.1316Z" fill="#8000FF"/>
<path d="M2484.18 8.80752H2492.61V13.3359C2492.61 17.8642 2491.88 22.2104 2490.43 26.3744C2488.97 30.4863 2486.73 34.0778 2483.71 37.1487C2480.74 40.2197 2476.92 42.5099 2472.23 44.0193L2467.08 35.8214C2470.05 34.8325 2472.6 33.5573 2474.73 31.9958C2476.92 30.3822 2478.69 28.5605 2480.04 26.5305C2481.45 24.5006 2482.49 22.3665 2483.16 20.1284C2483.84 17.8902 2484.18 15.6261 2484.18 13.3359V8.80752ZM2486.37 8.80752H2494.64V13.3359C2494.64 16.1466 2495.21 18.9573 2496.36 21.768C2497.5 24.5266 2499.27 27.025 2501.67 29.2632C2504.12 31.4493 2507.24 33.1929 2511.04 34.4942L2505.96 42.692C2501.49 41.1826 2497.79 38.9445 2494.88 35.9776C2492.01 33.0108 2489.88 29.5755 2488.47 25.6717C2487.07 21.7159 2486.37 17.604 2486.37 13.3359V8.80752ZM2506.82 18.8011H2520.48V27.2332H2506.82V18.8011ZM2469.89 5.52838H2508.77V13.8043H2469.89V5.52838ZM2478.64 47.845H2527.98V73.922H2517.52V56.1209H2478.64V47.845ZM2517.52 1.62463H2527.98V44.5658H2517.52V1.62463Z" fill="#8000FF"/>
<path d="M2445.3 1.62463H2455.69V54.3252H2445.3V1.62463ZM2407.52 64.3188H2457.56V72.6728H2407.52V64.3188ZM2407.52 49.2503H2417.9V68.6129H2407.52V49.2503ZM2412.59 5.60645H2421.18V12.6332C2421.18 17.3177 2420.43 21.794 2418.92 26.0621C2417.46 30.3302 2415.22 34.0778 2412.2 37.3049C2409.18 40.532 2405.33 42.9783 2400.65 44.6439L2395.34 36.368C2399.4 34.9626 2402.68 33.0108 2405.17 30.5124C2407.73 28.014 2409.6 25.2033 2410.8 22.0803C2411.99 18.9573 2412.59 15.8082 2412.59 12.6332V5.60645ZM2414.7 5.60645H2423.13V12.6332C2423.13 14.9754 2423.44 17.2917 2424.07 19.5819C2424.75 21.82 2425.76 23.9541 2427.11 25.984C2428.47 27.9619 2430.21 29.7576 2432.34 31.3712C2434.48 32.9847 2437 34.26 2439.92 35.1969L2434.69 43.3947C2430.11 41.8853 2426.33 39.5951 2423.37 36.5241C2420.4 33.4532 2418.21 29.8617 2416.81 25.7498C2415.4 21.6378 2414.7 17.2656 2414.7 12.6332V5.60645Z" fill="#8000FF"/>
<path d="M2323.98 7.71456H2363.72V15.9124H2323.98V7.71456ZM2344.28 18.3328C2347.56 18.3328 2350.48 18.9313 2353.03 20.1285C2355.58 21.3256 2357.58 22.9652 2359.04 25.0472C2360.55 27.1292 2361.3 29.4975 2361.3 32.152C2361.3 34.8586 2360.55 37.2529 2359.04 39.3349C2357.58 41.4169 2355.58 43.0565 2353.03 44.2536C2350.48 45.4508 2347.56 46.0493 2344.28 46.0493C2341.11 46.0493 2338.24 45.4508 2335.69 44.2536C2333.14 43.0565 2331.11 41.4169 2329.6 39.3349C2328.09 37.2529 2327.34 34.8586 2327.34 32.152C2327.34 29.4975 2328.09 27.1292 2329.6 25.0472C2331.11 22.9652 2333.14 21.3256 2335.69 20.1285C2338.24 18.9313 2341.11 18.3328 2344.28 18.3328ZM2344.36 26.2183C2342.23 26.2183 2340.46 26.7388 2339.05 27.7798C2337.7 28.8208 2337.02 30.3042 2337.02 32.2301C2337.02 34.1039 2337.7 35.5613 2339.05 36.6023C2340.46 37.6433 2342.23 38.1638 2344.36 38.1638C2346.44 38.1638 2348.16 37.6433 2349.51 36.6023C2350.92 35.5613 2351.62 34.1039 2351.62 32.2301C2351.62 30.3042 2350.92 28.8208 2349.51 27.7798C2348.16 26.7388 2346.44 26.2183 2344.36 26.2183ZM2339.13 1.00012H2349.59V13.4921H2339.13V1.00012ZM2373.87 1.62472H2384.33V47.6108H2373.87V1.62472ZM2364.58 17.7862H2377.78V25.9841H2364.58V17.7862ZM2364.43 31.6836H2377.62V39.8814H2364.43V31.6836ZM2334.99 50.89H2384.33V73.9221H2373.87V59.0098H2334.99V50.89Z" fill="#8000FF"/>
<path d="M2243.16 7.71448H2288.92V15.9904H2243.16V7.71448ZM2236.45 56.7455H2301.88V65.1776H2236.45V56.7455ZM2259.56 31.9177H2270.02V60.9616H2259.56V31.9177ZM2285.17 7.71448H2295.63V14.5851C2295.63 17.604 2295.58 20.805 2295.47 24.1883C2295.42 27.5715 2295.19 31.3191 2294.77 35.4311C2294.41 39.543 2293.73 44.1494 2292.74 49.2503L2282.36 48.1573C2283.82 40.9223 2284.65 34.6243 2284.86 29.2632C2285.06 23.85 2285.17 18.9573 2285.17 14.5851V7.71448Z" fill="#8000FF"/>
<path d="M2210.93 1.62463H2221.31V73.922H2210.93V1.62463ZM2218.97 29.8097H2231.69V38.3979H2218.97V29.8097ZM2164.24 12.2428H2206.4V20.5188H2164.24V12.2428ZM2185.47 24.6567C2188.96 24.6567 2192.08 25.4115 2194.84 26.9209C2197.6 28.3783 2199.76 30.3822 2201.32 32.9327C2202.94 35.4831 2203.74 38.45 2203.74 41.8332C2203.74 45.2165 2202.94 48.2093 2201.32 50.8118C2199.76 53.3623 2197.6 55.3922 2194.84 56.9017C2192.14 58.3591 2189.01 59.0878 2185.47 59.0878C2181.99 59.0878 2178.84 58.3591 2176.03 56.9017C2173.27 55.3922 2171.08 53.3623 2169.47 50.8118C2167.91 48.2093 2167.13 45.2165 2167.13 41.8332C2167.13 38.45 2167.91 35.4831 2169.47 32.9327C2171.08 30.3822 2173.27 28.3783 2176.03 26.9209C2178.84 25.4115 2181.99 24.6567 2185.47 24.6567ZM2185.47 33.0888C2183.81 33.0888 2182.35 33.4272 2181.1 34.1038C2179.85 34.7805 2178.86 35.7694 2178.13 37.0706C2177.41 38.3719 2177.04 39.9594 2177.04 41.8332C2177.04 43.655 2177.41 45.2425 2178.13 46.5958C2178.86 47.897 2179.85 48.912 2181.1 49.6407C2182.35 50.3174 2183.81 50.6557 2185.47 50.6557C2187.09 50.6557 2188.52 50.3174 2189.77 49.6407C2191.02 48.912 2192 47.897 2192.73 46.5958C2193.46 45.2425 2193.83 43.655 2193.83 41.8332C2193.83 39.9594 2193.46 38.3719 2192.73 37.0706C2192 35.7694 2191.02 34.7805 2189.77 34.1038C2188.52 33.4272 2187.09 33.0888 2185.47 33.0888ZM2180.16 2.79576H2190.63V15.4439H2180.16V2.79576Z" fill="#8000FF"/>
<path d="M2094.83 4.74763H2105.14V13.3359H2119.35V4.74763H2129.58V36.368H2094.83V4.74763ZM2105.14 21.0653V28.3263H2119.35V21.0653H2105.14ZM2139.26 1.62463H2149.64V38.3199H2139.26V1.62463ZM2145.5 15.4439H2159.17V23.9541H2145.5V15.4439ZM2101.94 41.0525H2149.64V60.8054H2112.32V69.3156H2102.02V53.3883H2139.41V49.0161H2101.94V41.0525ZM2102.02 65.3338H2151.75V73.4536H2102.02V65.3338Z" fill="#8000FF"/>
<path d="M2070.79 1.54663H2081.18V73.844H2070.79V1.54663ZM2049.48 9.04183H2059.71C2059.71 14.5591 2059.16 19.8422 2058.07 24.891C2057.03 29.8878 2055.26 34.5983 2052.76 39.0226C2050.31 43.4468 2046.93 47.5588 2042.61 51.3584C2038.34 55.106 2033 58.5413 2026.6 61.6643L2021.14 53.4665C2028.11 50.0832 2033.66 46.3616 2037.77 42.3018C2041.93 38.1898 2044.92 33.5574 2046.75 28.4044C2048.57 23.1994 2049.48 17.3698 2049.48 10.9156V9.04183ZM2025.04 9.04183H2054.32V17.3178H2025.04V9.04183Z" fill="#8000FF"/>
<path fill-rule="evenodd" clip-rule="evenodd" d="M1932.53 37.476H1999.95V47.6739H1932.53V37.476ZM1941.49 72.6728H1991.61V64.3188H1951.87V51.5145H1941.49V72.6728ZM1952.87 63.3188V50.5145H1940.49V73.6728H1992.61V63.3188H1952.87ZM1952.21 32.6406L1952.21 32.6395C1948.19 31.4078 1944.98 29.6182 1942.65 27.2293C1940.28 24.8082 1939.08 21.9044 1939.08 18.5669C1939.08 15.2765 1940.29 12.4 1942.65 9.9826C1944.98 7.59366 1948.19 5.80405 1952.21 4.57234L1952.21 4.57126C1956.28 3.33944 1960.96 2.73267 1966.24 2.73267C1971.57 2.73267 1976.25 3.33891 1980.27 4.57181C1984.34 5.80265 1987.57 7.59157 1989.91 9.9826C1992.27 12.4 1993.47 15.2765 1993.47 18.5669C1993.47 21.9044 1992.27 24.8083 1989.91 27.2293C1987.57 29.6203 1984.34 31.4092 1980.27 32.64C1976.25 33.873 1971.57 34.4792 1966.24 34.4792C1960.96 34.4792 1956.28 33.8724 1952.21 32.6406ZM1979.98 31.6835C1983.94 30.4863 1987.01 28.7687 1989.19 26.5306C1991.38 24.2924 1992.47 21.6379 1992.47 18.5669C1992.47 15.548 1991.38 12.9195 1989.19 10.6813C1987.01 8.44319 1983.94 6.72554 1979.98 5.5284C1976.08 4.33125 1971.5 3.73267 1966.24 3.73267C1961.03 3.73267 1956.45 4.33125 1952.5 5.5284C1948.59 6.72554 1945.55 8.44319 1943.36 10.6813C1941.18 12.9195 1940.08 15.548 1940.08 18.5669C1940.08 21.6379 1941.18 24.2924 1943.36 26.5306C1945.55 28.7687 1948.59 30.4863 1952.5 31.6835C1956.45 32.8806 1961.03 33.4792 1966.24 33.4792C1971.5 33.4792 1976.08 32.8806 1979.98 31.6835ZM1953.28 15.7548L1953.27 15.763C1952.3 16.5198 1951.86 17.4321 1951.86 18.5669C1951.86 19.7044 1952.31 20.6523 1953.29 21.4655C1954.32 22.3137 1955.92 23.0213 1958.18 23.5244C1960.43 24.0249 1963.12 24.2813 1966.24 24.2813C1969.47 24.2813 1972.18 24.0244 1974.37 23.5255C1976.58 23.0234 1978.16 22.3168 1979.19 21.4655L1979.2 21.4588L1979.2 21.4524C1980.24 20.6328 1980.7 19.6875 1980.7 18.5669C1980.7 17.4495 1980.24 16.5392 1979.22 15.7755L1979.21 15.7614L1979.19 15.7464C1978.16 14.895 1976.58 14.1885 1974.37 13.6864C1972.18 13.1875 1969.47 12.9305 1966.24 12.9305C1963.12 12.9305 1960.43 13.1869 1958.18 13.6875C1955.92 14.1906 1954.32 14.8982 1953.29 15.7464L1953.28 15.7548ZM1933.53 38.476V46.6739H1998.95V38.476H1933.53ZM1957.96 12.7113C1960.31 12.1908 1963.06 11.9305 1966.24 11.9305C1969.52 11.9305 1972.3 12.1908 1974.59 12.7113C1976.88 13.2318 1978.63 13.9865 1979.82 14.9755C1981.07 15.9124 1981.7 17.1095 1981.7 18.5669C1981.7 20.0243 1981.07 21.2475 1979.82 22.2364C1978.63 23.2254 1976.88 23.9801 1974.59 24.5006C1972.3 25.0211 1969.52 25.2813 1966.24 25.2813C1963.06 25.2813 1960.31 25.0211 1957.96 24.5006C1955.62 23.9801 1953.85 23.2254 1952.65 22.2364C1951.46 21.2475 1950.86 20.0243 1950.86 18.5669C1950.86 17.1095 1951.46 15.9124 1952.65 14.9755C1953.85 13.9865 1955.62 13.2318 1957.96 12.7113Z" fill="#8000FF"/>
<path fill-rule="evenodd" clip-rule="evenodd" d="M1907.24 0.546631H1919.62V15.3809H1929.22V25.891H1919.62V40.413H1907.24V0.546631ZM1918.62 24.891H1928.22V16.3809H1918.62V1.54663H1908.24V39.413H1918.62V24.891ZM1863.9 5.38728V15.6632H1886.31C1885.94 17.3092 1885.24 18.9263 1884.21 20.5183C1882.62 22.9307 1879.99 25.119 1876.24 27.0464L1876.23 27.0489C1872.56 28.9605 1867.62 30.4463 1861.38 31.4777L1860.06 31.697L1865.05 41.866L1865.8 41.7224C1873.21 40.3018 1879.47 38.1097 1884.54 35.1226C1889.68 32.1257 1893.58 28.2264 1896.23 23.4215C1898.88 18.6131 1900.18 12.9228 1900.18 6.38728V5.38728H1863.9ZM1864.9 6.38728V14.6632H1887.5C1887.45 14.998 1887.4 15.3314 1887.33 15.6632C1886.94 17.5094 1886.18 19.3102 1885.05 21.0654C1883.33 23.6679 1880.55 25.9581 1876.69 27.936C1873.1 29.8051 1868.4 31.2559 1862.57 32.2883C1862.24 32.3484 1861.89 32.4071 1861.55 32.4643L1865.61 40.7402C1872.95 39.3349 1879.09 37.1748 1884.03 34.26C1889.03 31.3452 1892.8 27.5716 1895.35 22.9392C1897.77 18.5497 1899.04 13.3657 1899.17 7.38728C1899.18 7.05638 1899.18 6.72304 1899.18 6.38728H1864.9ZM1870.31 41.3018H1919.93V50.875H1882.69V52.9349H1919.23V62.2739H1882.69V64.5681H1921.49V74.1413H1870.31V41.3018ZM1871.31 73.1413H1920.49V65.5681H1881.69V61.2739H1918.23V53.9349H1881.69V49.875H1918.93V42.3018H1871.31V73.1413Z" fill="#8000FF"/>
<path fill-rule="evenodd" clip-rule="evenodd" d="M1779.18 3.74768H1835.13V14.0236H1825.92V28.3413H1834.51V38.6172H1779.73V28.3413H1788.47V14.0236H1779.18V3.74768ZM1789.47 13.0236V29.3413H1780.73V37.6172H1833.51V29.3413H1824.92V13.0236H1834.13V4.74768H1780.18V13.0236H1789.47ZM1799.86 13.0236V29.3413H1814.54V13.0236H1799.86ZM1800.86 14.0236V28.3413H1813.54V14.0236H1800.86ZM1773.33 42.5509H1840.83V52.9049H1813.19V74.9221H1800.89V52.9049H1773.33V42.5509ZM1801.89 51.9049V73.9221H1812.19V51.9049H1839.83V43.5509H1774.33V51.9049H1801.89Z" fill="#8000FF"/>
<path fill-rule="evenodd" clip-rule="evenodd" d="M1759.42 10.2909H1768.71V18.723H1759.42V25.4375H1768.71V33.8696H1759.42V43.3947H1749.04V1.62463H1759.42V10.2909ZM1760.42 34.8696V44.3947H1748.04V0.624634H1760.42V9.29095H1769.71V19.723H1760.42V24.4375H1769.71V34.8696H1760.42ZM1717.74 4.29416H1730.28V11.1498C1730.28 13.2927 1730.58 15.4395 1731.18 17.5925C1731.78 19.6741 1732.7 21.6612 1733.94 23.5555C1735.17 25.3765 1736.75 27.0112 1738.7 28.4571C1740.69 29.898 1743.07 31.104 1745.85 32.0656L1747.08 32.4922L1740.45 42.2569L1739.72 41.9929C1735.27 40.3855 1731.54 38.0431 1728.56 34.9543C1726.91 33.244 1725.51 31.3745 1724.34 29.3474C1722.97 32.0273 1721.25 34.468 1719.16 36.6667C1716.07 39.9202 1712.12 42.3682 1707.36 44.0268L1706.63 44.2815L1700.01 34.3499L1701.25 33.9359C1705.2 32.62 1708.34 30.7897 1710.7 28.4706L1710.71 28.4634C1713.16 26.1128 1714.92 23.479 1716.01 20.5598L1716.01 20.5512C1717.17 17.5382 1717.74 14.4843 1717.74 11.384V4.29416ZM1723.75 28.2768C1723.94 27.8924 1724.12 27.503 1724.29 27.1086C1724.47 27.4946 1724.67 27.8751 1724.87 28.2502C1726.06 30.4391 1727.53 32.4423 1729.28 34.2599C1732.15 37.2268 1735.74 39.491 1740.06 41.0525L1745.52 33.0108C1745.19 32.8972 1744.87 32.7802 1744.55 32.6598C1742.1 31.7315 1739.95 30.5993 1738.11 29.2632C1736.08 27.7537 1734.41 26.0361 1733.11 24.1102C1731.81 22.1323 1730.85 20.0503 1730.22 17.8642C1729.6 15.6261 1729.28 13.3879 1729.28 11.1498V5.29416H1718.74V11.384C1718.74 14.6111 1718.15 17.7861 1716.95 20.9091C1715.8 23.9801 1713.96 26.7387 1711.4 29.1851C1709.11 31.4326 1706.15 33.2188 1702.54 34.5437C1702.22 34.6609 1701.9 34.7745 1701.57 34.8846L1707.03 43.0824C1711.66 41.4689 1715.46 39.1006 1718.43 35.9776C1720.61 33.6826 1722.39 31.1157 1723.75 28.2768ZM1711.42 45.2054H1760.42V74.1413H1711.42V45.2054ZM1722.65 54.3252H1749.27V64.9434H1722.65V54.3252ZM1723.65 63.9434H1748.27V55.3252H1723.65V63.9434ZM1712.42 46.2054V73.1413H1759.42V46.2054H1712.42Z" fill="#8000FF"/>
<path fill-rule="evenodd" clip-rule="evenodd" d="M1643.64 27.9509H1651.76V1.71776H1663.44V71.5649H1651.76V52.3549L1646.27 59.9077L1645.5 59.5041C1641.5 57.3971 1638.25 54.4735 1635.77 50.742L1635.76 50.7365C1634.66 49.0612 1633.69 47.2915 1632.86 45.4281C1632.86 45.4446 1632.85 45.461 1632.84 45.4774C1631.56 48.7875 1629.88 51.81 1627.79 54.5409C1625.73 57.2529 1623.18 59.4751 1620.15 61.2053L1619.38 61.6461L1612.41 52.2335L1613.37 51.669C1615.82 50.2151 1617.89 48.4682 1619.58 46.4306C1621.3 44.3163 1622.68 42.0285 1623.73 39.5656L1623.74 39.5567C1624.85 37.0288 1625.63 34.4277 1626.09 31.7519C1626.55 28.9942 1626.77 26.265 1626.77 23.5638V23.0803H1615.53V12.7263H1626.77V2.96696H1638.69V12.7263H1649.78V23.0803H1638.69V23.5638C1638.69 26.1562 1638.92 28.7767 1639.38 31.4257C1639.88 34.0545 1640.67 36.5256 1641.72 38.8415C1642.77 41.1442 1644.15 43.2736 1645.86 45.2312C1647.47 47.0351 1649.44 48.5747 1651.76 49.8463V38.383H1643.64V27.9509ZM1652.76 37.383V70.5649H1662.44V2.71776H1652.76V28.9509H1644.64V37.383H1652.76ZM1645.11 45.8932C1643.34 43.8632 1641.91 41.6511 1640.81 39.2568C1639.72 36.8625 1638.91 34.3121 1638.39 31.6055C1637.92 28.8989 1637.69 26.2183 1637.69 23.5638V22.0803H1648.78V13.7263H1637.69V3.96696H1627.77V13.7263H1616.53V22.0803H1627.77V23.5638C1627.77 26.3224 1627.54 29.1071 1627.07 31.9178C1626.6 34.6764 1625.8 37.357 1624.65 39.9595C1623.56 42.5099 1622.13 44.8782 1620.36 47.0643C1618.79 48.9559 1616.91 50.6021 1614.73 52.0029C1614.45 52.1825 1614.17 52.358 1613.88 52.5296L1619.66 60.3371C1622.57 58.6715 1625.02 56.5374 1626.99 53.9349C1629.02 51.2804 1630.66 48.3395 1631.91 45.1124C1632.05 44.7773 1632.18 44.4402 1632.3 44.1013C1632.48 43.6203 1632.65 43.1356 1632.81 42.647C1632.99 43.1311 1633.18 43.6091 1633.37 44.081C1634.27 46.2448 1635.34 48.2802 1636.6 50.1873C1638.99 53.7788 1642.11 56.5895 1645.97 58.6194L1651.59 50.89C1651.29 50.7313 1651 50.5684 1650.71 50.4011C1648.54 49.1418 1646.67 47.6392 1645.11 45.8932ZM1666.36 0.546631H1678.27V74.844H1666.36V0.546631ZM1667.36 1.54663V73.844H1677.27V1.54663H1667.36Z" fill="#8000FF"/>
<path fill-rule="evenodd" clip-rule="evenodd" d="M1549.1 6.71448H1603.56V14.5851C1603.56 17.6131 1603.51 20.8219 1603.41 24.2114C1603.35 27.6248 1603.12 31.3967 1602.7 35.5255C1602.33 39.6775 1601.65 44.3168 1600.66 49.4407L1600.48 50.3408L1588.09 49.0368L1588.31 47.9598C1589.76 40.7593 1590.58 34.5166 1590.79 29.2244C1590.96 24.7945 1591.06 20.7167 1591.09 16.9904H1549.1V6.71448ZM1592.1 15.9904C1592.1 16.3209 1592.09 16.6543 1592.09 16.9904C1592.06 20.731 1591.96 24.8219 1591.79 29.2632C1591.59 34.3796 1590.82 40.3493 1589.49 47.1724C1589.42 47.4987 1589.36 47.827 1589.29 48.1573L1599.67 49.2503C1600.66 44.1494 1601.34 39.543 1601.7 35.4311C1602.12 31.3191 1602.35 27.5715 1602.41 24.1883C1602.51 20.805 1602.56 17.604 1602.56 14.5851V7.71448H1550.1V15.9904H1592.1ZM1542.38 55.7455H1565.49V30.9177H1577.95V55.7455H1609.81V66.1776H1542.38V55.7455ZM1576.95 56.7455V31.9177H1566.49V56.7455H1543.38V65.1776H1608.81V56.7455H1576.95Z" fill="#8000FF"/>
<path fill-rule="evenodd" clip-rule="evenodd" d="M1484.31 0.468506H1496.77V75.0001H1484.31V0.468506ZM1439.48 57.214H1445.88C1452.44 57.214 1458.53 57.0579 1464.15 56.7456C1469.82 56.3812 1475.57 55.6785 1481.4 54.6375L1480.31 46.2835C1479.98 46.3421 1479.65 46.3996 1479.32 46.4559C1475.86 47.0492 1472.47 47.5122 1469.14 47.845C1465.5 48.1573 1461.78 48.3915 1457.98 48.5477C1455.74 48.6091 1453.42 48.6523 1451.02 48.6775C1450.68 48.681 1450.35 48.6841 1450.02 48.6869V35.6653H1473.44V7.63643H1439.32V15.9904H1462.9V27.4675H1439.48V57.214ZM1461.9 26.4675H1438.48V58.214H1445.88C1452.45 58.214 1458.56 58.0575 1464.2 57.7441L1464.21 57.7435C1469.92 57.3766 1475.71 56.6693 1481.58 55.622L1482.52 55.4542L1481.16 45.1154L1480.13 45.299C1476.36 45.971 1472.67 46.4876 1469.05 46.8493C1465.43 47.1598 1461.73 47.3928 1457.94 47.5483C1455.72 47.6093 1453.41 47.6523 1451.02 47.6775V36.6653H1474.44V6.63643H1438.32V16.9904H1461.9V26.4675ZM1485.31 1.46851V74.0001H1495.77V1.46851H1485.31Z" fill="#8000FF"/>
<path fill-rule="evenodd" clip-rule="evenodd" d="M1414.43 0.624634H1426.35V40.2567H1414.43V0.624634ZM1392.96 16.0054H1400.3V1.9519H1412.06V39.7102H1400.3V30.9955L1394.95 40.0007L1394.18 39.733C1390.31 38.3871 1387.12 36.4068 1384.65 33.7728L1384.64 33.7653C1383.46 32.4768 1382.43 31.098 1381.55 29.6297C1380.57 31.3917 1379.39 33.0314 1377.99 34.5473C1375.47 37.2845 1372.21 39.3695 1368.23 40.8208L1367.47 41.0968L1361.37 31.4724L1362.56 31.0533C1365.68 29.9433 1368.16 28.4979 1370.01 26.7415C1371.89 24.9622 1373.23 22.9788 1374.06 20.79L1374.06 20.7789C1374.83 18.8028 1375.27 16.8385 1375.37 14.8824H1364V4.68453H1398.01V14.8824H1387.49C1387.59 16.7745 1388 18.6323 1388.72 20.4596C1389.55 22.4951 1390.84 24.3512 1392.61 26.0279C1394.42 27.6403 1396.72 28.9568 1399.53 29.961L1400.3 30.2366V26.2033H1392.96V16.0054ZM1401.3 25.2033V38.7102H1411.06V2.9519H1401.3V17.0054H1393.96V25.2033H1401.3ZM1391.93 26.7648C1390.06 24.9951 1388.68 23.0172 1387.8 20.8311C1387.03 18.8874 1386.59 16.9045 1386.49 14.8824C1386.48 14.576 1386.47 14.2687 1386.47 13.9605V13.8824H1397.01V5.68453H1365V13.8824H1376.4V13.9605C1376.4 14.2678 1376.39 14.5751 1376.37 14.8824C1376.27 16.9694 1375.81 19.0564 1374.99 21.1434C1374.11 23.4856 1372.68 25.5936 1370.7 27.4674C1368.92 29.1523 1366.64 30.5425 1363.85 31.6382C1363.53 31.7611 1363.22 31.8803 1362.89 31.9958L1367.89 39.8814C1371.74 38.476 1374.86 36.4721 1377.26 33.8696C1378.74 32.257 1379.98 30.5005 1380.96 28.5998C1381.16 28.2309 1381.34 27.8565 1381.51 27.4767C1381.7 27.8502 1381.89 28.2183 1382.1 28.5808C1383 30.1923 1384.1 31.695 1385.38 33.0888C1387.72 35.5872 1390.76 37.4871 1394.51 38.7883L1399.19 30.9027C1398.87 30.7874 1398.56 30.668 1398.24 30.5444C1395.75 29.5521 1393.65 28.2922 1391.93 26.7648ZM1375.16 40.7551H1426.35V61.9616H1387.62V64.1776H1428.69V74.1413H1375.32V52.6225H1414.12V50.7188H1375.16V40.7551ZM1415.12 49.7188V53.6225H1376.32V73.1413H1427.69V65.1776H1386.62V60.9616H1425.35V41.7551H1376.16V49.7188H1415.12ZM1415.43 1.62463V39.2567H1425.35V1.62463H1415.43Z" fill="#8000FF"/>
<path fill-rule="evenodd" clip-rule="evenodd" d="M1305.24 45.8832C1304.91 45.9069 1304.58 45.93 1304.24 45.9524V71.736H1293.78V46.4616C1293.45 46.4713 1293.12 46.4804 1292.78 46.4888C1292.36 46.4996 1291.94 46.5092 1291.52 46.5178C1286.47 46.6219 1281.73 46.6739 1277.31 46.6739L1276.14 38.2418C1276.47 38.2418 1276.81 38.2417 1277.15 38.2414C1281.3 38.2378 1285.8 38.2119 1290.66 38.1638C1295.92 38.1117 1301.28 37.9296 1306.74 37.6173C1311.86 37.325 1316.84 36.8731 1321.68 36.2618C1322.01 36.2199 1322.34 36.1772 1322.67 36.1338L1323.22 43.629C1317.96 44.618 1312.62 45.3207 1307.21 45.737C1306.55 45.7881 1305.9 45.8368 1305.24 45.8832ZM1307.29 46.7341C1312.74 46.3149 1318.11 45.6075 1323.4 44.6118L1324.28 44.4467L1323.59 35.0044L1322.54 35.1423C1317.41 35.8156 1312.13 36.3079 1306.69 36.6189C1301.24 36.9303 1295.89 37.1119 1290.65 37.1638C1285.4 37.2158 1280.56 37.2418 1276.14 37.2418H1274.99L1276.44 47.6739H1277.31C1281.74 47.6739 1286.48 47.6218 1291.54 47.5176C1291.95 47.5091 1292.37 47.4997 1292.78 47.4892V72.736H1305.24V46.8857C1305.92 46.8377 1306.61 46.7872 1307.29 46.7341ZM1326.2 0.546631H1338.66V74.844H1326.2V58.9948H1311.76V49.1873H1326.2V0.546631ZM1327.2 50.1873H1312.76V57.9948H1327.2V73.844H1337.66V1.54663H1327.2V50.1873ZM1309.33 33.3036C1306.42 34.564 1303.13 35.182 1299.48 35.182C1295.83 35.182 1292.52 34.5639 1289.57 33.3063L1289.56 33.3018L1289.54 33.2972C1286.64 31.9832 1284.31 30.1334 1282.59 27.74L1282.58 27.7337L1282.58 27.7274C1280.89 25.3067 1280.06 22.5005 1280.06 19.3477C1280.06 16.2432 1280.89 13.4854 1282.59 11.1151L1282.59 11.1116C1284.31 8.7182 1286.64 6.86842 1289.54 5.5544L1289.55 5.55152C1292.51 4.23756 1295.82 3.59156 1299.48 3.59156C1303.14 3.59156 1306.43 4.23695 1309.34 5.55291C1312.29 6.86559 1314.63 8.71675 1316.3 11.1197C1318 13.4889 1318.83 16.2451 1318.83 19.3477C1318.83 22.5005 1318 25.3067 1316.31 27.7274C1314.63 30.1334 1312.29 31.9865 1309.34 33.3L1309.33 33.3036ZM1315.49 11.6964C1313.93 9.45823 1311.74 7.71456 1308.93 6.46536C1306.17 5.21616 1303.02 4.59156 1299.48 4.59156C1295.94 4.59156 1292.77 5.21616 1289.96 6.46536C1287.2 7.71456 1285.01 9.45823 1283.4 11.6964C1281.84 13.8825 1281.06 16.4329 1281.06 19.3477C1281.06 22.3146 1281.84 24.9171 1283.4 27.1552C1285.01 29.3934 1287.2 31.137 1289.96 32.3862C1292.77 33.5834 1295.94 34.182 1299.48 34.182C1303.02 34.182 1306.17 33.5834 1308.93 32.3862C1311.74 31.137 1313.93 29.3934 1315.49 27.1552C1317.05 24.9171 1317.83 22.3146 1317.83 19.3477C1317.83 16.4329 1317.05 13.8825 1315.49 11.6964ZM1295.33 14.1827L1295.33 14.1864C1294.19 14.6423 1293.33 15.3082 1292.73 16.1736C1292.13 17.0227 1291.82 18.0643 1291.82 19.3477C1291.82 20.6914 1292.14 21.7567 1292.73 22.5999C1293.33 23.4637 1294.18 24.1288 1295.32 24.5847C1296.54 25.0535 1297.92 25.2964 1299.48 25.2964C1301.1 25.2964 1302.45 25.0506 1303.55 24.5926L1303.55 24.5898L1303.56 24.5872C1304.7 24.1312 1305.55 23.4653 1306.16 22.5999L1306.17 22.5865L1306.18 22.5734C1306.81 21.7322 1307.15 20.6768 1307.15 19.3477C1307.15 18.0794 1306.81 17.0474 1306.18 16.2001L1306.17 16.187L1306.16 16.1736C1305.55 15.3082 1304.7 14.6423 1303.56 14.1864L1303.54 14.1772L1303.52 14.1669C1302.43 13.6673 1301.09 13.399 1299.48 13.399C1297.93 13.399 1296.56 13.665 1295.34 14.1788L1295.33 14.1827ZM1294.95 25.5156C1293.65 24.9951 1292.64 24.2144 1291.91 23.1734C1291.18 22.1324 1290.82 20.8572 1290.82 19.3477C1290.82 17.8903 1291.18 16.6411 1291.91 15.6001C1292.64 14.5591 1293.65 13.7784 1294.95 13.2579C1296.31 12.6853 1297.82 12.399 1299.48 12.399C1301.2 12.399 1302.68 12.6853 1303.93 13.2579C1305.23 13.7784 1306.25 14.5591 1306.98 15.6001C1307.76 16.6411 1308.15 17.8903 1308.15 19.3477C1308.15 20.8572 1307.76 22.1324 1306.98 23.1734C1306.25 24.2144 1305.23 24.9951 1303.93 25.5156C1302.68 26.0361 1301.2 26.2964 1299.48 26.2964C1297.82 26.2964 1296.31 26.0361 1294.95 25.5156Z" fill="#8000FF"/>
<path fill-rule="evenodd" clip-rule="evenodd" d="M1261.15 18.4107H1271.07V26.9209H1261.15V39.569H1271.07V48.0011H1261.15V73.922H1250.69V1.62463H1261.15V18.4107ZM1262.15 49.0011V74.922H1249.69V0.624634H1262.15V17.4107H1272.07V27.9209H1262.15V38.569H1272.07V49.0011H1262.15ZM1219.79 6.16795H1232.17V17.63C1232.17 20.8956 1232.48 24.1085 1233.09 27.2697C1233.75 30.4194 1234.74 33.3586 1236.06 36.0903C1237.37 38.8105 1239.03 41.2497 1241.04 43.4117C1243.08 45.5537 1245.5 47.2758 1248.3 48.5775L1249.43 49.1021L1241.85 59.029L1241.1 58.6521C1237.71 56.9295 1234.8 54.6639 1232.37 51.8566C1229.96 49.0714 1227.95 45.8904 1226.36 42.32L1226.35 42.3118L1226.35 42.3036C1226.22 42.0021 1226.09 41.6985 1225.97 41.393C1225.76 41.9367 1225.53 42.4752 1225.3 43.0085C1223.7 46.7902 1221.64 50.1567 1219.13 53.1011C1216.6 56.059 1213.64 58.43 1210.24 60.2078L1209.52 60.5858L1201.5 50.7895L1202.62 50.2297C1205.53 48.7729 1208.03 46.8942 1210.13 44.5942L1210.14 44.5856C1212.31 42.2666 1214.1 39.6442 1215.52 36.714L1215.52 36.7015C1216.99 33.7596 1218.06 30.693 1218.72 27.4996L1218.72 27.4879C1219.43 24.2264 1219.79 20.9408 1219.79 17.63V6.16795ZM1225.44 40.0009C1225.62 39.5065 1225.8 39.0077 1225.97 38.5046C1226.14 39.008 1226.32 39.5061 1226.5 39.999C1226.75 40.6454 1227 41.2829 1227.27 41.9113C1228.83 45.3986 1230.78 48.4956 1233.12 51.2022C1235.47 53.9088 1238.28 56.0949 1241.56 57.7605L1247.88 49.4846C1247.57 49.3406 1247.26 49.1916 1246.96 49.0376C1244.43 47.7442 1242.21 46.0974 1240.31 44.0974C1238.23 41.8592 1236.51 39.3348 1235.15 36.5241C1233.8 33.7134 1232.79 30.6945 1232.11 27.4674C1231.49 24.2403 1231.17 20.9612 1231.17 17.63V7.16795H1220.79V17.63C1220.79 21.0132 1220.42 24.3705 1219.7 27.7017C1219.02 30.9808 1217.93 34.1298 1216.42 37.1487C1214.96 40.1676 1213.11 42.8742 1210.87 45.2685C1208.91 47.4201 1206.61 49.2143 1203.97 50.6514C1203.67 50.8135 1203.37 50.9711 1203.07 51.1241L1209.78 59.322C1213.06 57.6043 1215.92 55.3142 1218.37 52.4514C1220.81 49.5887 1222.82 46.3095 1224.38 42.614C1224.75 41.7569 1225.11 40.8859 1225.44 40.0009Z" fill="#8000FF"/>
<path fill-rule="evenodd" clip-rule="evenodd" d="M1105.58 45.2054H1154.58V74.1413H1105.58V45.2054ZM1142.19 0.624634H1154.58V16.63H1164.18V27.0621H1154.58V43.9263H1142.19V0.624634ZM1153.58 26.0621H1163.18V17.63H1153.58V1.62463H1143.19V42.9263H1153.58V26.0621ZM1097.77 4.4503H1110.07V13.4289H1122.28V4.4503H1134.51V40.491H1097.77V4.4503ZM1123.28 14.4289H1109.07V5.4503H1098.77V39.491H1133.51V5.4503H1123.28V14.4289ZM1116.8 54.3252H1143.43V64.9434H1116.8V54.3252ZM1117.8 63.9434H1142.43V55.3252H1117.8V63.9434ZM1123.28 31.2931V22.3145H1109.07V31.2931H1123.28ZM1110.07 30.2931H1122.28V23.3145H1110.07V30.2931ZM1106.58 46.2054V73.1413H1153.58V46.2054H1106.58Z" fill="#8000FF"/>
<path fill-rule="evenodd" clip-rule="evenodd" d="M1021.4 5.77771H1033.78V14.8975C1033.78 16.8998 1034.01 18.9589 1034.46 21.0764C1034.96 23.1251 1035.71 25.1275 1036.72 27.0846C1037.7 28.9588 1039.01 30.6933 1040.66 32.2878C1041.08 32.6892 1041.53 33.0738 1042.01 33.4415C1043.07 32.6201 1044 31.7186 1044.81 30.7385C1046.71 28.3907 1048.05 25.8551 1048.84 23.1283L1048.85 23.1203L1048.85 23.1124C1049.71 20.3389 1050.13 17.6017 1050.13 14.8975V5.77771H1062.67V14.8975C1062.67 17.7093 1063.1 20.4708 1063.95 23.1855C1064.8 25.8626 1066.16 28.2935 1068.05 30.4835C1069.92 32.6431 1072.39 34.4083 1075.5 35.7636L1076.62 36.2498L1070.15 45.5668L1069.41 45.2541C1065.41 43.5803 1062.17 41.1636 1059.71 37.9961C1058.44 36.3561 1057.35 34.5986 1056.43 32.7249C1055.44 34.8409 1054.23 36.8319 1052.78 38.6965C1050.28 41.9428 1046.91 44.4427 1042.71 46.2107L1042.46 46.6942L1042 46.5051L1041.54 46.6925L1041.28 46.2097C1038.15 44.8827 1035.47 43.1447 1033.26 40.9874L1033.25 40.979C1030.98 38.7156 1029.15 36.1532 1027.75 33.2952L1027.75 33.2883L1027.74 33.2814C1027.67 33.1278 1027.6 32.9737 1027.53 32.8192C1026.64 34.6173 1025.58 36.3151 1024.37 37.9115L1024.36 37.918C1021.91 41.0828 1018.67 43.5239 1014.68 45.2496L1013.93 45.5746L1007.46 36.2498L1008.57 35.7636C1011.68 34.4104 1014.15 32.6224 1016.01 30.4138C1017.91 28.1687 1019.28 25.7085 1020.12 23.0293C1020.97 20.3111 1021.4 17.6015 1021.4 14.8975V5.77771ZM1027 31.6049C1027.2 31.1797 1027.38 30.7488 1027.56 30.3122C1027.73 30.7516 1027.91 31.1872 1028.09 31.6191C1028.27 32.0344 1028.45 32.4463 1028.65 32.8547C1030 35.6134 1031.77 38.0858 1033.96 40.2719C1035.79 42.067 1037.98 43.5676 1040.52 44.7734C1041 45.0011 1041.49 45.2182 1042 45.4248C1042.5 45.2197 1042.99 45.0042 1043.47 44.7783C1047 43.1125 1049.84 40.8817 1051.99 38.0858C1053.56 36.053 1054.86 33.8654 1055.88 31.5228C1056.06 31.0899 1056.24 30.6516 1056.41 30.2081C1056.59 30.6496 1056.77 31.0849 1056.97 31.514C1057.92 33.6196 1059.1 35.5759 1060.5 37.3831C1062.84 40.402 1065.94 42.7182 1069.79 44.3318L1075.1 36.6804C1074.79 36.5437 1074.48 36.4028 1074.18 36.2578C1071.37 34.9114 1069.08 33.2045 1067.29 31.1371C1065.32 28.8469 1063.88 26.2964 1063 23.4857C1062.11 20.6751 1061.67 17.8123 1061.67 14.8975V6.77771H1051.13V14.8975C1051.13 17.7082 1050.69 20.5449 1049.8 23.4077C1048.97 26.2704 1047.57 28.925 1045.59 31.3713C1044.79 32.3436 1043.87 33.2387 1042.84 34.0565C1042.57 34.2727 1042.29 34.4835 1042.01 34.6889C1041.72 34.4831 1041.44 34.2717 1041.17 34.0547C1040.75 33.7202 1040.35 33.3723 1039.97 33.0109C1038.25 31.3453 1036.87 29.5235 1035.83 27.5456C1034.79 25.5157 1034.01 23.4337 1033.49 21.2997C1033.02 19.1136 1032.78 16.9795 1032.78 14.8975V6.77771H1022.4V14.8975C1022.4 17.7082 1021.96 20.5189 1021.07 23.3296C1020.19 26.1403 1018.76 28.7168 1016.78 31.059C1014.99 33.1735 1012.7 34.9063 1009.89 36.2572C1009.59 36.4027 1009.29 36.5438 1008.97 36.6804L1014.28 44.3318C1018.13 42.6662 1021.23 40.3239 1023.57 37.305C1024.92 35.5347 1026.06 33.6347 1027 31.6049ZM1008.28 55.5114H1075.79V66.0216H1008.28V55.5114ZM1009.28 56.5114V65.0216H1074.79V56.5114H1009.28Z" fill="#8000FF"/>
<path fill-rule="evenodd" clip-rule="evenodd" d="M938.569 7.02685H950.328V23.2664H957.463V7.02685H969.066V57.7456H938.569V7.02685ZM958.463 24.2664H949.328V8.02685H939.569V56.7456H968.066V8.02685H958.463V24.2664ZM988.693 0.546631H1000.61V74.844H988.693V38.4611H984.603V71.6429H972.922V1.71776H984.603V28.1852H988.693V0.546631ZM989.693 29.1852H983.603V2.71776H973.922V70.6429H983.603V37.4611H989.693V73.844H999.609V1.54663H989.693V29.1852ZM949.328 48.4697V32.3082H958.463V48.4697H949.328ZM957.463 47.4697V33.3082H950.328V47.4697H957.463Z" fill="#8000FF"/>
<path d="M875.477 59.8607C873.333 59.8607 871.494 59.1121 869.96 57.6149C868.444 56.0993 867.695 54.2601 867.714 52.0975C867.695 49.9904 868.444 48.1883 869.96 46.6911C871.494 45.1939 873.333 44.4453 875.477 44.4453C877.51 44.4453 879.303 45.1939 880.856 46.6911C882.427 48.1883 883.222 49.9904 883.24 52.0975C883.222 53.5393 882.843 54.8516 882.103 56.0346C881.382 57.199 880.44 58.1325 879.275 58.8348C878.111 59.5187 876.845 59.8607 875.477 59.8607ZM875.477 31.248C873.333 31.248 871.494 30.4994 869.96 29.0022C868.444 27.4866 867.695 25.6474 867.714 23.4849C867.695 21.3777 868.444 19.5756 869.96 18.0784C871.494 16.5812 873.333 15.8326 875.477 15.8326C877.51 15.8326 879.303 16.5812 880.856 18.0784C882.427 19.5756 883.222 21.3777 883.24 23.4849C883.222 24.9266 882.843 26.2389 882.103 27.4219C881.382 28.5864 880.44 29.5198 879.275 30.2222C878.111 30.9061 876.845 31.248 875.477 31.248Z" fill="#8000FF"/>
<path d="M810.003 1.62465H820.386V45.1124H810.003V1.62465ZM817.576 19.4257H829.99V27.9359H817.576V19.4257ZM773.385 48.3134H820.386V73.1413H773.385V48.3134ZM810.237 56.4332H783.613V64.9434H810.237V56.4332ZM763.548 8.02679H806.021V16.2247H763.548V8.02679ZM784.784 18.4108C788.324 18.4108 791.421 18.9573 794.075 20.0503C796.73 21.1434 798.812 22.6789 800.321 24.6568C801.831 26.5826 802.585 28.8468 802.585 31.4493C802.585 33.9997 801.831 36.2639 800.321 38.2418C798.812 40.1676 796.73 41.6771 794.075 42.7701C791.421 43.8632 788.324 44.4097 784.784 44.4097C781.297 44.4097 778.2 43.8632 775.493 42.7701C772.839 41.6771 770.757 40.1676 769.247 38.2418C767.738 36.2639 766.983 33.9997 766.983 31.4493C766.983 28.8468 767.738 26.5826 769.247 24.6568C770.757 22.6789 772.839 21.1434 775.493 20.0503C778.2 18.9573 781.297 18.4108 784.784 18.4108ZM784.784 26.0621C782.494 26.0621 780.62 26.5305 779.163 27.4674C777.706 28.3523 776.977 29.6796 776.977 31.4493C776.977 33.219 777.706 34.5723 779.163 35.5092C780.62 36.394 782.494 36.8364 784.784 36.8364C787.127 36.8364 789 36.394 790.406 35.5092C791.863 34.5723 792.592 33.219 792.592 31.4493C792.592 29.6796 791.863 28.3523 790.406 27.4674C789 26.5305 787.127 26.0621 784.784 26.0621ZM779.631 1.07812H789.937V12.4771H779.631V1.07812Z" fill="#8000FF"/>
<path d="M728.576 16.9273H745.363V25.3594H728.576V16.9273ZM708.277 5.99683H716.631V13.8043C716.631 18.697 715.928 23.3034 714.523 27.6236C713.118 31.9437 710.932 35.7173 707.965 38.9444C705.05 42.1195 701.302 44.5398 696.722 46.2054L691.257 38.0856C694.276 37.0446 696.852 35.6913 698.986 34.0257C701.12 32.3601 702.864 30.4603 704.217 28.3263C705.57 26.1402 706.585 23.8239 707.262 21.3776C707.939 18.9312 708.277 16.4068 708.277 13.8043V5.99683ZM710.463 5.99683H718.739V13.8824C718.739 16.2246 719.051 18.5148 719.676 20.753C720.301 22.9911 721.264 25.1252 722.565 27.1551C723.866 29.1851 725.532 31.0068 727.562 32.6204C729.644 34.1819 732.09 35.4571 734.901 36.446L729.435 44.4097C725.115 42.7961 721.55 40.4799 718.739 37.461C715.928 34.4421 713.846 30.9027 712.493 26.8428C711.14 22.7829 710.463 18.4628 710.463 13.8824V5.99683ZM741.771 1.62463H752.233V54.9498H741.771V1.62463ZM704.373 64.3188H753.795V72.6728H704.373V64.3188ZM704.373 49.6407H714.757V69.0033H704.373V49.6407Z" fill="#8000FF"/>
<path d="M669.558 1.62463H679.942V54.3252H669.558V1.62463ZM631.77 64.3188H681.816V72.6728H631.77V64.3188ZM631.77 49.2503H642.154V68.6129H631.77V49.2503ZM636.844 5.60645H645.433V12.6332C645.433 17.3177 644.678 21.794 643.169 26.0621C641.711 30.3302 639.473 34.0778 636.454 37.3049C633.435 40.532 629.584 42.9783 624.899 44.6439L619.59 36.368C623.65 34.9626 626.929 33.0108 629.427 30.5124C631.978 28.014 633.852 25.2033 635.049 22.0803C636.246 18.9573 636.844 15.8082 636.844 12.6332V5.60645ZM638.953 5.60645H647.385V12.6332C647.385 14.9754 647.697 17.2917 648.322 19.5819C648.998 21.82 650.013 23.9541 651.366 25.984C652.72 27.9619 654.463 29.7576 656.597 31.3712C658.732 32.9847 661.256 34.26 664.171 35.1969L658.94 43.3947C654.359 41.8853 650.586 39.5951 647.619 36.5241C644.652 33.4532 642.466 29.8617 641.061 25.7498C639.655 21.6378 638.953 17.2656 638.953 12.6332V5.60645Z" fill="#8000FF"/>
<path fill-rule="evenodd" clip-rule="evenodd" d="M531.448 37.476H598.874V47.6739H531.448V37.476ZM540.411 72.6728H590.535V64.3188H550.795V51.5145H540.411V72.6728ZM551.795 63.3188V50.5145H539.411V73.6728H591.535V63.3188H551.795ZM551.13 32.6406L551.126 32.6395C547.11 31.4078 543.903 29.6182 541.57 27.2293C539.205 24.8083 538.006 21.9044 538.006 18.5669C538.006 15.2765 539.208 12.4 541.57 9.9826C543.903 7.59367 547.11 5.80406 551.126 4.57234L551.13 4.57126C555.2 3.33944 559.882 2.73267 565.161 2.73267C570.49 2.73267 575.172 3.33891 579.194 4.57181C583.26 5.80265 586.495 7.59157 588.83 9.9826C591.191 12.4 592.394 15.2765 592.394 18.5669C592.394 21.9044 591.195 24.8083 588.83 27.2293C586.495 29.6203 583.26 31.4092 579.194 32.64C575.172 33.873 570.49 34.4792 565.161 34.4792C559.882 34.4792 555.2 33.8724 551.13 32.6406ZM578.902 31.6835C582.858 30.4863 585.929 28.7687 588.115 26.5306C590.301 24.2924 591.394 21.6379 591.394 18.5669C591.394 15.548 590.301 12.9195 588.115 10.6813C585.929 8.44319 582.858 6.72554 578.902 5.5284C574.998 4.33125 570.418 3.73267 565.161 3.73267C559.956 3.73267 555.375 4.33125 551.42 5.5284C547.516 6.72554 544.471 8.44319 542.285 10.6813C540.099 12.9195 539.006 15.548 539.006 18.5669C539.006 21.6379 540.099 24.2924 542.285 26.5306C544.471 28.7687 547.516 30.4863 551.42 31.6835C555.375 32.8806 559.956 33.4792 565.161 33.4792C570.418 33.4792 574.998 32.8806 578.902 31.6835ZM552.203 15.7548L552.192 15.763C551.225 16.5198 550.78 17.4321 550.78 18.5669C550.78 19.7044 551.228 20.6523 552.213 21.4655C553.24 22.3137 554.838 23.0213 557.102 23.5244C559.354 24.0249 562.037 24.2813 565.161 24.2813C568.392 24.2813 571.098 24.0244 573.293 23.5255C575.502 23.0234 577.078 22.3168 578.109 21.4655L578.117 21.4588L578.125 21.4524C579.16 20.6328 579.62 19.6875 579.62 18.5669C579.62 17.4495 579.164 16.5392 578.146 15.7755L578.127 15.7614L578.109 15.7464C577.078 14.895 575.502 14.1885 573.293 13.6864C571.098 13.1875 568.392 12.9305 565.161 12.9305C562.037 12.9305 559.354 13.1869 557.102 13.6875C554.838 14.1906 553.24 14.8982 552.213 15.7464L552.203 15.7548ZM532.448 38.476V46.6739H597.874V38.476H532.448ZM556.885 12.7113C559.227 12.1908 561.986 11.9305 565.161 11.9305C568.44 11.9305 571.225 12.1908 573.515 12.7113C575.805 13.2318 577.549 13.9865 578.746 14.9755C579.995 15.9124 580.62 17.1095 580.62 18.5669C580.62 20.0243 579.995 21.2475 578.746 22.2364C577.549 23.2254 575.805 23.9801 573.515 24.5006C571.225 25.0211 568.44 25.2813 565.161 25.2813C561.986 25.2813 559.227 25.0211 556.885 24.5006C554.543 23.9801 552.773 23.2254 551.576 22.2364C550.379 21.2475 549.78 20.0243 549.78 18.5669C549.78 17.1095 550.379 15.9124 551.576 14.9755C552.773 13.9865 554.543 13.2318 556.885 12.7113Z" fill="#8000FF"/>
<path fill-rule="evenodd" clip-rule="evenodd" d="M509.358 0.624634H521.742V43.4578H509.358V0.624634ZM471.648 44.737H521.742V74.1413H471.648V44.737ZM476.645 3.27918H489.185V11.1498C489.185 13.2853 489.508 15.341 490.151 17.3209C490.793 19.2966 491.758 21.1801 493.052 22.9727C494.329 24.6911 495.959 26.2256 497.953 27.5723C499.989 28.9126 502.445 30.0194 505.335 30.8813L506.589 31.2555L500.504 41.0489L499.78 40.8434C496.194 39.8266 493.063 38.3471 490.404 36.3931L490.396 36.3873C487.813 34.4503 485.629 32.186 483.848 29.5955L483.841 29.5857L483.834 29.5757C483.568 29.1685 483.313 28.7556 483.068 28.337C481.669 30.8911 479.913 33.2081 477.799 35.2854L477.793 35.2915C474.59 38.3858 470.514 40.6697 465.6 42.1653L464.862 42.39L458.785 32.5156L460.016 32.1338C462.95 31.223 465.453 30.0172 467.539 28.5275C469.647 27.0218 471.361 25.3531 472.695 23.5259C474.041 21.6317 475.031 19.6475 475.674 17.5717C476.323 15.4242 476.645 13.2845 476.645 11.1498V3.27918ZM476.63 17.8642C475.953 20.0503 474.912 22.1323 473.507 24.1102C472.102 26.0361 470.306 27.7797 468.12 29.3412C466.173 30.7316 463.897 31.8743 461.29 32.7695C460.969 32.8797 460.643 32.9861 460.312 33.0888L465.309 41.2086C470.098 39.7512 474.027 37.5391 477.098 34.5723C479.294 32.4142 481.09 29.9902 482.487 27.3003C482.678 26.9338 482.861 26.5624 483.036 26.1861C483.222 26.5563 483.416 26.9222 483.617 27.2837C483.948 27.8772 484.299 28.4589 484.672 29.0289C486.389 31.5273 488.497 33.7134 490.996 35.5872C493.546 37.461 496.565 38.8924 500.052 39.8814L505.049 31.8396C504.715 31.7401 504.387 31.6372 504.064 31.5311C501.514 30.6938 499.292 29.6516 497.398 28.4043C495.316 26.999 493.598 25.3854 492.245 23.5637C490.892 21.6899 489.877 19.712 489.2 17.63C488.523 15.548 488.185 13.3879 488.185 11.1498V4.27918H477.645V11.1498C477.645 13.3879 477.307 15.6261 476.63 17.8642ZM482.876 53.9348H510.593V64.9434H482.876V53.9348ZM483.876 63.9434H509.593V54.9348H483.876V63.9434ZM510.358 1.62463V42.4578H520.742V1.62463H510.358ZM472.648 45.737V73.1413H520.742V45.737H472.648Z" fill="#8000FF"/>
<path fill-rule="evenodd" clip-rule="evenodd" d="M387.49 7.80752H399.981V1.17116H412.209V7.80752H424.623V17.8492H387.49V7.80752ZM411.209 8.80752V2.17116H400.981V8.80752H388.49V16.8492H423.623V8.80752H411.209ZM414.685 44.3752L414.677 44.379C412.18 45.5444 409.324 46.1124 406.134 46.1124C403.043 46.1124 400.218 45.5422 397.677 44.3825L397.665 44.377L397.653 44.3712C395.176 43.1601 393.192 41.5196 391.731 39.4413C390.25 37.3329 389.519 34.8901 389.519 32.1519C389.519 29.416 390.248 26.975 391.728 24.8677C393.19 22.7329 395.18 21.0866 397.67 19.9249L397.677 19.9213C400.218 18.7616 403.043 18.1915 406.134 18.1915C409.324 18.1915 412.18 18.7595 414.677 19.9249C417.166 21.0865 419.135 22.7345 420.546 24.875C422.022 26.9806 422.749 29.4192 422.749 32.1519C422.749 34.8869 422.021 37.3271 420.543 39.4339C419.133 41.5181 417.17 43.1603 414.693 44.3712L414.685 44.3752ZM392.549 25.4375C391.196 27.3633 390.519 29.6015 390.519 32.1519C390.519 34.7024 391.196 36.9405 392.549 38.8664C393.903 40.7922 395.75 42.3277 398.093 43.4728C400.487 44.5658 403.168 45.1124 406.134 45.1124C409.205 45.1124 411.912 44.5658 414.254 43.4728C416.596 42.3277 418.418 40.7922 419.719 38.8664C421.073 36.9405 421.749 34.7024 421.749 32.1519C421.749 29.6015 421.073 27.3633 419.719 25.4375C418.418 23.4596 416.596 21.9241 414.254 20.8311C411.912 19.738 409.205 19.1915 406.134 19.1915C403.168 19.1915 400.487 19.738 398.093 20.8311C395.75 21.9241 393.903 23.4596 392.549 25.4375ZM402.139 28.9614C401.294 29.6144 400.81 30.6152 400.81 32.1519C400.81 33.6758 401.287 34.7135 402.142 35.4224C403.125 36.1411 404.43 36.5391 406.134 36.5391C407.844 36.5391 409.152 36.1387 410.135 35.4159C411.042 34.7013 411.537 33.665 411.537 32.1519C411.537 30.6317 411.039 29.6337 410.146 28.9743L410.127 28.9597L410.108 28.9441C409.189 28.1925 407.9 27.7648 406.134 27.7648C404.431 27.7648 403.128 28.188 402.144 28.9576L402.139 28.9614ZM401.528 36.2118C400.383 35.2749 399.81 33.9216 399.81 32.1519C399.81 30.3822 400.383 29.055 401.528 28.1701C402.725 27.2332 404.261 26.7648 406.134 26.7648C408.06 26.7648 409.596 27.2332 410.741 28.1701C411.938 29.055 412.537 30.3822 412.537 32.1519C412.537 33.9216 411.938 35.2749 410.741 36.2118C409.544 37.0967 408.008 37.5391 406.134 37.5391C404.261 37.5391 402.725 37.0967 401.528 36.2118ZM439.565 0.624634H451.481V47.9081H439.565V29.9509H436.413V47.5177H424.653V1.79576H436.413V19.6749H439.565V0.624634ZM440.565 20.6749H435.413V2.79576H425.653V46.5177H435.413V28.9509H440.565V46.9081H450.481V1.62463H440.565V20.6749ZM399.747 49.1872H451.481V74.922H439.097V59.3851H399.747V49.1872ZM440.097 58.3851V73.922H450.481V50.1872H400.747V58.3851H440.097Z" fill="#8000FF"/>
<path fill-rule="evenodd" clip-rule="evenodd" d="M306.514 33.937C304.688 31.0586 303.782 27.7992 303.782 24.1883C303.782 20.5288 304.686 17.2651 306.519 14.4322L306.522 14.4282C308.393 11.5668 310.924 9.34199 314.094 7.75697C317.269 6.1698 320.834 5.38722 324.769 5.38722C328.655 5.38722 332.194 6.17073 335.366 7.75697C338.537 9.3425 341.046 11.5695 342.866 14.436C344.697 17.268 345.6 20.5304 345.6 24.1883C345.6 27.7992 344.695 31.0586 342.868 33.937C341.048 36.8052 338.539 39.0334 335.366 40.6196C332.194 42.2059 328.655 42.9894 324.769 42.9894C320.834 42.9894 317.269 42.2068 314.094 40.6196C310.924 39.0346 308.393 36.8098 306.522 33.9484L306.514 33.937ZM342.024 14.9755C340.306 12.2689 337.938 10.1608 334.919 8.6514C331.9 7.14195 328.517 6.38722 324.769 6.38722C320.97 6.38722 317.56 7.14195 314.542 8.6514C311.523 10.1608 309.128 12.2689 307.359 14.9755C305.641 17.63 304.782 20.701 304.782 24.1883C304.782 27.6236 305.641 30.6946 307.359 33.4012C309.128 36.1077 311.523 38.2158 314.542 39.7252C317.56 41.2347 320.97 41.9894 324.769 41.9894C328.517 41.9894 331.9 41.2347 334.919 39.7252C337.938 38.2158 340.306 36.1077 342.024 33.4012C343.742 30.6946 344.6 27.6236 344.6 24.1883C344.6 20.701 343.742 17.63 342.024 14.9755ZM320.122 17.2847L320.116 17.2878C318.83 17.8846 317.804 18.773 317.021 19.9688C316.313 21.0771 315.932 22.4667 315.932 24.1883C315.932 25.9049 316.311 27.3261 317.026 28.4933C317.808 29.6857 318.836 30.6005 320.123 31.2481C321.483 31.8542 323.026 32.1669 324.769 32.1669C326.459 32.1669 327.948 31.8547 329.254 31.2511C330.543 30.6039 331.542 29.6913 332.272 28.5049L332.279 28.4932L332.286 28.4817C333.049 27.3157 333.451 25.8993 333.451 24.1883C333.451 22.476 333.048 21.0939 332.296 19.988L332.284 19.9692L332.272 19.9498C331.543 18.7656 330.549 17.8828 329.267 17.2878L329.254 17.2817L329.241 17.2752C327.938 16.6238 326.454 16.2878 324.769 16.2878C323.028 16.2878 321.488 16.6255 320.129 17.2814L320.122 17.2847ZM329.688 32.152C328.231 32.8286 326.591 33.1669 324.769 33.1669C322.896 33.1669 321.204 32.8286 319.695 32.152C318.237 31.4233 317.066 30.3823 316.181 29.029C315.348 27.6757 314.932 26.0621 314.932 24.1883C314.932 22.3145 315.348 20.727 316.181 19.4257C317.066 18.0724 318.237 17.0575 319.695 16.3808C321.204 15.6521 322.896 15.2878 324.769 15.2878C326.591 15.2878 328.231 15.6521 329.688 16.3808C331.145 17.0575 332.291 18.0724 333.123 19.4257C334.008 20.727 334.451 22.3145 334.451 24.1883C334.451 26.0621 334.008 27.6757 333.123 29.029C332.291 30.3823 331.145 31.4233 329.688 32.152ZM350.393 0.468506H362.777V75.0001H350.393V0.468506ZM302.116 60.4001L300.667 49.968H301.815C306.026 49.968 310.679 49.942 315.776 49.89C320.913 49.7862 326.18 49.5786 331.578 49.2672C337.018 48.9044 342.275 48.3605 347.348 47.6358L348.387 47.4874L349.272 56.9248L348.388 57.1015C343.146 58.1498 337.827 58.9097 332.43 59.3813L332.42 59.3822C327.045 59.7996 321.85 60.0868 316.837 60.2435L316.827 60.2438C311.824 60.3479 307.211 60.4001 302.986 60.4001H302.116ZM331.64 50.2653C326.227 50.5776 320.944 50.7858 315.791 50.8899C311.094 50.9379 306.772 50.9637 302.825 50.9675C302.486 50.9678 302.149 50.968 301.815 50.968L302.986 59.4001C307.203 59.4001 311.809 59.348 316.806 59.2439C321.803 59.0878 326.982 58.8015 332.343 58.3851C337.704 57.9167 342.987 57.1619 348.192 56.1209L347.489 48.6258C347.159 48.6729 346.829 48.7192 346.498 48.7648C341.705 49.4243 336.752 49.9245 331.64 50.2653ZM351.393 1.46851V74.0001H361.777V1.46851H351.393Z" fill="#8000FF"/>
<path fill-rule="evenodd" clip-rule="evenodd" d="M228.68 6.8707H244.764V0.15625H257.07V6.8707H273.153V17.0686H228.68V6.8707ZM256.07 7.8707V1.15625H245.764V7.8707H229.68V16.0686H272.153V7.8707H256.07ZM267.248 39.317C265.616 41.4562 263.357 43.1152 260.519 44.3158L260.51 44.3195C257.712 45.4717 254.507 46.0344 250.917 46.0344C247.375 46.0344 244.174 45.4708 241.329 44.322L241.322 44.319L241.314 44.3158C238.477 43.1152 236.217 41.4562 234.585 39.317L234.577 39.307C232.935 37.0993 232.115 34.5724 232.115 31.7616C232.115 28.8562 232.93 26.296 234.585 24.1282C236.217 21.9889 238.477 20.3299 241.314 19.1294C244.163 17.9241 247.37 17.3327 250.917 17.3327C254.511 17.3327 257.72 17.9227 260.522 19.1308C263.358 20.3312 265.616 21.9897 267.248 24.1282C268.903 26.296 269.718 28.8562 269.718 31.7616C269.718 34.5724 268.898 37.0993 267.256 39.307L267.248 39.317ZM245.825 28.4718L245.814 28.4784C244.689 29.1614 244.109 30.1957 244.109 31.7616C244.109 33.1999 244.672 34.2322 245.836 34.9803C247.088 35.7851 248.758 36.2269 250.917 36.2269C253.135 36.2269 254.794 35.7821 255.983 34.9895L255.99 34.9848L255.997 34.9803C257.161 34.2322 257.724 33.1999 257.724 31.7616C257.724 30.1957 257.144 29.1614 256.019 28.4784L256.001 28.4674L255.983 28.4557C254.794 27.6631 253.135 27.2183 250.917 27.2183C248.758 27.2183 247.088 27.6601 245.836 28.4648L245.825 28.4718ZM275.135 0.624704H287.519V19.2065H297.122V29.7167H287.519V47.9082H275.135V0.624704ZM286.519 28.7167H296.122V20.2065H286.519V1.6247H276.135V46.9082H286.519V28.7167ZM237.268 48.9531H287.519V74.9221H275.135V59.1509H237.268V48.9531ZM276.135 58.1509V73.9221H286.519V49.9531H238.268V58.1509H276.135ZM260.129 20.0504C257.475 18.9053 254.404 18.3327 250.917 18.3327C247.481 18.3327 244.41 18.9053 241.704 20.0504C238.997 21.1955 236.889 22.757 235.38 24.7349C233.87 26.7128 233.115 29.055 233.115 31.7616C233.115 34.3641 233.87 36.6804 235.38 38.7103C236.889 40.6882 238.997 42.2497 241.704 43.3948C244.41 44.4878 247.481 45.0344 250.917 45.0344C254.404 45.0344 257.475 44.4878 260.129 43.3948C262.836 42.2497 264.944 40.6882 266.453 38.7103C267.963 36.6804 268.718 34.3641 268.718 31.7616C268.718 29.055 267.963 26.7128 266.453 24.7349C264.944 22.757 262.836 21.1955 260.129 20.0504ZM245.295 27.6237C246.753 26.6868 248.626 26.2183 250.917 26.2183C253.259 26.2183 255.133 26.6868 256.538 27.6237C257.995 28.5085 258.724 29.8878 258.724 31.7616C258.724 33.5313 257.995 34.8846 256.538 35.8215C255.133 36.7584 253.259 37.2269 250.917 37.2269C248.626 37.2269 246.753 36.7584 245.295 35.8215C243.838 34.8846 243.109 33.5313 243.109 31.7616C243.109 29.8878 243.838 28.5085 245.295 27.6237Z" fill="#8000FF"/>
<path fill-rule="evenodd" clip-rule="evenodd" d="M174.019 7.55837V1.31238H184.403V7.55837H198.691V15.7562H184.403V15.9124C184.403 16.1945 184.413 16.4757 184.434 16.7562C184.532 18.0802 184.86 19.3864 185.418 20.675C186.095 22.1844 187.136 23.6418 188.541 25.0472C189.946 26.4005 191.69 27.6236 193.772 28.7167C195.649 29.6321 197.807 30.3664 200.247 30.9195C200.582 30.9954 200.922 31.0679 201.267 31.137L196.973 39.0226C193.486 38.2418 190.415 37.1227 187.76 35.6654C185.158 34.1559 182.972 32.3862 181.202 30.3563C180.813 29.8966 180.445 29.4262 180.099 28.9452C179.881 28.6427 179.672 28.336 179.471 28.0251C179.292 28.3501 179.104 28.6704 178.908 28.9859C177.483 31.279 175.619 33.3233 173.316 35.1188C170.245 37.4611 166.368 39.1787 161.683 40.2718L157.155 32.3081C157.498 32.2299 157.835 32.1485 158.166 32.064C160.7 31.4177 162.887 30.5882 164.728 29.5755C166.862 28.4304 168.606 27.1292 169.959 25.6718C171.364 24.2144 172.379 22.6529 173.004 20.9873C173.57 19.5951 173.899 18.1848 173.992 16.7562C174.01 16.4757 174.019 16.1944 174.019 15.9124V15.7562H159.809V7.55837H174.019ZM173.019 6.55837V0.312378H185.403V6.55837H199.691V16.7562H185.437C185.532 17.9368 185.829 19.1073 186.333 20.2716C186.95 21.6459 187.91 23.0011 189.241 24.3334C190.562 25.604 192.218 26.7702 194.224 27.8244C196.263 28.8173 198.672 29.5982 201.463 30.1564L202.795 30.4227L197.491 40.1632L196.755 39.9984C193.191 39.2007 190.029 38.0519 187.279 36.5419L187.269 36.5363L187.258 36.5304C184.572 34.9723 182.298 33.1351 180.448 31.0134L180.443 31.0078L180.439 31.0022C180.124 30.6302 179.822 30.2514 179.534 29.8657C178.074 32.1214 176.204 34.1354 173.931 35.9074L173.923 35.914C170.715 38.3602 166.7 40.1281 161.91 41.2456L161.183 41.4153L155.62 31.6324L156.932 31.3332C159.833 30.6717 162.265 29.7891 164.246 28.6993L164.255 28.6943C166.313 27.5904 167.962 26.3525 169.226 24.9913L169.233 24.9844L169.239 24.9776C170.563 23.605 171.497 22.1573 172.068 20.6361L172.072 20.6234L172.078 20.6109C172.596 19.3355 172.898 18.0518 172.989 16.7562H158.809V6.55837H173.019ZM195.895 17.3327H206.904V0.624681H219.287V40.0226H206.904V27.6867H195.895V17.3327ZM207.904 26.6867V39.0226H218.287V1.62468H207.904V18.3327H196.895V26.6867H207.904ZM169.506 40.7552H219.287V62.1178H181.89V64.568H221.396V74.4536H169.662V52.7007H207.06V50.6408H169.506V40.7552ZM208.06 49.6408V53.7007H170.662V73.4536H220.396V65.568H180.89V61.1178H218.287V41.7552H170.506V49.6408H208.06Z" fill="#8000FF"/>
<path fill-rule="evenodd" clip-rule="evenodd" d="M87.6721 3.59156H100.446V8.33915C100.446 10.623 100.98 12.8387 102.059 14.9968C103.116 17.112 104.814 19.0216 107.202 20.7137C109.561 22.3342 112.652 23.5674 116.517 24.3809L117.851 24.6619L112.287 34.5438L111.557 34.3756C106.713 33.2577 102.667 31.4621 99.4562 28.9588L99.4479 28.9524C97.3597 27.2889 95.6125 25.4105 94.2118 23.3184C92.7444 25.7577 90.8497 27.9429 88.5347 29.8727C85.3238 32.5928 81.2473 34.551 76.3446 35.7767L75.6128 35.9596L69.8868 26.0345L71.178 25.7159C75.0955 24.7492 78.2448 23.3633 80.6629 21.5868C83.1044 19.793 84.8627 17.7523 85.9782 15.4729C87.1116 13.1568 87.6721 10.7822 87.6721 8.33915V3.59156ZM93.6092 22.3696C93.8031 22.0311 93.9886 21.6877 94.1657 21.3394C94.3579 21.6791 94.5589 22.0134 94.7687 22.3426C96.1534 24.5148 97.9208 26.4573 100.071 28.1702C103.142 30.5645 107.046 32.3082 111.782 33.4012L116.311 25.3595C115.965 25.2868 115.626 25.2107 115.291 25.1313C111.797 24.3007 108.91 23.1015 106.629 21.5338C104.131 19.7641 102.309 17.7342 101.164 15.444C100.019 13.1538 99.4465 10.7855 99.4465 8.33915V4.59156H88.6721V8.33915C88.6721 10.9416 88.0736 13.4661 86.8764 15.9124C85.6793 18.3588 83.8055 20.5188 81.255 22.3926C78.9208 24.1075 75.9763 25.4519 72.4214 26.4256C72.092 26.5159 71.7574 26.6029 71.4176 26.6868L76.1021 34.8065C80.8907 33.6094 84.8204 31.7096 87.8914 29.1071C90.2623 27.1313 92.1683 24.8855 93.6092 22.3696ZM100.446 46.6627C100.113 46.6878 99.7792 46.7124 99.4465 46.7366V71.6579H88.9844V47.3359C88.6504 47.3497 88.3171 47.363 87.9844 47.3758C87.2212 47.405 86.4615 47.4313 85.7053 47.4547C80.7085 47.5588 76.1021 47.6108 71.886 47.6108L70.7149 39.1788C71.0487 39.1788 71.3852 39.1786 71.7244 39.1783C75.7225 39.1745 80.0965 39.1486 84.8465 39.1007C89.9994 38.9966 95.2825 38.7884 100.696 38.4761C105.807 38.1353 110.76 37.6351 115.553 36.9756C115.884 36.93 116.215 36.8836 116.545 36.8365L117.169 44.3317C111.964 45.3727 106.681 46.1274 101.32 46.5959C101.029 46.6185 100.737 46.6408 100.446 46.6627ZM100.634 37.478C95.2357 37.7894 89.9682 37.9969 84.8313 38.1008C79.683 38.1528 74.9776 38.1788 70.7149 38.1788H69.5664L71.0153 48.6108H71.886C76.1101 48.6108 80.7236 48.5587 85.7261 48.4545L85.7362 48.4542C86.4822 48.4311 87.2316 48.4052 87.9844 48.3765V72.6579H100.446V47.6655C100.763 47.6418 101.08 47.6175 101.398 47.5929L101.407 47.5921C106.805 47.1205 112.124 46.3606 117.366 45.3123L118.24 45.1374L117.453 35.6966L116.403 35.8466C111.33 36.5713 106.074 37.1152 100.634 37.478ZM119.605 0.546631H131.989V74.844H119.605V0.546631ZM120.605 1.54663V73.844H130.989V1.54663H120.605Z" fill="#8000FF"/>
<path fill-rule="evenodd" clip-rule="evenodd" d="M47.7819 0.468506H60.0877V75.0001H47.7819V36.8995H36.461V26.5455H47.7819V0.468506ZM48.7819 27.5455H37.461V35.8995H48.7819V74.0001H59.0877V1.46851H48.7819V27.5455ZM1.07807 57.2921H7.01177C11.0717 57.2921 14.8713 57.24 18.4107 57.1359C22.0022 57.0318 25.5155 56.8236 28.9508 56.5113C32.3861 56.199 35.8995 55.7566 39.4909 55.1841L38.554 46.752C38.2238 46.8062 37.8944 46.8592 37.5656 46.9111C34.4218 47.4071 31.342 47.7965 28.3262 48.0792C24.995 48.3395 21.5858 48.5217 18.0984 48.6258C16.2675 48.6812 14.3627 48.7219 12.384 48.7478C12.0527 48.7522 11.7194 48.7561 11.384 48.7596V34.8846H33.5572V7.63643H1V15.9124H23.3294V26.6867H1.07807V57.2921ZM22.3294 25.6867H0.0780747V58.2921H7.01177C11.0801 58.2921 14.8896 58.2399 18.4401 58.1355C22.0511 58.0308 25.5849 57.8214 29.0414 57.5072C32.5002 57.1928 36.0359 56.7475 39.6484 56.1716L40.5901 56.0215L39.4316 45.5945L38.392 45.7652C34.9289 46.3337 31.5451 46.7729 28.2406 47.0829C24.9285 47.3415 21.5379 47.5226 18.0686 47.6262C16.2478 47.6814 14.3527 47.7219 12.384 47.7478V35.8846H34.5572V6.63643H0V16.9124H22.3294V25.6867Z" fill="#8000FF"/>
<path d="M1182.3 45.172C1180.06 45.172 1178.15 44.3919 1176.55 42.8316C1174.97 41.2521 1174.19 39.3355 1174.21 37.0818C1174.19 34.8858 1174.97 33.0077 1176.55 31.4475C1178.15 29.8872 1180.06 29.1071 1182.3 29.1071C1184.42 29.1071 1186.28 29.8872 1187.9 31.4475C1189.54 33.0077 1190.37 34.8858 1190.39 37.0818C1190.37 38.5842 1189.97 39.9519 1189.2 41.1847C1188.45 42.3982 1187.47 43.371 1186.25 44.103C1185.04 44.8157 1183.72 45.172 1182.3 45.172Z" fill="#8000FF"/>
<path d="M1518.54 45.172C1516.3 45.172 1514.39 44.3919 1512.79 42.8316C1511.21 41.2521 1510.43 39.3355 1510.45 37.0818C1510.43 34.8858 1511.21 33.0077 1512.79 31.4475C1514.39 29.8872 1516.3 29.1071 1518.54 29.1071C1520.66 29.1071 1522.53 29.8872 1524.14 31.4475C1525.78 33.0077 1526.61 34.8858 1526.63 37.0818C1526.61 38.5842 1526.22 39.9519 1525.44 41.1847C1524.69 42.3982 1523.71 43.371 1522.5 44.103C1521.28 44.8157 1519.96 45.172 1518.54 45.172Z" fill="#8000FF"/>
</svg>
