<svg width="3209" height="75" viewBox="0 0 3209 75" fill="none" xmlns="http://www.w3.org/2000/svg">
<path d="M3209.01 9.87146L3207.57 48.9518H3194.91L3193.47 9.87146H3209.01ZM3201.24 67.6038C3199.09 67.6038 3197.25 66.8543 3195.71 65.3555C3194.2 63.8382 3193.45 61.997 3193.47 59.8321C3193.45 57.7226 3194.2 55.9185 3195.71 54.4197C3197.25 52.9209 3199.09 52.1715 3201.24 52.1715C3203.27 52.1715 3205.07 52.9209 3206.62 54.4197C3208.2 55.9185 3208.99 57.7226 3209.01 59.8321C3208.99 61.2754 3208.61 62.5892 3207.87 63.7734C3207.15 64.9392 3206.21 65.8736 3205.04 66.5768C3203.87 67.2614 3202.61 67.6038 3201.24 67.6038Z" fill="#8000FF"/>
<path d="M3181.23 9.87146L3179.78 48.9518H3167.13L3165.68 9.87146H3181.23ZM3173.45 67.6038C3171.31 67.6038 3169.47 66.8543 3167.93 65.3555C3166.41 63.8382 3165.66 61.997 3165.68 59.8321C3165.66 57.7226 3166.41 55.9185 3167.93 54.4197C3169.47 52.9209 3171.31 52.1715 3173.45 52.1715C3175.49 52.1715 3177.28 52.9209 3178.84 54.4197C3180.41 55.9185 3181.21 57.7226 3181.23 59.8321C3181.21 61.2754 3180.83 62.5892 3180.09 63.7734C3179.37 64.9392 3178.42 65.8736 3177.26 66.5768C3176.09 67.2614 3174.82 67.6038 3173.45 67.6038Z" fill="#8000FF"/>
<path d="M3153.44 9.87146L3152 48.9518H3139.34L3137.9 9.87146H3153.44ZM3145.67 67.6038C3143.52 67.6038 3141.68 66.8543 3140.15 65.3555C3138.63 63.8382 3137.88 61.997 3137.9 59.8321C3137.88 57.7226 3138.63 55.9185 3140.15 54.4197C3141.68 52.9209 3143.52 52.1715 3145.67 52.1715C3147.71 52.1715 3149.5 52.9209 3151.06 54.4197C3152.63 55.9185 3153.42 57.7226 3153.44 59.8321C3153.42 61.2754 3153.04 62.5892 3152.3 63.7734C3151.58 64.9392 3150.64 65.8736 3149.47 66.5768C3148.31 67.2614 3147.04 67.6038 3145.67 67.6038Z" fill="#8000FF"/>
<path d="M3109.29 1.13879H3119.76V73.75H3109.29V1.13879ZM3117.5 27.9479H3130.24V36.5456H3117.5V27.9479ZM3065.83 47.8007H3071.93C3076.04 47.8007 3079.9 47.7486 3083.5 47.6444C3087.09 47.488 3090.58 47.2536 3093.97 46.9409C3097.36 46.5762 3100.82 46.0812 3104.36 45.4559L3105.38 54.0535C3101.73 54.6788 3098.14 55.1738 3094.59 55.5386C3091.1 55.9033 3087.51 56.1378 3083.81 56.242C3080.11 56.3463 3076.15 56.3984 3071.93 56.3984H3065.83V47.8007ZM3065.83 7.8606H3099.6V16.2238H3076.23V51.865H3065.83V7.8606Z" fill="#8000FF"/>
<path d="M3041.29 1.21698H3051.61V73.5937H3041.29V1.21698ZM2994.95 8.09512H3005.34V53.1156H2994.95V8.09512ZM2994.95 46.941H3001.35C3006.67 46.941 3012.22 46.7325 3018 46.3157C3023.79 45.8467 3029.67 45.013 3035.67 43.8145L3036.76 52.4904C3030.61 53.793 3024.54 54.6789 3018.55 55.1478C3012.61 55.5647 3006.88 55.7731 3001.35 55.7731H2994.95V46.941Z" fill="#8000FF"/>
<path d="M2969 1.2951H2979.4V40.1409H2969V1.2951ZM2931.33 43.3455H2941.57V50.0673H2969.08V43.3455H2979.4V72.8902H2931.33V43.3455ZM2941.57 58.0397V64.6052H2969.08V58.0397H2941.57ZM2940 4.2652C2943.76 4.2652 2947.12 4.99471 2950.09 6.4537C2953.06 7.9127 2955.4 9.91882 2957.12 12.4721C2958.84 15.0253 2959.7 17.9694 2959.7 21.3042C2959.7 24.6391 2958.84 27.6092 2957.12 30.2145C2955.4 32.7678 2953.06 34.7739 2950.09 36.2329C2947.12 37.6919 2943.76 38.4214 2940 38.4214C2936.25 38.4214 2932.89 37.6919 2929.92 36.2329C2926.95 34.7739 2924.61 32.7678 2922.89 30.2145C2921.17 27.6092 2920.31 24.6391 2920.31 21.3042C2920.31 17.9694 2921.17 15.0253 2922.89 12.4721C2924.61 9.91882 2926.95 7.9127 2929.92 6.4537C2932.89 4.99471 2936.25 4.2652 2940 4.2652ZM2940 12.7847C2938.18 12.7847 2936.54 13.1234 2935.08 13.8008C2933.62 14.4782 2932.48 15.4682 2931.64 16.7709C2930.86 18.0215 2930.47 19.5326 2930.47 21.3042C2930.47 23.128 2930.86 24.6912 2931.64 25.9939C2932.48 27.2444 2933.62 28.2084 2935.08 28.8858C2936.54 29.5111 2938.18 29.8237 2940 29.8237C2941.83 29.8237 2943.44 29.5111 2944.85 28.8858C2946.31 28.2084 2947.46 27.2444 2948.29 25.9939C2949.12 24.6912 2949.54 23.128 2949.54 21.3042C2949.54 19.5326 2949.12 18.0215 2948.29 16.7709C2947.46 15.4682 2946.31 14.4782 2944.85 13.8008C2943.44 13.1234 2941.83 12.7847 2940 12.7847Z" fill="#8000FF"/>
<path d="M2897.1 1.2951H2907.5V37.7961H2897.1V1.2951ZM2859.27 41.0007H2907.5V60.619H2869.59V67.888H2859.35V53.1938H2897.18V48.9731H2859.27V41.0007ZM2859.35 65.0742H2909.29V73.2029H2859.35V65.0742ZM2864.35 2.93648H2872.95V8.32955C2872.95 12.7586 2872.19 16.9793 2870.68 20.9916C2869.17 25.0038 2866.85 28.495 2863.73 31.4651C2860.65 34.4352 2856.74 36.6498 2852 38.1088L2847 29.9019C2850.02 28.964 2852.63 27.7394 2854.82 26.2283C2857 24.7172 2858.8 22.9977 2860.21 21.0697C2861.62 19.1418 2862.66 17.1096 2863.34 14.9732C2864.01 12.7847 2864.35 10.5701 2864.35 8.32955V2.93648ZM2866.46 2.93648H2874.9V8.32955C2874.9 10.518 2875.24 12.6544 2875.92 14.7387C2876.6 16.7709 2877.61 18.6989 2878.97 20.5226C2880.32 22.3464 2882.07 23.9617 2884.2 25.3686C2886.34 26.7755 2888.87 27.8958 2891.79 28.7295L2886.78 36.8582C2883.34 35.816 2880.35 34.3831 2877.8 32.5594C2875.24 30.6835 2873.11 28.495 2871.39 25.9939C2869.72 23.4406 2868.47 20.6789 2867.63 17.7088C2866.85 14.7387 2866.46 11.6123 2866.46 8.32955V2.93648Z" fill="#8000FF"/>
<path d="M2825.59 1.21698H2836.06V37.5617H2825.59V1.21698ZM2801.52 3.9526H2812.85C2812.85 10.3618 2811.6 15.9372 2809.1 20.679C2806.65 25.3686 2802.98 29.2506 2798.08 32.3249C2793.18 35.3471 2787.08 37.6659 2779.79 39.2812L2776.27 30.918C2782.37 29.7196 2787.24 28.0782 2790.89 25.9939C2794.59 23.8575 2797.27 21.4085 2798.94 18.6468C2800.66 15.833 2801.52 12.8369 2801.52 9.65833V3.9526ZM2780.49 3.9526H2805.82V12.2376H2780.49V3.9526ZM2810.04 10.2836H2826.92V18.1778H2810.04V10.2836ZM2809.57 24.3525H2826.61V32.1686H2809.57V24.3525ZM2788.23 40.2191H2836.06V60.2283H2798.7V69.1386H2788.31V52.4904H2825.59V48.3479H2788.23V40.2191ZM2788.31 64.7616H2837.47V72.9685H2788.31V64.7616Z" fill="#8000FF"/>
<path fill-rule="evenodd" clip-rule="evenodd" d="M2705.52 14.6606H2691.06V6.37555H2730.46V14.6606H2716.15V15.4422C2716.15 15.515 2716.15 15.5878 2716.15 15.6606C2716.18 17.7242 2716.52 19.7877 2717.17 21.8513C2717.85 23.9356 2718.86 25.9418 2720.22 27.8697C2721.62 29.7456 2723.4 31.4391 2725.53 32.9502C2727.43 34.2898 2729.63 35.4042 2732.14 36.2934C2732.46 36.4072 2732.78 36.5173 2733.11 36.6237L2727.88 44.6743C2723.34 43.2153 2719.59 41.0268 2716.62 38.1088C2714.63 36.151 2712.97 33.9704 2711.63 31.567C2711.43 31.2003 2711.23 30.8284 2711.04 30.4512C2710.87 30.8369 2710.69 31.2177 2710.51 31.5937C2709.13 34.3683 2707.34 36.8787 2705.13 39.1248C2702.11 42.147 2698.25 44.4137 2693.57 45.9248L2688.25 37.7961C2688.58 37.6898 2688.91 37.58 2689.23 37.4668C2692.85 36.1923 2695.8 34.4783 2698.1 32.3249C2700.65 29.9801 2702.53 27.3486 2703.73 24.4306C2704.9 21.5321 2705.49 18.6087 2705.52 15.6606C2705.52 15.5878 2705.52 15.515 2705.52 15.4422V14.6606ZM2704.52 15.6606H2690.06V5.37555H2731.46V15.6606H2717.15C2717.18 17.6159 2717.5 19.5767 2718.12 21.5458C2718.76 23.5227 2719.73 25.4345 2721.03 27.2821C2722.36 29.0608 2724.05 30.6792 2726.11 32.1337C2728.15 33.577 2730.58 34.7597 2733.42 35.6717L2734.67 36.0721L2728.3 45.8604L2727.57 45.6262C2722.91 44.1263 2719.02 41.864 2715.92 38.8221C2714.02 36.9584 2712.41 34.8983 2711.09 32.6438C2709.72 35.2737 2707.97 37.6686 2705.85 39.8259L2705.84 39.832C2702.69 42.9824 2698.69 45.3243 2693.87 46.8766L2693.15 47.1106L2686.69 37.2445L2687.95 36.8438C2691.9 35.5756 2695.04 33.817 2697.41 31.5953L2697.42 31.5883C2699.88 29.3336 2701.66 26.8219 2702.8 24.0536C2703.92 21.2683 2704.49 18.4724 2704.52 15.6606ZM2736.73 0.295105H2749.12V54.5064H2736.73V0.295105ZM2699.9 72.4213H2750V64.0581H2710.29V48.8168H2699.9V72.4213ZM2711.29 63.0581V47.8168H2698.9V73.4213H2751V63.0581H2711.29ZM2737.73 1.2951V53.5064H2748.12V1.2951H2737.73Z" fill="#8000FF"/>
<path fill-rule="evenodd" clip-rule="evenodd" d="M2654.36 36.6076C2654.02 40.0632 2653.29 43.1689 2652.15 45.9248C2650.58 49.7808 2648.37 52.7769 2645.5 54.9133C2642.69 56.9976 2639.48 58.0397 2635.89 58.0397C2632.29 58.0397 2629.09 56.9976 2626.28 54.9133C2623.46 52.7769 2621.25 49.7808 2619.63 45.9248C2618.02 42.0168 2617.21 37.4053 2617.21 32.0904C2617.21 26.8276 2618.02 22.2682 2619.63 18.4123C2621.25 14.5043 2623.46 11.5081 2626.28 9.42382C2629.09 7.28743 2632.29 6.21924 2635.89 6.21924C2639.48 6.21924 2642.69 7.28743 2645.5 9.42382C2648.37 11.5081 2650.58 14.5043 2652.15 18.4123C2653.14 20.7831 2653.83 23.4199 2654.21 26.3226C2654.25 26.6525 2654.29 26.9858 2654.33 27.3226H2666.45V1.13879H2676.85V73.75H2666.45V35.6076H2654.44C2654.42 35.9442 2654.39 36.2775 2654.36 36.6076ZM2655.36 36.6076C2655.02 40.1835 2654.26 43.4185 2653.07 46.3038C2651.45 50.2994 2649.13 53.4532 2646.1 55.7151L2646.1 55.7169C2643.11 57.9324 2639.69 59.0397 2635.89 59.0397C2632.09 59.0397 2628.67 57.9324 2625.68 55.7169L2625.67 55.7098C2622.69 53.449 2620.38 50.2995 2618.71 46.3112L2618.71 46.3068C2617.03 42.2509 2616.21 37.5039 2616.21 32.0904C2616.21 26.729 2617.03 22.0331 2618.71 18.028C2620.38 13.9904 2622.69 10.8361 2625.68 8.62383C2628.67 6.35523 2632.08 5.21924 2635.89 5.21924C2639.7 5.21924 2643.11 6.35436 2646.1 8.62117C2649.14 10.834 2651.45 13.991 2653.07 18.0335C2654.12 20.5302 2654.83 23.2953 2655.22 26.3226H2665.45V0.138794H2677.85V74.75H2665.45V36.6076H2655.36ZM2629.19 23.3931C2628.49 25.6644 2628.14 28.5547 2628.14 32.0904C2628.14 35.5692 2628.49 38.4906 2629.19 40.8743C2629.89 43.2162 2630.83 44.8874 2631.96 45.9783C2633.15 47.0672 2634.44 47.5823 2635.89 47.5823C2637.46 47.5823 2638.77 47.0549 2639.89 45.9851C2641.02 44.8943 2641.97 43.221 2642.67 40.8741C2643.36 38.4905 2643.72 35.5691 2643.72 32.0904C2643.72 28.5546 2643.36 25.6644 2642.67 23.3931L2642.67 23.3874C2641.97 21.0392 2641.02 19.3651 2639.89 18.2739C2638.77 17.2041 2637.46 16.6767 2635.89 16.6767C2634.44 16.6767 2633.15 17.1917 2631.96 18.2807C2630.83 19.372 2629.89 21.044 2629.19 23.3874L2629.19 23.3931ZM2631.28 17.5525C2632.63 16.302 2634.17 15.6767 2635.89 15.6767C2637.71 15.6767 2639.28 16.302 2640.58 17.5525C2641.88 18.8031 2642.9 20.6529 2643.63 23.1019C2644.36 25.4989 2644.72 28.495 2644.72 32.0904C2644.72 35.6337 2644.36 38.6559 2643.63 41.157C2642.9 43.6061 2641.88 45.4559 2640.58 46.7065C2639.28 47.957 2637.71 48.5823 2635.89 48.5823C2634.17 48.5823 2632.63 47.957 2631.28 46.7065C2629.97 45.4559 2628.96 43.6061 2628.23 41.157C2627.5 38.6559 2627.14 35.6337 2627.14 32.0904C2627.14 28.495 2627.5 25.4989 2628.23 23.1019C2628.96 20.6529 2629.97 18.8031 2631.28 17.5525Z" fill="#8000FF"/>
<path fill-rule="evenodd" clip-rule="evenodd" d="M2555.33 44.6122H2606.18V54.819H2567.65V63.6052H2607.19V73.8902H2555.33V44.6122ZM2556.33 72.8902H2606.19V64.6052H2566.65V53.819H2605.18V45.6122H2556.33V72.8902ZM2593.31 0.295105H2605.79V43.3294H2593.31V27.541H2583.66C2583.2 29.2058 2582.5 30.7725 2581.56 32.2369C2579.8 35.0427 2577.4 37.2679 2574.39 38.9085L2574.38 38.9153C2571.36 40.5102 2567.96 41.2972 2564.22 41.2972C2560.48 41.2972 2557.07 40.5101 2553.99 38.9186L2553.98 38.9137L2553.97 38.9085C2550.97 37.2681 2548.55 35.0446 2546.73 32.2428L2546.73 32.2311C2544.95 29.4017 2544.07 26.1924 2544.07 22.6329C2544.07 18.9756 2544.95 15.7128 2546.73 12.8785L2546.73 12.8667C2548.55 10.0628 2550.97 7.86308 2553.98 6.27413C2557.06 4.62755 2560.48 3.81232 2564.22 3.81232C2567.96 3.81232 2571.36 4.62689 2574.39 6.27587C2577.4 7.86495 2579.79 10.0658 2581.56 12.8727C2582.41 14.1899 2583.06 15.6 2583.51 17.0996H2593.31V0.295105ZM2594.31 18.0996H2582.75C2582.67 17.7614 2582.57 17.428 2582.46 17.0996C2582.04 15.7915 2581.46 14.5616 2580.71 13.41C2579.05 10.7525 2576.78 8.66824 2573.91 7.15714C2571.05 5.59392 2567.82 4.81232 2564.22 4.81232C2560.63 4.81232 2557.37 5.59392 2554.45 7.15714C2551.59 8.66824 2549.29 10.7525 2547.57 13.41C2545.91 16.0674 2545.07 19.1418 2545.07 22.6329C2545.07 26.0199 2545.91 29.0421 2547.57 31.6996C2549.29 34.357 2551.59 36.4674 2554.45 38.0306C2557.37 39.5417 2560.63 40.2972 2564.22 40.2972C2567.82 40.2972 2571.05 39.5417 2573.91 38.0306C2576.78 36.4674 2579.05 34.357 2580.71 31.6996C2581.55 30.4005 2582.19 29.0143 2582.62 27.541C2582.72 27.212 2582.8 26.8787 2582.88 26.541H2594.31V42.3294H2604.79V1.2951H2594.31V18.0996ZM2559.9 15.6333L2559.89 15.6397C2558.66 16.2297 2557.72 17.1058 2557.04 18.2867L2557.03 18.2941L2557.03 18.3015C2556.36 19.4121 2556 20.8381 2556 22.6329C2556 24.3107 2556.36 25.7218 2557.04 26.901C2557.72 28.0839 2558.67 28.9902 2559.9 29.6326C2561.16 30.2342 2562.56 30.5433 2564.14 30.5433C2565.78 30.5433 2567.19 30.231 2568.38 29.636C2569.62 28.9933 2570.57 28.0859 2571.25 26.901C2571.93 25.7218 2572.29 24.3107 2572.29 22.6329C2572.29 20.8381 2571.93 19.4121 2571.26 18.3015L2571.25 18.2941L2571.25 18.2867C2570.57 17.1059 2569.62 16.2297 2568.4 15.6397L2568.38 15.6299L2568.36 15.6192C2567.17 14.9793 2565.78 14.6445 2564.14 14.6445C2562.57 14.6445 2561.17 14.9769 2559.91 15.6265L2559.9 15.6333ZM2559.45 30.5272C2558.05 29.7977 2556.95 28.7555 2556.17 27.4007C2555.39 26.046 2555 24.4567 2555 22.6329C2555 20.705 2555.39 19.0897 2556.17 17.787C2556.95 16.4322 2558.05 15.4161 2559.45 14.7387C2560.86 14.0092 2562.42 13.6445 2564.14 13.6445C2565.92 13.6445 2567.48 14.0092 2568.83 14.7387C2570.24 15.4161 2571.33 16.4322 2572.12 17.787C2572.9 19.0897 2573.29 20.705 2573.29 22.6329C2573.29 24.4567 2572.9 26.046 2572.12 27.4007C2571.33 28.7555 2570.24 29.7977 2568.83 30.5272C2567.48 31.2046 2565.92 31.5433 2564.14 31.5433C2562.42 31.5433 2560.86 31.2046 2559.45 30.5272Z" fill="#8000FF"/>
<path fill-rule="evenodd" clip-rule="evenodd" d="M2491.9 47.8628C2490.42 50.7991 2488.49 53.1493 2486.13 54.9133C2483.31 56.9976 2480.11 58.0397 2476.51 58.0397C2472.92 58.0397 2469.71 56.9976 2466.9 54.9133C2464.09 52.7769 2461.87 49.7808 2460.26 45.9248C2458.64 42.0168 2457.83 37.4053 2457.83 32.0904C2457.83 26.8276 2458.64 22.2682 2460.26 18.4123C2461.87 14.5043 2464.09 11.5081 2466.9 9.42382C2469.71 7.28743 2472.92 6.21924 2476.51 6.21924C2480.11 6.21924 2483.31 7.28743 2486.13 9.42382C2488.09 10.8513 2489.75 12.7064 2491.1 14.9893C2491.29 15.314 2491.48 15.6473 2491.66 15.9893H2507.08V1.13879H2517.47V73.75H2507.08V46.8628H2492.37C2492.22 47.2033 2492.06 47.5367 2491.9 47.8628ZM2507.08 24.3525H2494.52C2494.58 24.6821 2494.64 25.0154 2494.69 25.3525C2495.03 27.4532 2495.2 29.6992 2495.2 32.0904C2495.2 33.9826 2495.09 35.7857 2494.89 37.4996C2494.85 37.8364 2494.8 38.1697 2494.76 38.4996H2507.08V24.3525ZM2506.08 37.4996V25.3525H2495.71C2496.03 27.4661 2496.2 29.7128 2496.2 32.0904C2496.2 33.9746 2496.1 35.778 2495.89 37.4996H2506.08ZM2493.01 47.8628C2491.44 51.1276 2489.35 53.7559 2486.73 55.7151L2486.72 55.7169C2483.73 57.9324 2480.32 59.0397 2476.51 59.0397C2472.71 59.0397 2469.3 57.9324 2466.31 55.7169L2466.3 55.7098C2463.32 53.449 2461.01 50.2995 2459.33 46.3112L2459.33 46.3068C2457.66 42.2509 2456.83 37.5039 2456.83 32.0904C2456.83 26.729 2457.66 22.0331 2459.33 18.028C2461 13.9904 2463.32 10.8361 2466.3 8.62383C2469.29 6.35523 2472.71 5.21924 2476.51 5.21924C2480.32 5.21924 2483.74 6.35436 2486.72 8.62117C2488.95 10.2438 2490.79 12.3743 2492.25 14.9893H2506.08V0.138794H2518.47V74.75H2506.08V47.8628H2493.01ZM2483.29 23.3874C2482.59 21.0392 2481.65 19.3651 2480.51 18.2739C2479.4 17.2041 2478.08 16.6767 2476.51 16.6767C2475.07 16.6767 2473.77 17.1917 2472.59 18.2807C2471.45 19.3766 2470.48 21.0542 2469.73 23.3996C2469.04 25.6699 2468.68 28.558 2468.68 32.0904C2468.68 35.5646 2469.04 38.483 2469.73 40.865C2470.48 43.2074 2471.45 44.8832 2472.59 45.9783C2473.77 47.0672 2475.07 47.5823 2476.51 47.5823C2478.08 47.5823 2479.4 47.0549 2480.51 45.9851C2481.65 44.8943 2482.59 43.221 2483.29 40.8741C2483.99 38.4905 2484.35 35.5691 2484.35 32.0904C2484.35 28.5546 2483.99 25.6644 2483.3 23.3931L2483.29 23.3874ZM2471.9 46.7065C2470.6 45.4559 2469.56 43.6061 2468.78 41.157C2468.05 38.6559 2467.68 35.6337 2467.68 32.0904C2467.68 28.495 2468.05 25.4989 2468.78 23.1019C2469.56 20.6529 2470.6 18.8031 2471.9 17.5525C2473.26 16.302 2474.8 15.6767 2476.51 15.6767C2478.34 15.6767 2479.9 16.302 2481.2 17.5525C2482.51 18.8031 2483.52 20.6529 2484.25 23.1019C2484.98 25.4989 2485.35 28.495 2485.35 32.0904C2485.35 35.6337 2484.98 38.6559 2484.25 41.157C2483.52 43.6061 2482.51 45.4559 2481.2 46.7065C2479.9 47.957 2478.34 48.5823 2476.51 48.5823C2474.8 48.5823 2473.26 47.957 2471.9 46.7065Z" fill="#8000FF"/>
<path fill-rule="evenodd" clip-rule="evenodd" d="M2383.84 55.7892H2411.35V43.1731H2390.72V5.61005H2444.22V43.1731H2423.67V55.7892H2451.41V66.2305H2383.84V55.7892ZM2422.67 56.7892V42.1731H2443.22V6.61005H2391.72V42.1731H2412.35V56.7892H2384.84V65.2305H2450.41V56.7892H2422.67ZM2401.96 14.8169H2432.98V33.8881H2401.96V14.8169ZM2402.96 32.8881H2431.98V15.8169H2402.96V32.8881Z" fill="#8000FF"/>
<path fill-rule="evenodd" clip-rule="evenodd" d="M2346 0.138794H2358.39V74.75H2346V0.138794ZM2328.83 55.7221C2325.78 57.9364 2322.29 59.0397 2318.39 59.0397C2314.54 59.0397 2311.07 57.9345 2308.03 55.7221L2308.02 55.7151C2304.99 53.4571 2302.63 50.31 2300.9 46.3218L2300.9 46.3143L2300.9 46.3068C2299.22 42.2509 2298.4 37.504 2298.4 32.0904C2298.4 26.728 2299.22 22.0314 2300.9 18.0259L2300.9 18.0198C2302.62 13.981 2304.99 10.8283 2308.03 8.61855C2311.07 6.35298 2314.53 5.21924 2318.39 5.21924C2322.3 5.21924 2325.79 6.35104 2328.83 8.61855C2331.87 10.8292 2334.21 13.9832 2335.88 18.0228C2337.61 22.0298 2338.46 26.7277 2338.46 32.0904C2338.46 37.5061 2337.61 42.2559 2335.88 46.3142C2334.21 50.3055 2331.87 53.4554 2328.84 55.7151L2328.83 55.7221ZM2334.96 45.9248C2336.63 42.0168 2337.46 37.4053 2337.46 32.0904C2337.46 26.8276 2336.63 22.2682 2334.96 18.4123C2333.35 14.5043 2331.1 11.5081 2328.24 9.42382C2325.37 7.28743 2322.09 6.21924 2318.39 6.21924C2314.74 6.21924 2311.49 7.28743 2308.62 9.42382C2305.75 11.5081 2303.49 14.5043 2301.82 18.4123C2300.21 22.2682 2299.4 26.8276 2299.4 32.0904C2299.4 37.4053 2300.21 42.0168 2301.82 45.9248C2303.49 49.7808 2305.75 52.7769 2308.62 54.9133C2311.49 56.9976 2314.74 58.0397 2318.39 58.0397C2322.09 58.0397 2325.37 56.9976 2328.24 54.9133C2331.1 52.7769 2333.35 49.7808 2334.96 45.9248ZM2325.33 40.8588C2326.07 38.4814 2326.46 35.5656 2326.46 32.0904C2326.46 28.5593 2326.07 25.6761 2325.33 23.4119L2325.33 23.3997L2325.33 23.3874C2324.63 21.0471 2323.66 19.3778 2322.48 18.2873C2321.31 17.2052 2319.96 16.6767 2318.39 16.6767C2316.88 16.6767 2315.56 17.1996 2314.38 18.2873C2313.19 19.3822 2312.2 21.057 2311.45 23.3996C2310.76 25.6699 2310.4 28.558 2310.4 32.0904C2310.4 35.5646 2310.76 38.483 2311.45 40.865C2312.2 43.2046 2313.19 44.8777 2314.38 45.9716C2315.56 47.0594 2316.88 47.5823 2318.39 47.5823C2319.96 47.5823 2321.31 47.0538 2322.48 45.9716C2323.66 44.8812 2324.63 43.2119 2325.33 40.8716L2325.33 40.8588ZM2310.5 41.157C2309.77 38.6559 2309.4 35.6337 2309.4 32.0904C2309.4 28.495 2309.77 25.4989 2310.5 23.1019C2311.28 20.6529 2312.35 18.8031 2313.7 17.5525C2315.06 16.302 2316.62 15.6767 2318.39 15.6767C2320.21 15.6767 2321.8 16.302 2323.16 17.5525C2324.51 18.8031 2325.56 20.6529 2326.29 23.1019C2327.07 25.4989 2327.46 28.495 2327.46 32.0904C2327.46 35.6337 2327.07 38.6559 2326.29 41.157C2325.56 43.6061 2324.51 45.4559 2323.16 46.7065C2321.8 47.957 2320.21 48.5823 2318.39 48.5823C2316.62 48.5823 2315.06 47.957 2313.7 46.7065C2312.35 45.4559 2311.28 43.6061 2310.5 41.157ZM2347 1.13879V73.75H2357.39V1.13879H2347Z" fill="#8000FF"/>
<path d="M2275.17 1.2951H2285.57V42.1731H2275.17V1.2951ZM2237.42 45.4559H2285.57V72.8902H2237.42V45.4559ZM2275.41 53.6627H2247.66V64.6834H2275.41V53.6627ZM2242.42 3.95255H2251.02V10.8307C2251.02 15.3119 2250.27 19.5847 2248.76 23.649C2247.24 27.7134 2244.95 31.2567 2241.88 34.2789C2238.8 37.249 2234.87 39.4635 2230.08 40.9225L2225.07 32.7938C2228.09 31.8559 2230.7 30.6053 2232.89 29.0421C2235.08 27.4789 2236.88 25.7333 2238.28 23.8054C2239.69 21.8253 2240.73 19.741 2241.41 17.5525C2242.09 15.3119 2242.42 13.0713 2242.42 10.8307V3.95255ZM2244.53 3.95255H2252.98V10.8307C2252.98 13.0713 2253.31 15.2337 2253.99 17.318C2254.67 19.4023 2255.69 21.3824 2257.04 23.2582C2258.4 25.082 2260.11 26.6973 2262.2 28.1042C2264.34 29.5111 2266.89 30.6574 2269.86 31.5433L2264.86 39.5938C2261.37 38.6038 2258.34 37.1708 2255.79 35.295C2253.29 33.4191 2251.18 31.2306 2249.46 28.7295C2247.79 26.1762 2246.54 23.3885 2245.71 20.3663C2244.93 17.3441 2244.53 14.1656 2244.53 10.8307V3.95255Z" fill="#8000FF"/>
<path d="M2171.07 9.34564H2179.67V15.4422C2179.67 19.9755 2178.91 24.3004 2177.4 28.4168C2175.94 32.4812 2173.7 36.0505 2170.68 39.1248C2167.66 42.1471 2163.8 44.4137 2159.11 45.9248L2153.8 37.7961C2157.86 36.4934 2161.14 34.6697 2163.64 32.3249C2166.2 29.9801 2168.07 27.3486 2169.27 24.4306C2170.47 21.4605 2171.07 18.4644 2171.07 15.4422V9.34564ZM2173.26 9.34564H2181.7V15.4422C2181.7 17.5786 2182.04 19.715 2182.72 21.8513C2183.39 23.9356 2184.41 25.9418 2185.76 27.8697C2187.17 29.7456 2188.94 31.4391 2191.08 32.9502C2193.22 34.4613 2195.74 35.6858 2198.66 36.6237L2193.42 44.6743C2188.89 43.2153 2185.14 41.0268 2182.17 38.1088C2179.2 35.1908 2176.96 31.7778 2175.45 27.8697C2173.99 23.9096 2173.26 19.7671 2173.26 15.4422V9.34564ZM2156.61 6.37555H2196V14.6606H2156.61V6.37555ZM2203.27 1.2951H2213.67V53.5064H2203.27V1.2951ZM2165.44 64.0581H2215.54V72.4213H2165.44V64.0581ZM2165.44 48.8168H2175.84V68.2006H2165.44V48.8168Z" fill="#8000FF"/>
<path d="M2089.38 6.06292C2093.13 6.06292 2096.52 6.81846 2099.54 8.32957C2102.56 9.84067 2104.94 11.951 2106.65 14.6606C2108.37 17.318 2109.23 20.3924 2109.23 23.8835C2109.23 27.3226 2108.37 30.3969 2106.65 33.1065C2104.94 35.8161 2102.56 37.9264 2099.54 39.4375C2096.52 40.9486 2093.13 41.7042 2089.38 41.7042C2085.58 41.7042 2082.16 40.9486 2079.14 39.4375C2076.12 37.9264 2073.72 35.8161 2071.95 33.1065C2070.23 30.3969 2069.37 27.3226 2069.37 23.8835C2069.37 20.3924 2070.23 17.318 2071.95 14.6606C2073.72 11.951 2076.12 9.84067 2079.14 8.32957C2082.16 6.81846 2085.58 6.06292 2089.38 6.06292ZM2089.38 14.9732C2087.51 14.9732 2085.81 15.338 2084.3 16.0675C2082.84 16.7449 2081.67 17.761 2080.78 19.1157C2079.95 20.4184 2079.53 22.0077 2079.53 23.8835C2079.53 25.7594 2079.95 27.3747 2080.78 28.7295C2081.67 30.0843 2082.84 31.1264 2084.3 31.8559C2085.81 32.5333 2087.51 32.872 2089.38 32.872C2091.21 32.872 2092.85 32.5333 2094.31 31.8559C2095.76 31.1264 2096.91 30.0843 2097.74 28.7295C2098.63 27.3747 2099.07 25.7594 2099.07 23.8835C2099.07 22.0077 2098.63 20.4184 2097.74 19.1157C2096.91 17.761 2095.76 16.7449 2094.31 16.0675C2092.85 15.338 2091.21 14.9732 2089.38 14.9732ZM2116.03 1.13879H2126.43V73.75H2116.03V1.13879ZM2067.57 59.134L2066.4 50.6926C2070.62 50.6926 2075.29 50.6666 2080.39 50.6145C2085.55 50.5103 2090.84 50.3018 2096.26 49.9892C2101.73 49.6244 2107.02 49.0773 2112.13 48.3478L2112.83 55.8512C2107.62 56.8934 2102.33 57.6489 2096.96 58.1179C2091.6 58.5348 2086.41 58.8213 2081.41 58.9777C2076.41 59.0819 2071.8 59.134 2067.57 59.134Z" fill="#8000FF"/>
<path d="M1994.27 29.2766H2059.69V37.4835H1994.27V29.2766ZM2002.32 17.2399H2051.95V25.4467H2002.32V17.2399ZM2002.32 2.62384H2051.32V10.8307H2012.63V24.3525H2002.32V2.62384ZM2001.61 41.5478H2051.64V60.7754H2012.01V66.9501H2001.69V53.4283H2041.4V49.4421H2001.61V41.5478ZM2001.69 65.0742H2053.59V73.0466H2001.69V65.0742Z" fill="#8000FF"/>
<path d="M1941.12 38.4215H1951.52V54.2099H1941.12V38.4215ZM1972.78 1.21698H1983.17V56.0858H1972.78V1.21698ZM1931.04 64.0581H1984.81V72.4213H1931.04V64.0581ZM1931.04 50.849H1941.44V66.3248H1931.04V50.849ZM1923.3 41.5479L1921.97 33.2628C1926.4 33.2107 1931.22 33.1586 1936.43 33.1065C1941.64 33.0023 1946.96 32.7939 1952.38 32.4812C1957.8 32.1686 1963.01 31.6996 1968.01 31.0744L1968.71 38.4996C1963.55 39.3854 1958.29 40.0628 1952.92 40.5318C1947.61 40.9486 1942.43 41.2092 1937.37 41.3134C1932.32 41.4176 1927.63 41.4958 1923.3 41.5479ZM1959.18 43.2674H1975.12V50.38H1959.18V43.2674ZM1945.27 3.71813C1948.81 3.71813 1951.93 4.26525 1954.64 5.3595C1957.35 6.45375 1959.46 7.96484 1960.98 9.89281C1962.54 11.8208 1963.32 14.0874 1963.32 16.6928C1963.32 19.246 1962.54 21.5127 1960.98 23.4928C1959.46 25.4207 1957.35 26.9058 1954.64 27.9479C1951.93 28.9901 1948.81 29.5111 1945.27 29.5111C1941.72 29.5111 1938.57 28.9901 1935.81 27.9479C1933.1 26.9058 1930.99 25.4207 1929.48 23.4928C1927.97 21.5127 1927.21 19.246 1927.21 16.6928C1927.21 14.0874 1927.97 11.8208 1929.48 9.89281C1930.99 7.96484 1933.1 6.45375 1935.81 5.3595C1938.57 4.26525 1941.72 3.71813 1945.27 3.71813ZM1945.27 11.2997C1942.87 11.2997 1940.89 11.7426 1939.33 12.6284C1937.81 13.5143 1937.06 14.869 1937.06 16.6928C1937.06 18.4123 1937.81 19.7411 1939.33 20.679C1940.89 21.5648 1942.87 22.0077 1945.27 22.0077C1947.71 22.0077 1949.67 21.5648 1951.13 20.679C1952.64 19.7411 1953.39 18.4123 1953.39 16.6928C1953.39 15.4943 1953.06 14.5043 1952.38 13.7227C1951.7 12.9411 1950.76 12.3419 1949.56 11.925C1948.37 11.5081 1946.93 11.2997 1945.27 11.2997Z" fill="#8000FF"/>
<path d="M1867.89 8.7204H1876.49V13.2537C1876.49 17.787 1875.73 22.1119 1874.22 26.2284C1872.76 30.2927 1870.52 33.836 1867.5 36.8582C1864.48 39.8804 1860.62 42.1471 1855.93 43.6582L1850.62 35.6077C1854.68 34.305 1857.97 32.4812 1860.47 30.1364C1863.02 27.7395 1864.9 25.082 1866.09 22.164C1867.29 19.1939 1867.89 16.2238 1867.89 13.2537V8.7204ZM1870.08 8.7204H1878.52V13.2537C1878.52 15.3901 1878.86 17.5265 1879.54 19.6629C1880.22 21.7472 1881.23 23.7273 1882.59 25.6031C1883.99 27.479 1885.77 29.1724 1887.9 30.6835C1890.04 32.1947 1892.57 33.4192 1895.48 34.3571L1890.25 42.4858C1885.71 41.0268 1881.96 38.8383 1878.99 35.9203C1876.02 33.0023 1873.78 29.5893 1872.27 25.6813C1870.81 21.7211 1870.08 17.5786 1870.08 13.2537V8.7204ZM1900.09 1.21698H1910.49V44.9088H1900.09V1.21698ZM1861.17 48.1134H1910.49V73.6719H1900.09V56.3202H1861.17V48.1134ZM1853.43 5.51581H1892.83V13.7227H1853.43V5.51581Z" fill="#8000FF"/>
<path fill-rule="evenodd" clip-rule="evenodd" d="M1811.62 0.295105H1824.02V54.2719H1811.62V0.295105ZM1774.79 72.4213H1824.89V64.0581H1785.19V48.1133H1774.79V72.4213ZM1786.19 63.0581V47.1133H1773.79V73.4213H1825.89V63.0581H1786.19ZM1794.09 41.1822C1790.97 42.8285 1787.47 43.6421 1783.62 43.6421C1779.78 43.6421 1776.28 42.8285 1773.15 41.1822L1773.14 41.1758C1770.03 39.4826 1767.53 37.1795 1765.67 34.2717L1765.66 34.2625L1765.65 34.2532C1763.83 31.2731 1762.93 27.9382 1762.93 24.2743C1762.93 20.5124 1763.83 17.1468 1765.66 14.2102L1765.67 14.1987C1767.53 11.288 1770.03 9.0083 1773.15 7.36647C1776.28 5.72017 1779.78 4.90657 1783.62 4.90657C1787.47 4.90657 1790.97 5.72017 1794.09 7.36647C1797.21 9.00853 1799.69 11.2899 1801.51 14.2044C1803.39 17.1412 1804.32 20.509 1804.32 24.2743C1804.32 27.9431 1803.39 31.2811 1801.51 34.2619C1799.7 37.1755 1797.22 39.4815 1794.11 41.1757L1794.09 41.1822ZM1800.66 33.7318C1802.43 30.918 1803.32 27.7655 1803.32 24.2743C1803.32 20.6789 1802.43 17.5004 1800.66 14.7387C1798.94 11.977 1796.6 9.8146 1793.63 8.25139C1790.66 6.68817 1787.32 5.90657 1783.62 5.90657C1779.92 5.90657 1776.59 6.68817 1773.62 8.25139C1770.65 9.8146 1768.28 11.977 1766.51 14.7387C1764.79 17.5004 1763.93 20.6789 1763.93 24.2743C1763.93 27.7655 1764.79 30.918 1766.51 33.7318C1768.28 36.4934 1770.65 38.6819 1773.62 40.2972C1776.59 41.8605 1779.92 42.6421 1783.62 42.6421C1787.32 42.6421 1790.66 41.8605 1793.63 40.2972C1796.6 38.6819 1798.94 36.4934 1800.66 33.7318ZM1779.24 16.8774L1779.23 16.8837C1777.94 17.5271 1776.94 18.4616 1776.2 19.7037L1776.2 19.7109L1776.19 19.718C1775.48 20.8769 1775.09 22.3765 1775.09 24.2743C1775.09 26.0518 1775.47 27.5341 1776.2 28.7597C1776.93 29.9504 1777.94 30.8935 1779.24 31.593C1780.54 32.2431 1782 32.5754 1783.62 32.5754C1785.25 32.5754 1786.71 32.2431 1788.01 31.593C1789.31 30.8935 1790.32 29.9504 1791.05 28.7597C1791.78 27.5341 1792.16 26.0518 1792.16 24.2743C1792.16 22.3765 1791.77 20.8769 1791.06 19.718L1791.05 19.7109L1791.05 19.7037C1790.31 18.4616 1789.31 17.5271 1788.02 16.8837L1788.01 16.8774L1788 16.8708C1786.69 16.1724 1785.24 15.8169 1783.62 15.8169C1782.01 15.8169 1780.55 16.1724 1779.25 16.8708L1779.24 16.8774ZM1788.47 32.4812C1787.01 33.2107 1785.4 33.5754 1783.62 33.5754C1781.85 33.5754 1780.24 33.2107 1778.78 32.4812C1777.32 31.6996 1776.17 30.6314 1775.34 29.2766C1774.51 27.8697 1774.09 26.2023 1774.09 24.2743C1774.09 22.2421 1774.51 20.5487 1775.34 19.1939C1776.17 17.787 1777.32 16.7188 1778.78 15.9893C1780.24 15.2077 1781.85 14.8169 1783.62 14.8169C1785.4 14.8169 1787.01 15.2077 1788.47 15.9893C1789.93 16.7188 1791.08 17.787 1791.91 19.1939C1792.74 20.5487 1793.16 22.2421 1793.16 24.2743C1793.16 26.2023 1792.74 27.8697 1791.91 29.2766C1791.08 30.6314 1789.93 31.6996 1788.47 32.4812ZM1812.62 1.2951V53.2719H1823.02V1.2951H1812.62Z" fill="#8000FF"/>
<path fill-rule="evenodd" clip-rule="evenodd" d="M1739.64 0.21698H1752.12V74.5937H1739.64V0.21698ZM1708.75 21.2261V23.8054C1708.75 26.515 1708.39 29.2766 1707.66 32.0904C1706.98 34.9042 1705.91 37.5877 1704.45 40.141C1702.99 42.6942 1701.17 45.039 1698.98 47.1754C1697.07 49.0407 1694.82 50.593 1692.25 51.8323C1691.94 51.9778 1691.63 52.119 1691.32 52.2559L1696.87 60.3064C1700.15 58.8474 1703.05 56.8674 1705.55 54.3662C1708.1 51.813 1710.21 48.895 1711.88 45.6122C1712.52 44.3947 1713.09 43.1484 1713.61 41.8735C1713.79 41.4231 1713.97 40.9691 1714.13 40.5115C1714.31 40.9646 1714.5 41.4139 1714.69 41.8594C1715.14 42.8963 1715.64 43.9128 1716.18 44.9088C1717.9 48.0873 1720.01 50.9011 1722.51 53.3501C1725.06 55.7992 1728.01 57.7011 1731.34 59.0559L1736.81 51.1616C1736.5 51.0247 1736.19 50.8841 1735.89 50.7397C1733.3 49.5102 1731 48.0095 1729 46.2375C1726.81 44.2053 1724.98 41.9647 1723.52 39.5157C1722.07 37.0145 1720.97 34.4092 1720.24 31.6996C1719.51 28.9901 1719.15 26.3587 1719.15 23.8054V21.2261H1733.92V13.0192H1719.23V2.93652H1708.75V13.0192H1693.75V21.2261H1708.75ZM1707.75 22.2261H1692.75V12.0192H1707.75V1.93652H1720.23V12.0192H1734.92V22.2261H1720.15V23.8054C1720.15 26.2627 1720.5 28.8066 1721.21 31.4397C1721.91 34.0596 1722.97 36.5819 1724.39 39.0078C1725.79 41.3663 1727.55 43.5292 1729.67 45.4964C1731.82 47.3986 1734.33 48.9831 1737.21 50.2458L1738.33 50.7335L1731.71 60.2838L1730.96 59.9823C1727.51 58.5807 1724.46 56.61 1721.82 54.0718L1721.81 54.0647C1719.23 51.5433 1717.06 48.6484 1715.3 45.3846C1714.9 44.6446 1714.52 43.8936 1714.17 43.1318C1713.74 44.1287 1713.27 45.1083 1712.77 46.0706C1711.05 49.4432 1708.88 52.4455 1706.25 55.0733C1703.67 57.6626 1700.67 59.7122 1697.28 61.2202L1696.52 61.5573L1689.81 51.8265L1690.92 51.3401C1693.79 50.0815 1696.24 48.453 1698.28 46.4597C1700.41 44.3856 1702.17 42.1142 1703.59 39.6448C1705 37.1723 1706.03 34.5768 1706.69 31.8564L1706.69 31.8479L1706.69 31.8395C1707.4 29.1017 1707.75 26.4244 1707.75 23.8054V22.2261ZM1740.64 1.21698V73.5937H1751.12V1.21698H1740.64Z" fill="#8000FF"/>
<path fill-rule="evenodd" clip-rule="evenodd" d="M1664.3 0.138794H1676.77V27.8858H1686.86V38.4053H1676.77V74.5155H1664.3V0.138794ZM1675.77 37.4053H1685.86V28.8858H1675.77V1.13879H1665.3V73.5155H1675.77V37.4053ZM1621.31 7.64221V18.0054H1644.81C1644.33 21.4648 1643.5 24.7101 1642.33 27.744L1642.33 27.749C1640.4 32.8188 1637.41 37.3625 1633.33 41.3834L1633.33 41.3879C1629.3 45.4169 1624.15 49.0594 1617.87 52.3052L1616.82 52.8452L1623.89 62.3575L1624.64 61.9824C1632.75 57.9265 1639.22 53.1638 1644.01 47.6771C1648.84 42.1614 1652.3 36.102 1654.37 29.5018C1656.49 22.936 1657.55 15.981 1657.55 8.64221V7.64221H1621.31ZM1622.31 8.64221V17.0054H1645.94C1645.9 17.3406 1645.86 17.6739 1645.82 18.0054C1645.33 21.5865 1644.48 24.9528 1643.26 28.1042C1641.28 33.3149 1638.21 37.9785 1634.04 42.095C1630.12 46.0162 1625.18 49.5592 1619.22 52.724C1618.93 52.8815 1618.63 53.0381 1618.33 53.1938L1624.19 61.088C1632.21 57.0758 1638.57 52.3861 1643.26 47.0191C1648 41.6 1651.39 35.6597 1653.42 29.1985C1655.41 23.0353 1656.45 16.5165 1656.54 9.64221C1656.55 9.30971 1656.55 8.97638 1656.55 8.64221H1622.31Z" fill="#8000FF"/>
<path fill-rule="evenodd" clip-rule="evenodd" d="M1580.35 0.295105H1592.74V43.1731H1580.35V0.295105ZM1542.59 44.4559H1592.74V73.8902H1542.59V44.4559ZM1547.6 2.95255H1560.15V10.8307C1560.15 12.9687 1560.47 15.0267 1561.12 17.0089C1561.76 18.9869 1562.72 20.8726 1564.02 22.6673C1565.3 24.3877 1566.93 25.9239 1568.93 27.2722C1570.96 28.614 1573.42 29.7221 1576.32 30.585L1577.57 30.9591L1571.48 40.7614L1570.76 40.5559C1567.17 39.5379 1564.03 38.0569 1561.37 36.1009L1561.36 36.095C1558.78 34.156 1556.59 31.8893 1554.81 29.296L1554.8 29.2862L1554.79 29.2763C1554.53 28.8681 1554.27 28.4542 1554.02 28.0346C1552.62 30.5921 1550.87 32.9121 1548.75 34.992L1548.74 34.9981C1545.54 38.0957 1541.46 40.382 1536.54 41.8792L1535.8 42.1039L1529.72 32.2207L1530.95 31.8388C1533.89 30.927 1536.39 29.7198 1538.48 28.2284C1540.59 26.7209 1542.31 25.0504 1543.64 23.221C1544.99 21.3247 1545.98 19.3381 1546.62 17.26C1547.27 15.11 1547.6 12.9679 1547.6 10.8307V2.95255ZM1553.44 26.9978C1553.63 26.6313 1553.82 26.2599 1553.99 25.8836C1554.18 26.2538 1554.37 26.6197 1554.57 26.9813C1554.91 27.5757 1555.26 28.1585 1555.63 28.7295C1557.35 31.2306 1559.46 33.4191 1561.96 35.295C1564.52 37.1708 1567.54 38.6038 1571.03 39.5938L1576.03 31.5433C1575.7 31.4437 1575.37 31.3409 1575.05 31.2347C1572.49 30.3965 1570.27 29.353 1568.37 28.1042C1566.29 26.6973 1564.57 25.082 1563.21 23.2582C1561.86 21.3824 1560.84 19.4023 1560.16 17.318C1559.49 15.2337 1559.15 13.0713 1559.15 10.8307V3.95255H1548.6V10.8307C1548.6 13.0713 1548.26 15.3119 1547.58 17.5525C1546.9 19.741 1545.86 21.8253 1544.45 23.8054C1543.05 25.7333 1541.25 27.4789 1539.06 29.0421C1537.11 30.4342 1534.83 31.5783 1532.22 32.4745C1531.9 32.5847 1531.58 32.6911 1531.24 32.7938L1536.25 40.9225C1541.04 39.4635 1544.97 37.249 1548.05 34.2789C1550.25 32.1182 1552.05 29.6912 1553.44 26.9978ZM1553.83 53.6627H1581.58V64.6834H1553.83V53.6627ZM1554.83 63.6834H1580.58V54.6627H1554.83V63.6834ZM1581.35 1.2951V42.1731H1591.74V1.2951H1581.35ZM1543.59 45.4559V72.8902H1591.74V45.4559H1543.59Z" fill="#8000FF"/>
<path fill-rule="evenodd" clip-rule="evenodd" d="M1458.34 7.48588H1470.85V0.842223H1483.09V7.48588H1495.52V17.5364H1458.34V7.48588ZM1482.09 8.48588V1.84222H1471.85V8.48588H1459.34V16.5364H1494.52V8.48588H1482.09ZM1485.57 44.0916L1485.56 44.0954C1483.06 45.262 1480.2 45.8306 1477.01 45.8306C1473.91 45.8306 1471.08 45.2598 1468.54 44.0989L1468.53 44.0934L1468.52 44.0876C1466.04 42.8753 1464.05 41.2331 1462.59 39.1527C1461.11 37.0421 1460.38 34.5968 1460.38 31.8559C1460.38 29.1172 1461.1 26.6737 1462.59 24.5643C1464.05 22.4273 1466.04 20.7793 1468.53 19.6164L1468.54 19.6129C1471.08 18.452 1473.91 17.8812 1477.01 17.8812C1480.2 17.8812 1483.06 18.4499 1485.56 19.6164C1488.05 20.7793 1490.02 22.429 1491.43 24.5717C1492.91 26.6793 1493.64 29.1203 1493.64 31.8559C1493.64 34.5937 1492.91 37.0365 1491.43 39.1453C1490.02 41.2316 1488.05 42.8754 1485.58 44.0876L1485.57 44.0916ZM1490.61 38.5777C1491.96 36.6498 1492.64 34.4092 1492.64 31.8559C1492.64 29.3027 1491.96 27.0621 1490.61 25.1341C1489.3 23.154 1487.48 21.6169 1485.14 20.5226C1482.79 19.4284 1480.08 18.8812 1477.01 18.8812C1474.04 18.8812 1471.35 19.4284 1468.96 20.5226C1466.61 21.6169 1464.76 23.154 1463.41 25.1341C1462.05 27.0621 1461.38 29.3027 1461.38 31.8559C1461.38 34.4092 1462.05 36.6498 1463.41 38.5777C1464.76 40.5057 1466.61 42.0428 1468.96 43.1892C1471.35 44.2835 1474.04 44.8306 1477.01 44.8306C1480.08 44.8306 1482.79 44.2835 1485.14 43.1892C1487.48 42.0428 1489.3 40.5057 1490.61 38.5777ZM1473.01 28.661C1472.16 29.315 1471.68 30.3173 1471.68 31.8559C1471.68 33.3817 1472.15 34.4209 1473.01 35.1308C1473.99 35.8505 1475.3 36.249 1477.01 36.249C1478.72 36.249 1480.03 35.8481 1481.01 35.1243C1481.92 34.4087 1482.42 33.3708 1482.42 31.8559C1482.42 30.3338 1481.92 29.3343 1481.02 28.6739L1481 28.6593L1480.99 28.6437C1480.07 27.8911 1478.77 27.4628 1477.01 27.4628C1475.3 27.4628 1474 27.8866 1473.01 28.6572L1473.01 28.661ZM1472.4 35.9203C1471.25 34.9823 1470.68 33.6275 1470.68 31.8559C1470.68 30.0843 1471.25 28.7555 1472.4 27.8697C1473.59 26.9318 1475.13 26.4628 1477.01 26.4628C1478.94 26.4628 1480.47 26.9318 1481.62 27.8697C1482.82 28.7555 1483.42 30.0843 1483.42 31.8559C1483.42 33.6275 1482.82 34.9823 1481.62 35.9203C1480.42 36.8061 1478.88 37.249 1477.01 37.249C1475.13 37.249 1473.59 36.8061 1472.4 35.9203ZM1510.48 0.295105H1522.4V47.6283H1510.48V29.6513H1507.32V47.2375H1495.55V1.4675H1507.32V19.3663H1510.48V0.295105ZM1511.48 20.3663H1506.32V2.4675H1496.55V46.2375H1506.32V28.6513H1511.48V46.6283H1521.4V1.2951H1511.48V20.3663ZM1470.61 48.911H1522.4V74.6718H1510.01V59.1179H1470.61V48.911ZM1511.01 58.1179V73.6718H1521.4V49.911H1471.61V58.1179H1511.01Z" fill="#8000FF"/>
<path fill-rule="evenodd" clip-rule="evenodd" d="M1389.47 3.26525H1402.26V8.01696C1402.26 10.3035 1402.79 12.5218 1403.87 14.6824C1404.93 16.8001 1406.63 18.7119 1409.02 20.406C1411.38 22.0284 1414.48 23.263 1418.35 24.0774L1419.68 24.3584L1414.11 34.2492L1413.38 34.0809C1408.53 32.9618 1404.48 31.1643 1401.27 28.6584L1401.26 28.652C1399.17 26.9863 1397.42 25.1055 1396.02 23.0106C1394.55 25.4531 1392.65 27.6411 1390.33 29.5733C1387.12 32.2963 1383.04 34.2566 1378.13 35.4836L1377.4 35.6665L1371.67 25.7324L1372.96 25.4138C1376.88 24.4461 1380.03 23.0586 1382.46 21.28C1384.9 19.4842 1386.66 17.4411 1387.78 15.159C1388.91 12.8402 1389.47 10.4628 1389.47 8.01696V3.26525ZM1389.69 28.8077C1392.06 26.8294 1393.97 24.5808 1395.42 22.0617C1395.61 21.7232 1395.8 21.3798 1395.97 21.0314C1396.16 21.3711 1396.37 21.7055 1396.58 22.0346C1397.96 24.2097 1399.73 26.1547 1401.88 27.8698C1404.96 30.2667 1408.87 32.0123 1413.61 33.1065L1418.14 25.056C1417.8 24.9833 1417.46 24.9072 1417.12 24.8278C1413.62 23.9963 1410.73 22.7957 1408.45 21.2261C1405.95 19.4545 1404.12 17.4223 1402.98 15.1296C1401.83 12.8369 1401.26 10.466 1401.26 8.01696V4.26525H1390.47V8.01696C1390.47 10.6223 1389.87 13.1495 1388.67 15.5985C1387.48 18.0476 1385.6 20.21 1383.05 22.0859C1380.71 23.8028 1377.76 25.1488 1374.2 26.1236C1373.87 26.2138 1373.54 26.3009 1373.2 26.3847L1377.89 34.5134C1382.68 33.3149 1386.62 31.413 1389.69 28.8077ZM1402.26 46.3826C1401.92 46.4078 1401.59 46.4324 1401.26 46.4565V71.4052H1390.79V47.0565C1390.45 47.0704 1390.12 47.0836 1389.79 47.0964C1389.02 47.1257 1388.26 47.152 1387.5 47.1754C1382.5 47.2797 1377.89 47.3318 1373.67 47.3318L1372.5 38.8904C1372.83 38.8904 1373.17 38.8903 1373.51 38.8899C1377.51 38.8862 1381.89 38.8603 1386.64 38.8122C1391.8 38.708 1397.09 38.4996 1402.51 38.187C1407.63 37.8458 1412.59 37.345 1417.38 36.6847C1417.72 36.6391 1418.05 36.5927 1418.38 36.5456L1419 44.049C1413.79 45.0912 1408.5 45.8467 1403.13 46.3157C1402.84 46.3384 1402.55 46.3607 1402.26 46.3826ZM1402.45 37.1889C1397.04 37.5006 1391.77 37.7084 1386.63 37.8123C1381.47 37.8644 1376.76 37.8904 1372.5 37.8904H1371.35L1372.8 48.3318H1373.67C1377.9 48.3318 1382.52 48.2796 1387.52 48.1753L1387.53 48.175C1388.28 48.1519 1389.03 48.1259 1389.79 48.0971V72.4052H1402.26V47.3855C1402.58 47.3617 1402.89 47.3374 1403.21 47.3127L1403.22 47.3119C1408.62 46.8398 1413.95 46.079 1419.2 45.0296L1420.07 44.8547L1419.28 35.4057L1418.23 35.5556C1413.16 36.2812 1407.89 36.8257 1402.45 37.1889ZM1421.44 0.21698H1433.84V74.5937H1421.44V0.21698ZM1422.44 1.21698V73.5937H1432.84V1.21698H1422.44Z" fill="#8000FF"/>
<path fill-rule="evenodd" clip-rule="evenodd" d="M1349.54 0.138794H1361.86V74.75H1349.54V36.6076H1338.21V26.2444H1349.54V0.138794ZM1350.54 27.2444H1339.21V35.6076H1350.54V73.75H1360.86V1.13879H1350.54V27.2444ZM1302.78 57.0236H1308.72C1312.79 57.0236 1316.59 56.9715 1320.13 56.8673C1323.73 56.7631 1327.25 56.5547 1330.69 56.242C1334.12 55.9294 1337.64 55.4865 1341.24 54.9133L1340.3 46.472C1339.97 46.5262 1339.64 46.5792 1339.31 46.6311C1336.16 47.1278 1333.08 47.5176 1330.06 47.8007C1326.73 48.0612 1323.31 48.2436 1319.82 48.3478C1317.99 48.4034 1316.08 48.4441 1314.1 48.4701C1313.77 48.4744 1313.43 48.4783 1313.1 48.4818V34.5916H1335.3V7.31349H1302.7V15.5985H1325.06V26.3847H1302.78V57.0236ZM1324.06 25.3847H1301.78V58.0236H1308.72C1312.8 58.0236 1316.61 57.9714 1320.16 57.8669C1323.78 57.7621 1327.32 57.5525 1330.78 57.2379C1334.24 56.9231 1337.78 56.4774 1341.39 55.9008L1342.34 55.7507L1341.18 45.3145L1340.14 45.4852C1336.67 46.0544 1333.28 46.494 1329.97 46.8043C1326.66 47.0633 1323.26 47.2446 1319.79 47.3483C1317.97 47.4035 1316.07 47.4441 1314.1 47.47V35.5916H1336.3V6.31349H1301.7V16.5985H1324.06V25.3847Z" fill="#8000FF"/>
<path d="M1215.86 8.40777H1247.12V16.6928H1215.86V8.40777ZM1225.24 29.1203H1235.4V53.7409H1225.24V29.1203ZM1242.9 8.40777H1253.22V14.348C1253.22 17.8391 1253.11 21.8253 1252.91 26.3066C1252.75 30.7878 1252.18 36.0506 1251.19 42.095L1241.02 41.2352C1241.96 35.4513 1242.51 30.397 1242.67 26.0721C1242.82 21.6951 1242.9 17.787 1242.9 14.348V8.40777ZM1259.39 1.21698H1269.71V73.5937H1259.39V1.21698ZM1266.74 30.2927H1279.48V38.8904H1266.74V30.2927ZM1213.2 59.0559L1212.26 50.6145C1216.48 50.6145 1221.07 50.5885 1226.02 50.5364C1231.02 50.4321 1236.07 50.2498 1241.18 49.9892C1246.34 49.6766 1251.32 49.2337 1256.11 48.6605L1256.58 56.2421C1251.68 57.0237 1246.68 57.6229 1241.57 58.0398C1236.52 58.4566 1231.57 58.7432 1226.72 58.8995C1221.88 59.0038 1217.37 59.0559 1213.2 59.0559Z" fill="#8000FF"/>
<path d="M1173.66 2.62384C1179.02 2.62384 1183.66 3.19701 1187.57 4.34337C1191.48 5.43762 1194.5 7.05293 1196.64 9.18932C1198.82 11.2736 1199.92 13.7748 1199.92 16.6928C1199.92 19.6108 1198.82 22.1379 1196.64 24.2743C1194.5 26.3586 1191.48 27.9739 1187.57 29.1203C1183.66 30.2667 1179.02 30.8398 1173.66 30.8398C1168.39 30.8398 1163.78 30.2667 1159.82 29.1203C1155.86 27.9739 1152.81 26.3586 1150.68 24.2743C1148.54 22.1379 1147.47 19.6108 1147.47 16.6928C1147.47 13.7748 1148.54 11.2736 1150.68 9.18932C1152.81 7.05293 1155.86 5.43762 1159.82 4.34337C1163.78 3.19701 1168.39 2.62384 1173.66 2.62384ZM1173.66 10.5962C1170.43 10.5962 1167.64 10.8307 1165.29 11.2997C1162.95 11.7165 1161.18 12.3679 1159.98 13.2537C1158.83 14.1395 1158.26 15.2859 1158.26 16.6928C1158.26 18.0475 1158.83 19.1939 1159.98 20.1318C1161.18 21.0176 1162.95 21.695 1165.29 22.164C1167.64 22.5809 1170.43 22.7893 1173.66 22.7893C1176.99 22.7893 1179.8 22.5809 1182.1 22.164C1184.39 21.695 1186.14 21.0176 1187.33 20.1318C1188.53 19.1939 1189.13 18.0475 1189.13 16.6928C1189.13 15.2859 1188.53 14.1395 1187.33 13.2537C1186.14 12.3679 1184.39 11.7165 1182.1 11.2997C1179.8 10.8307 1176.99 10.5962 1173.66 10.5962ZM1148.57 48.1915H1198.59V72.8902H1148.57V48.1915ZM1188.43 56.3984H1158.73V64.6834H1188.43V56.3984ZM1140.91 34.9823H1206.41V43.1111H1140.91V34.9823Z" fill="#8000FF"/>
<path d="M1072.68 5.59392H1107.77V38.1869H1072.68V5.59392ZM1097.61 13.8008H1082.92V29.9019H1097.61V13.8008ZM1118.79 1.2951H1129.19V42.0168H1118.79V1.2951ZM1081.2 45.534H1129.58V53.7409H1091.52V69.2167H1081.2V45.534ZM1081.2 64.6052H1130.83V72.8902H1081.2V64.6052Z" fill="#8000FF"/>
<path d="M989.661 20.7571H1039.84V29.0421H989.661V20.7571ZM981.611 36.5456H1047.11V44.8306H981.611V36.5456ZM989.661 3.79626H1000.06V24.8996H989.661V3.79626ZM989.036 63.7455H1040.23V72.1087H989.036V63.7455ZM989.036 50.5363H999.431V66.0121H989.036V50.5363Z" fill="#8000FF"/>
<path d="M935.827 1.13879H946.301V73.75H935.827V1.13879ZM944.034 27.9479H956.774V36.5456H944.034V27.9479ZM892.37 47.8007H898.467C902.583 47.8007 906.439 47.7486 910.034 47.6444C913.63 47.488 917.121 47.2536 920.508 46.9409C923.895 46.5762 927.36 46.0812 930.903 45.4559L931.919 54.0535C928.272 54.6788 924.676 55.1738 921.133 55.5386C917.642 55.9033 914.047 56.1378 910.347 56.242C906.647 56.3463 902.687 56.3984 898.467 56.3984H892.37V47.8007ZM892.37 7.8606H926.135V16.2238H902.765V51.865H892.37V7.8606Z" fill="#8000FF"/>
<path d="M823.439 43.3455H847.512V61.4788H833.443V68.4351H823.517V54.5225H837.586V50.849H823.439V43.3455ZM823.517 65.5432H827.972C831.932 65.5432 835.163 65.5432 837.664 65.5432C840.217 65.4911 842.432 65.3868 844.308 65.2305C846.183 65.0742 848.059 64.8137 849.935 64.4489L850.873 71.9523C848.893 72.3692 846.913 72.6558 844.933 72.8121C842.953 72.9684 840.634 73.0726 837.977 73.1247C835.371 73.1769 832.062 73.2029 828.05 73.2029H823.517V65.5432ZM849.622 46.5501H880.809V54.0536H849.622V46.5501ZM865.176 55.4604C867.625 55.4604 869.814 55.8252 871.742 56.5547C873.67 57.2842 875.207 58.3524 876.353 59.7593C877.5 61.1141 878.073 62.7294 878.073 64.6052C878.073 67.419 876.848 69.6336 874.399 71.2489C871.95 72.9163 868.876 73.75 865.176 73.75C861.477 73.75 858.403 72.9163 855.953 71.2489C853.504 69.6336 852.28 67.419 852.28 64.6052C852.28 61.8436 853.504 59.629 855.953 57.9616C858.403 56.2942 861.477 55.4604 865.176 55.4604ZM865.098 61.9478C863.952 61.9478 862.988 62.1562 862.206 62.5731C861.425 62.9899 861.034 63.6673 861.034 64.6052C861.034 65.5432 861.425 66.2206 862.206 66.6374C862.988 67.0543 863.952 67.2627 865.098 67.2627C866.297 67.2627 867.287 67.0543 868.068 66.6374C868.85 66.2206 869.241 65.5432 869.241 64.6052C869.241 63.6673 868.85 62.9899 868.068 62.5731C867.287 62.1562 866.297 61.9478 865.098 61.9478ZM860.174 41.626H870.179V52.0214H860.174V41.626ZM845.089 24.118H855.485V33.7318H845.089V24.118ZM850.482 1.92041C858.715 1.92041 865.124 2.96255 869.71 5.04684C874.347 7.13112 876.666 10.1794 876.666 14.1916C876.666 18.1518 874.347 21.2 869.71 23.3364C865.124 25.4207 858.715 26.4629 850.482 26.4629C842.197 26.4629 835.736 25.4207 831.098 23.3364C826.513 21.2 824.22 18.1518 824.22 14.1916C824.22 10.1794 826.513 7.13112 831.098 5.04684C835.736 2.96255 842.197 1.92041 850.482 1.92041ZM850.404 9.50199C846.965 9.50199 844.099 9.68437 841.806 10.0491C839.514 10.3618 837.794 10.8568 836.648 11.5342C835.554 12.2116 835.006 13.0974 835.006 14.1916C835.006 15.2859 835.554 16.1717 836.648 16.8491C837.794 17.5265 839.514 18.0476 841.806 18.4123C844.099 18.7249 846.965 18.8813 850.404 18.8813C853.895 18.8813 856.787 18.7249 859.08 18.4123C861.373 18.0476 863.066 17.5265 864.16 16.8491C865.255 16.1717 865.802 15.2859 865.802 14.1916C865.802 13.0974 865.255 12.2116 864.16 11.5342C863.066 10.8568 861.373 10.3618 859.08 10.0491C856.787 9.68437 853.895 9.50199 850.404 9.50199ZM817.655 30.449H883.153V38.6559H817.655V30.449Z" fill="#8000FF"/>
<path d="M746.127 5.12496H754.646V11.6123C754.646 16.354 753.917 20.8613 752.458 25.1341C751.051 29.3548 748.862 33.0544 745.892 36.2329C742.922 39.4114 739.144 41.7823 734.559 43.3455L729.088 35.2168C733.152 33.8099 736.435 31.908 738.936 29.5111C741.437 27.0621 743.261 24.2743 744.407 21.1479C745.553 18.0215 746.127 14.8429 746.127 11.6123V5.12496ZM748.237 5.12496H756.6V12.5502C756.6 14.7387 756.913 16.8751 757.538 18.9594C758.215 21.0437 759.206 22.9977 760.508 24.8215C761.811 26.6452 763.478 28.2866 765.511 29.7456C767.543 31.1525 769.992 32.2988 772.858 33.1846L767.465 41.3133C763.088 39.8543 759.466 37.6919 756.6 34.826C753.786 31.9601 751.676 28.6253 750.269 24.8215C748.914 21.0176 748.237 16.9272 748.237 12.5502V5.12496ZM776.766 1.2951H787.161V44.049H776.766V1.2951ZM784.347 18.0215H796.775V26.6191H784.347V18.0215ZM763.556 45.6903C768.611 45.6903 772.962 46.2635 776.609 47.4099C780.257 48.5041 783.071 50.0934 785.051 52.1777C787.031 54.2099 788.021 56.711 788.021 59.6811C788.021 62.5991 787.031 65.1002 785.051 67.1845C783.071 69.2688 780.257 70.8581 776.609 71.9523C772.962 73.0987 768.611 73.6718 763.556 73.6718C758.554 73.6718 754.203 73.0987 750.504 71.9523C746.856 70.8581 744.016 69.2688 741.984 67.1845C740.004 65.1002 739.014 62.5991 739.014 59.6811C739.014 56.711 740.004 54.2099 741.984 52.1777C744.016 50.0934 746.856 48.5041 750.504 47.4099C754.203 46.2635 758.554 45.6903 763.556 45.6903ZM763.556 53.7409C760.482 53.7409 757.903 53.9754 755.819 54.4443C753.734 54.8612 752.145 55.5125 751.051 56.3984C749.957 57.2321 749.409 58.3263 749.409 59.6811C749.409 60.9838 749.957 62.078 751.051 62.9638C752.145 63.8497 753.734 64.5271 755.819 64.996C757.903 65.4129 760.482 65.6213 763.556 65.6213C766.631 65.6213 769.21 65.4129 771.294 64.996C773.431 64.5271 775.02 63.8497 776.062 62.9638C777.156 62.078 777.704 60.9838 777.704 59.6811C777.704 58.3263 777.156 57.2321 776.062 56.3984C775.02 55.5125 773.431 54.8612 771.294 54.4443C769.21 53.9754 766.631 53.7409 763.556 53.7409Z" fill="#8000FF"/>
<path d="M704.864 1.29512H715.259V47.1754H704.864V1.29512ZM712.446 19.741H724.873V28.1824H712.446V19.741ZM691.811 47.8789C696.761 47.8789 701.06 48.3999 704.708 49.4421C708.355 50.4842 711.143 51.9692 713.071 53.8972C715.051 55.8252 716.041 58.1179 716.041 60.7754C716.041 63.4849 715.051 65.8037 713.071 67.7317C711.143 69.6596 708.355 71.1186 704.708 72.1086C701.06 73.1508 696.761 73.6718 691.811 73.6718C686.809 73.6718 682.484 73.1508 678.836 72.1086C675.189 71.1186 672.375 69.6596 670.395 67.7317C668.415 65.8037 667.425 63.4849 667.425 60.7754C667.425 58.1179 668.415 55.8252 670.395 53.8972C672.375 51.9692 675.189 50.4842 678.836 49.4421C682.484 48.3999 686.809 47.8789 691.811 47.8789ZM691.811 55.7731C687.226 55.7731 683.735 56.1899 681.338 57.0236C678.993 57.8052 677.82 59.0558 677.82 60.7754C677.82 62.547 678.993 63.8497 681.338 64.6834C683.735 65.5171 687.226 65.934 691.811 65.934C696.344 65.934 699.784 65.5171 702.128 64.6834C704.525 63.8497 705.724 62.547 705.724 60.7754C705.724 59.0558 704.525 57.8052 702.128 57.0236C699.784 56.1899 696.344 55.7731 691.811 55.7731ZM658.358 8.09509H700.878V16.2238H658.358V8.09509ZM679.618 18.6468C683.161 18.6468 686.262 19.1939 688.919 20.2881C691.577 21.3303 693.661 22.8414 695.172 24.8215C696.683 26.7494 697.439 29.0161 697.439 31.6214C697.439 34.1747 696.683 36.4413 695.172 38.4214C693.661 40.3494 691.577 41.8605 688.919 42.9547C686.262 43.9969 683.161 44.5179 679.618 44.5179C676.127 44.5179 673.027 43.9969 670.317 42.9547C667.659 41.8605 665.575 40.3494 664.064 38.4214C662.553 36.4413 661.797 34.1747 661.797 31.6214C661.797 29.0161 662.553 26.7494 664.064 24.8215C665.575 22.8414 667.659 21.3303 670.317 20.2881C673.027 19.1939 676.127 18.6468 679.618 18.6468ZM679.618 26.1502C677.325 26.1502 675.45 26.6192 673.991 27.5571C672.532 28.4429 671.802 29.7977 671.802 31.6214C671.802 33.3931 672.532 34.7218 673.991 35.6076C675.45 36.4934 677.325 36.9364 679.618 36.9364C681.963 36.9364 683.839 36.4934 685.246 35.6076C686.705 34.7218 687.434 33.3931 687.434 31.6214C687.434 29.7977 686.705 28.4429 685.246 27.5571C683.839 26.6192 681.963 26.1502 679.618 26.1502ZM674.46 0.747986H684.777V12.4721H674.46V0.747986Z" fill="#8000FF"/>
<path d="M570.808 38.1869H636.306V46.3938H570.808V38.1869ZM578.78 64.0581H628.959V72.4213H578.78V64.0581ZM578.78 51.2398H589.175V66.7156H578.78V51.2398ZM603.557 3.40546C608.82 3.40546 613.405 4.00468 617.313 5.20314C621.273 6.4016 624.348 8.12115 626.536 10.3618C628.725 12.6024 629.819 15.2338 629.819 18.256C629.819 21.3303 628.725 23.9877 626.536 26.2284C624.348 28.469 621.273 30.1885 617.313 31.387C613.405 32.5854 608.82 33.1847 603.557 33.1847C598.346 33.1847 593.761 32.5854 589.801 31.387C585.893 30.1885 582.844 28.469 580.656 26.2284C578.467 23.9877 577.373 21.3303 577.373 18.256C577.373 15.2338 578.467 12.6024 580.656 10.3618C582.844 8.12115 585.893 6.4016 589.801 5.20314C593.761 4.00468 598.346 3.40546 603.557 3.40546ZM603.557 11.6123C600.378 11.6123 597.617 11.8729 595.272 12.3939C592.927 12.915 591.155 13.6706 589.957 14.6606C588.759 15.5985 588.159 16.797 588.159 18.256C588.159 19.715 588.759 20.9395 589.957 21.9295C591.155 22.9196 592.927 23.6751 595.272 24.1962C597.617 24.7173 600.378 24.9778 603.557 24.9778C606.84 24.9778 609.627 24.7173 611.92 24.1962C614.213 23.6751 615.958 22.9196 617.157 21.9295C618.407 20.9395 619.033 19.715 619.033 18.256C619.033 16.797 618.407 15.5985 617.157 14.6606C615.958 13.6706 614.213 12.915 611.92 12.3939C609.627 11.8729 606.84 11.6123 603.557 11.6123Z" fill="#8000FF"/>
<path d="M550.726 1.21698H560.653V43.5801H550.726V1.21698ZM541.972 17.9434H553.462V26.3066H541.972V17.9434ZM534.938 2.54572H544.63V43.4237H534.938V2.54572ZM510.474 46.6283H560.653V73.6719H550.257V54.8352H510.474V46.6283ZM519.853 6.29742H530.248C530.248 12.3418 529.284 17.761 527.356 22.5548C525.428 27.3487 522.458 31.5173 518.446 35.0605C514.434 38.6038 509.301 41.6 503.048 44.049L498.124 36.5456C503.335 34.6176 507.504 32.377 510.63 29.8238C513.809 27.2184 516.127 24.2744 517.586 20.9916C519.097 17.7089 519.853 14.0874 519.853 10.1273V6.29742ZM501.641 6.29742H523.214V14.5043H501.641V6.29742Z" fill="#8000FF"/>
<path d="M433.804 7.39166H479.606V15.6767H433.804V7.39166ZM427.082 56.4765H492.581V64.9179H427.082V56.4765ZM450.218 31.6215H460.691V60.6972H450.218V31.6215ZM475.854 7.39166H486.328V14.2698C486.328 17.292 486.276 20.4966 486.172 23.8836C486.12 27.2705 485.885 31.0222 485.468 35.1387C485.104 39.2551 484.426 43.8666 483.436 48.9731L473.041 47.8789C474.5 40.636 475.333 34.331 475.542 28.964C475.75 23.5449 475.854 18.6468 475.854 14.2698V7.39166Z" fill="#8000FF"/>
<path fill-rule="evenodd" clip-rule="evenodd" d="M317.312 37.1869H384.811V47.3938H317.312V37.1869ZM326.284 72.4213H376.464V64.0581H336.68V51.2398H326.284V72.4213ZM337.68 63.0581V50.2398H325.284V73.4213H377.464V63.0581H337.68ZM337.015 32.3441L337.012 32.343C332.991 31.11 329.781 29.3185 327.445 26.9271C325.078 24.5036 323.877 21.5969 323.877 18.256C323.877 14.9622 325.081 12.0829 327.445 9.66302C329.781 7.27163 332.991 5.48012 337.012 4.24709L337.015 4.246C341.09 3.01287 345.777 2.40546 351.061 2.40546C356.396 2.40546 361.084 3.01234 365.109 4.24656C369.18 5.47871 372.418 7.26953 374.756 9.66302C377.12 12.0829 378.323 14.9622 378.323 18.256C378.323 21.5969 377.123 24.5036 374.756 26.9271C372.418 29.3206 369.18 31.1114 365.109 32.3435C361.084 33.5778 356.396 34.1847 351.061 34.1847C345.777 34.1847 341.09 33.5772 337.015 32.3441ZM364.818 31.387C368.778 30.1885 371.852 28.469 374.041 26.2284C376.229 23.9877 377.323 21.3303 377.323 18.256C377.323 15.2338 376.229 12.6024 374.041 10.3618C371.852 8.12115 368.778 6.4016 364.818 5.20314C360.91 4.00468 356.324 3.40546 351.061 3.40546C345.851 3.40546 341.265 4.00468 337.305 5.20314C333.397 6.4016 330.349 8.12115 328.16 10.3618C325.972 12.6024 324.877 15.2338 324.877 18.256C324.877 21.3303 325.972 23.9877 328.16 26.2284C330.349 28.469 333.397 30.1885 337.305 31.387C341.265 32.5854 345.851 33.1847 351.061 33.1847C356.324 33.1847 360.91 32.5854 364.818 31.387ZM338.088 15.44L338.078 15.4481C337.109 16.206 336.664 17.1196 336.664 18.256C336.664 19.395 337.113 20.3443 338.098 21.1586C339.126 22.0079 340.726 22.7163 342.993 23.22C345.248 23.7211 347.934 23.9778 351.061 23.9778C354.296 23.9778 357.005 23.7205 359.203 23.221C361.414 22.7184 362.992 22.011 364.024 21.1586L364.032 21.1519L364.041 21.1455C365.077 20.3249 365.537 19.3782 365.537 18.256C365.537 17.137 365.081 16.2253 364.061 15.4606L364.042 15.4465L364.024 15.4316C362.992 14.5791 361.414 13.8717 359.203 13.3691C357.005 12.8696 354.296 12.6123 351.061 12.6123C347.934 12.6123 345.248 12.869 342.993 13.3701C340.726 13.8738 339.126 14.5822 338.098 15.4316L338.088 15.44ZM318.312 38.1869V46.3938H383.811V38.1869H318.312ZM342.776 12.3939C345.121 11.8729 347.883 11.6123 351.061 11.6123C354.344 11.6123 357.132 11.8729 359.425 12.3939C361.717 12.915 363.463 13.6706 364.661 14.6606C365.912 15.5985 366.537 16.797 366.537 18.256C366.537 19.715 365.912 20.9395 364.661 21.9295C363.463 22.9196 361.717 23.6751 359.425 24.1962C357.132 24.7173 354.344 24.9778 351.061 24.9778C347.883 24.9778 345.121 24.7173 342.776 24.1962C340.431 23.6751 338.66 22.9196 337.461 21.9295C336.263 20.9395 335.664 19.715 335.664 18.256C335.664 16.797 336.263 15.5985 337.461 14.6606C338.66 13.6706 340.431 12.915 342.776 12.3939Z" fill="#8000FF"/>
<path fill-rule="evenodd" clip-rule="evenodd" d="M295.59 0.21698H308.063V50.2858H295.59V29.8077H283.162V19.4445H295.59V0.21698ZM296.59 20.4445H284.162V28.8077H296.59V49.2858H307.063V1.21698H296.59V20.4445ZM250.022 5.68822V15.9732H271.321C270.921 18.0875 270.239 20.1044 269.278 22.0267C267.646 25.2401 265.033 28.1443 261.387 30.7265C257.802 33.2509 253.038 35.4257 247.059 37.2296L245.892 37.582L251.156 47.4402L251.947 47.1915C259.323 44.8732 265.43 41.8558 270.236 38.1184C275.094 34.3804 278.744 29.9057 281.161 24.6952L281.163 24.6917C283.577 19.433 284.771 13.4245 284.771 6.68822V5.68822H250.022ZM251.022 6.68822V14.9732H272.499C272.452 15.3088 272.399 15.6421 272.338 15.9732C271.926 18.2443 271.203 20.4122 270.171 22.4767C268.452 25.8636 265.716 28.8858 261.964 31.5433C258.465 34.0073 253.918 36.1218 248.322 37.8867C248.001 37.988 247.676 38.088 247.348 38.187L251.647 46.2375C258.942 43.9448 264.934 40.9747 269.624 37.3272C274.366 33.6797 277.909 29.3288 280.254 24.2744C282.48 19.4266 283.649 13.8979 283.762 7.68822C283.768 7.35683 283.771 7.0235 283.771 6.68822H251.022ZM276.44 42.9709H288.757V46.3157C288.757 48.2427 289.189 50.1276 290.066 51.9794C290.943 53.7805 292.244 55.5334 293.993 57.2342C295.772 58.8625 298.016 60.2888 300.744 61.5016C303.518 62.7117 306.769 63.6292 310.508 64.2438L311.847 64.4639L306.846 74.4658L306.119 74.346C301.612 73.6036 297.584 72.3802 294.045 70.6647C290.565 69.0043 287.623 66.9311 285.237 64.4367C284.281 63.4371 283.415 62.3921 282.641 61.302C281.848 62.4276 280.952 63.5013 279.953 64.523L279.945 64.5308C277.511 66.9648 274.525 69.0318 271.002 70.7403C267.516 72.4559 263.516 73.7055 259.012 74.5004L258.268 74.6315L253.365 64.5367L254.692 64.3216C258.484 63.7066 261.733 62.7889 264.45 61.5811C267.182 60.3668 269.429 58.9385 271.21 57.3076C273.005 55.611 274.298 53.8415 275.12 52.0038L275.125 51.9939L275.13 51.9841C276.007 50.1308 276.44 48.2443 276.44 46.3157V42.9709ZM271.891 58.0398C270.015 59.7593 267.67 61.2444 264.856 62.4949C262.295 63.6332 259.302 64.5124 255.878 65.1327C255.54 65.1939 255.198 65.2525 254.852 65.3087L258.838 73.5156C263.267 72.734 267.175 71.5095 270.562 69.842C274.001 68.1746 276.893 66.1685 279.238 63.8237C280.292 62.7457 281.226 61.6098 282.038 60.416C282.245 60.112 282.444 59.8042 282.635 59.4927C282.829 59.8026 283.03 60.109 283.239 60.412C284.039 61.5741 284.946 62.6853 285.96 63.7455C288.252 66.1424 291.092 68.1485 294.479 69.7638C297.918 71.4313 301.852 72.6298 306.281 73.3593L310.346 65.2305C309.999 65.1735 309.656 65.1139 309.317 65.0517C305.938 64.4317 302.946 63.5533 300.341 62.4168C297.527 61.1662 295.183 59.6811 293.307 57.9616C291.483 56.19 290.102 54.3402 289.164 52.4122C288.226 50.4321 287.757 48.4 287.757 46.3157V43.9709H277.44V46.3157C277.44 48.4 276.971 50.4321 276.033 52.4122C275.147 54.3923 273.767 56.2681 271.891 58.0398Z" fill="#8000FF"/>
<path fill-rule="evenodd" clip-rule="evenodd" d="M158.094 36.0145H225.514V46.2995H158.094V36.0145ZM166.988 31.1525H217.324V22.8674H177.305V12.0813H216.698V3.87439H166.988V31.1525ZM178.305 13.0813H217.698V2.87439H165.988V32.1525H218.324V21.8674H178.305V13.0813ZM166.754 72.3431H217.793V64.0581H177.149V50.6926H166.754V72.3431ZM178.149 63.0581V49.6926H165.754V73.3431H218.793V63.0581H178.149ZM159.094 37.0145V45.2995H224.514V37.0145H159.094Z" fill="#8000FF"/>
<path fill-rule="evenodd" clip-rule="evenodd" d="M86.114 55.7892H113.627V43.1731H92.9922V5.61005H146.5V43.1731H125.944V55.7892H153.691V66.2305H86.114V55.7892ZM124.944 56.7892V42.1731H145.5V6.61005H93.9922V42.1731H114.627V56.7892H87.114V65.2305H152.691V56.7892H124.944ZM104.231 14.8169H135.261V33.8881H104.231V14.8169ZM105.231 32.8881H134.261V15.8169H105.231V32.8881Z" fill="#8000FF"/>
<path fill-rule="evenodd" clip-rule="evenodd" d="M48.2734 0.138794H60.6688V74.75H48.2734V0.138794ZM31.103 55.7221C28.0584 57.9364 24.5676 59.0397 20.6666 59.0397C16.8144 59.0397 13.3505 57.9345 10.3084 55.7221L10.2988 55.7151C7.26978 53.4571 4.90334 50.31 3.17871 46.3218L3.17549 46.3143L3.1724 46.3068C1.49595 42.2509 0.673584 37.5039 0.673584 32.0904C0.673584 26.728 1.49624 22.0314 3.17423 18.0259L3.17677 18.0198C4.90001 13.981 7.2672 10.8284 10.3036 8.61858C13.3448 6.353 16.8105 5.21924 20.6666 5.21924C24.5715 5.21924 28.064 6.35104 31.1078 8.61855C34.1453 10.8292 36.4867 13.9832 38.1577 18.0228C39.889 22.0298 40.7378 26.7277 40.7378 32.0904C40.7378 37.5061 39.8887 42.2559 38.1577 46.3142C36.4852 50.3055 34.1438 53.4554 31.1125 55.7151L31.103 55.7221ZM37.2367 45.9248C38.9041 42.0168 39.7378 37.4053 39.7378 32.0904C39.7378 26.8276 38.9041 22.2682 37.2367 18.4123C35.6214 14.5043 33.3808 11.5081 30.5149 9.42382C27.649 7.28743 24.3662 6.21924 20.6666 6.21924C17.0191 6.21924 13.7624 7.28743 10.8965 9.42382C8.03065 11.5081 5.76399 14.5043 4.09656 18.4123C2.48124 22.2682 1.67358 26.8276 1.67358 32.0904C1.67358 37.4053 2.48124 42.0168 4.09656 45.9248C5.76399 49.7808 8.03065 52.7769 10.8965 54.9133C13.7624 56.9976 17.0191 58.0397 20.6666 58.0397C24.3662 58.0397 27.649 56.9976 30.5149 54.9133C33.3808 52.7769 35.6214 49.7808 37.2367 45.9248ZM27.6064 40.8588C28.3493 38.4814 28.7333 35.5656 28.7333 32.0904C28.7333 28.5593 28.3484 25.6761 27.6101 23.4119L27.6061 23.3997L27.6025 23.3874C26.9053 21.0471 25.9374 19.3778 24.7561 18.2873C23.5838 17.2052 22.2359 16.6767 20.6666 16.6767C19.1574 16.6767 17.8336 17.1996 16.6553 18.2873C15.4692 19.3822 14.4756 21.057 13.7271 23.3995C13.0371 25.6699 12.6781 28.558 12.6781 32.0904C12.6781 35.5646 13.0358 38.483 13.7289 40.865C14.4771 43.2046 15.4701 44.8777 16.6553 45.9716C17.8336 47.0594 19.1574 47.5823 20.6666 47.5823C22.2359 47.5823 23.5838 47.0538 24.7561 45.9716C25.9374 44.8812 26.9053 43.2119 27.6025 40.8716L27.6064 40.8588ZM12.7724 41.157C12.0429 38.6559 11.6781 35.6337 11.6781 32.0904C11.6781 28.495 12.0429 25.4989 12.7724 23.1019C13.554 20.6529 14.6222 18.8031 15.977 17.5525C17.3318 16.302 18.895 15.6767 20.6666 15.6767C22.4904 15.6767 24.0796 16.302 25.4344 17.5525C26.7892 18.8031 27.8313 20.6529 28.5608 23.1019C29.3425 25.4989 29.7333 28.495 29.7333 32.0904C29.7333 35.6337 29.3425 38.6559 28.5608 41.157C27.8313 43.6061 26.7892 45.4559 25.4344 46.7065C24.0796 47.957 22.4904 48.5823 20.6666 48.5823C18.895 48.5823 17.3318 47.957 15.977 46.7065C14.6222 45.4559 13.554 43.6061 12.7724 41.157ZM49.2734 1.13879V73.75H59.6688V1.13879H49.2734Z" fill="#8000FF"/>
</svg>
