<svg width="3221" height="76" viewBox="0 0 3221 76" fill="none" xmlns="http://www.w3.org/2000/svg">
<path fill-rule="evenodd" clip-rule="evenodd" d="M3197.23 0.468994H3209.7V27.2781H3220.17V37.8758H3209.7V75.0802H3197.23V0.468994ZM3208.7 36.8758H3219.17V28.2781H3208.7V1.46899H3198.23V74.0802H3208.7V36.8758ZM3154.77 56.7286H3160.87C3165.09 56.7286 3169.05 56.6765 3172.75 56.5722C3176.45 56.468 3180.04 56.2335 3183.53 55.8688C3187.08 55.504 3190.67 55.009 3194.32 54.3837L3193.3 45.7861C3192.97 45.8442 3192.64 45.9013 3192.32 45.9572C3189.12 46.5023 3185.98 46.9403 3182.91 47.2711C3179.52 47.5838 3176.03 47.8183 3172.43 47.9746C3170.43 48.0328 3168.34 48.0747 3166.16 48.1004C3165.83 48.1044 3165.5 48.1079 3165.16 48.1111V16.554H3188.54V8.19081H3154.77V56.7286ZM3166.16 17.554H3189.54V7.19081H3153.77V57.7286H3160.87C3165.09 57.7286 3169.06 57.6764 3172.77 57.5718C3176.5 57.467 3180.12 57.2309 3183.64 56.8634C3187.2 56.4963 3190.82 55.9982 3194.49 55.3694L3195.42 55.209L3194.17 44.6173L3193.13 44.8013C3189.61 45.4224 3186.17 45.9139 3182.81 46.2761C3179.44 46.5866 3175.97 46.8197 3172.4 46.9752C3170.4 47.033 3168.32 47.0747 3166.16 47.1004V17.554Z" fill="#8000FF"/>
<path fill-rule="evenodd" clip-rule="evenodd" d="M3129.23 0.54718H3141.55V74.9239H3129.23V0.54718ZM3082.88 7.42532H3095.28V46.2114C3099.03 46.1226 3102.89 45.9352 3106.86 45.6488C3112.61 45.1831 3118.45 44.3551 3124.41 43.1641L3125.46 42.9534L3126.81 53.6082L3125.91 53.7988C3119.72 55.1101 3113.6 56.0025 3107.57 56.475L3107.56 56.4756C3101.6 56.8939 3095.84 57.1033 3090.29 57.1033H3082.88V7.42532ZM3083.88 56.1033H3090.29C3095.82 56.1033 3101.55 55.8949 3107.49 55.478C3113.48 55.0091 3119.55 54.1232 3125.7 52.8206L3124.61 44.1447C3124.28 44.2104 3123.95 44.2749 3123.62 44.3383C3117.97 45.4334 3112.41 46.2026 3106.94 46.6459C3102.94 46.9341 3099.05 47.1227 3095.28 47.2116C3094.94 47.2195 3094.61 47.2266 3094.28 47.2329V8.42532H3083.88V56.1033ZM3130.23 1.54718V73.9239H3140.55V1.54718H3130.23Z" fill="#8000FF"/>
<path fill-rule="evenodd" clip-rule="evenodd" d="M3007.31 31.8896H3074.73V42.1746H3007.31V31.8896ZM3016.2 28.0436H3066.54V19.7586H3026.52V11.7081H3065.91V3.42303H3016.2V28.0436ZM3027.52 12.7081H3066.91V2.42303H3015.2V29.0436H3067.54V18.7586H3027.52V12.7081ZM3014.89 44.1608H3027.21V49.8665H3054.52V44.1608H3066.84V74.0642H3014.89V44.1608ZM3055.52 50.8665H3026.21V45.1608H3015.89V73.0642H3065.84V45.1608H3055.52V50.8665ZM3026.21 64.7791V58.8389H3055.52V64.7791H3026.21ZM3054.52 63.7791V59.8389H3027.21V63.7791H3054.52ZM3008.31 32.8896V41.1746H3073.73V32.8896H3008.31Z" fill="#8000FF"/>
<path fill-rule="evenodd" clip-rule="evenodd" d="M2937.36 6.48735H2973.91V43.5033H2937.36V6.48735ZM2981.83 0.625305H2994.23V21.4942H3003.84V32.0137H2994.23V55.3837H2981.83V0.625305ZM2993.23 31.0137H3002.84V22.4942H2993.23V1.62531H2982.83V54.3837H2993.23V31.0137ZM2946.57 72.7515H2995.81V64.3883H2957.04V49.2251H2946.57V72.7515ZM2958.04 63.3883V48.2251H2945.57V73.7515H2996.81V63.3883H2958.04ZM2948.6 15.7724H2962.67V34.2964H2948.6V15.7724ZM2949.6 33.2964H2961.67V16.7724H2949.6V33.2964ZM2938.36 7.48735V42.5033H2972.91V7.48735H2938.36Z" fill="#8000FF"/>
<path d="M2848.86 57.5884H2914.43V66.0297H2848.86V57.5884ZM2876.37 43.8321H2886.69V60.9493H2876.37V43.8321ZM2856.28 6.23682H2907.01V30.3885H2866.68V42.5034H2856.36V22.2598H2896.69V14.5218H2856.28V6.23682ZM2856.36 38.439H2908.65V46.724H2856.36V38.439Z" fill="#8000FF"/>
<path d="M2809.63 5.2207C2814.73 5.2207 2819.32 6.08047 2823.38 7.8C2827.5 9.51954 2830.73 11.9425 2833.07 15.0689C2835.47 18.1954 2836.67 21.8689 2836.67 26.0896C2836.67 30.3103 2835.47 34.0099 2833.07 37.1884C2830.73 40.3148 2827.5 42.7378 2823.38 44.4573C2819.32 46.1769 2814.73 47.0366 2809.63 47.0366C2804.57 47.0366 2799.99 46.1769 2795.87 44.4573C2791.81 42.7378 2788.57 40.3148 2786.18 37.1884C2783.78 34.0099 2782.58 30.3103 2782.58 26.0896C2782.58 21.8689 2783.78 18.1954 2786.18 15.0689C2788.57 11.9425 2791.81 9.51954 2795.87 7.8C2799.99 6.08047 2804.57 5.2207 2809.63 5.2207ZM2809.63 13.6621C2806.4 13.6621 2803.5 14.1571 2800.95 15.1471C2798.4 16.1371 2796.39 17.5701 2794.93 19.4459C2793.52 21.2697 2792.82 23.4842 2792.82 26.0896C2792.82 28.6949 2793.52 30.9355 2794.93 32.8114C2796.39 34.6352 2798.4 36.042 2800.95 37.0321C2803.5 38.0221 2806.4 38.5171 2809.63 38.5171C2812.96 38.5171 2815.88 38.0221 2818.38 37.0321C2820.93 36.042 2822.91 34.6352 2824.32 32.8114C2825.78 30.9355 2826.51 28.6949 2826.51 26.0896C2826.51 23.4842 2825.78 21.2697 2824.32 19.4459C2822.91 17.5701 2820.93 16.1371 2818.38 15.1471C2815.88 14.1571 2812.96 13.6621 2809.63 13.6621ZM2776.95 56.7286H2842.53V65.2481H2776.95V56.7286Z" fill="#8000FF"/>
<path d="M2712.95 64.3883H2763.13V72.7515H2712.95V64.3883ZM2712.95 51.8044H2723.34V67.2802H2712.95V51.8044ZM2704.97 39.1424H2770.55V47.3493H2704.97V39.1424ZM2732.41 28.9815H2742.8V42.2688H2732.41V28.9815ZM2732.33 3.65747H2741.24V5.84597C2741.24 8.60765 2740.82 11.2391 2739.99 13.7402C2739.16 16.1892 2737.93 18.4819 2736.32 20.6183C2734.75 22.7547 2732.8 24.6827 2730.45 26.4022C2728.11 28.0696 2725.43 29.5026 2722.4 30.7011C2719.43 31.8995 2716.1 32.7853 2712.4 33.3585L2708.41 25.2298C2711.64 24.8129 2714.54 24.1356 2717.09 23.1976C2719.64 22.2597 2721.86 21.1655 2723.73 19.9149C2725.66 18.6122 2727.25 17.2053 2728.5 15.6942C2729.8 14.131 2730.77 12.5157 2731.39 10.8482C2732.02 9.18082 2732.33 7.51339 2732.33 5.84597V3.65747ZM2734.05 3.65747H2742.88V5.84597C2742.88 7.5655 2743.2 9.28504 2743.82 11.0046C2744.45 12.672 2745.38 14.2873 2746.63 15.8505C2747.88 17.3616 2749.45 18.7425 2751.32 19.993C2753.25 21.2436 2755.49 22.3379 2758.05 23.2758C2760.65 24.1616 2763.57 24.8129 2766.8 25.2298L2762.89 33.3585C2759.19 32.7853 2755.83 31.9256 2752.81 30.7792C2749.79 29.5807 2747.1 28.1478 2744.76 26.4804C2742.41 24.7608 2740.43 22.8589 2738.82 20.7747C2737.26 18.6383 2736.06 16.3195 2735.22 13.8184C2734.44 11.3172 2734.05 8.65975 2734.05 5.84597V3.65747Z" fill="#8000FF"/>
<path d="M2650.33 2.56323C2658.56 2.56323 2664.97 3.63143 2669.56 5.76782C2674.19 7.90421 2676.51 10.9785 2676.51 14.9908C2676.51 18.9509 2674.19 21.9992 2669.56 24.1356C2664.97 26.272 2658.56 27.3402 2650.33 27.3402C2642.04 27.3402 2635.58 26.272 2630.95 24.1356C2626.36 21.9992 2624.07 18.9509 2624.07 14.9908C2624.07 10.9785 2626.36 7.90421 2630.95 5.76782C2635.58 3.63143 2642.04 2.56323 2650.33 2.56323ZM2650.25 10.223C2646.81 10.223 2643.95 10.4053 2641.65 10.7701C2639.36 11.0827 2637.64 11.6038 2636.5 12.3333C2635.4 13.0107 2634.85 13.8965 2634.85 14.9908C2634.85 16.085 2635.4 16.9969 2636.5 17.7264C2637.64 18.4038 2639.36 18.8988 2641.65 19.2114C2643.95 19.5241 2646.81 19.6804 2650.25 19.6804C2653.74 19.6804 2656.63 19.5241 2658.93 19.2114C2661.22 18.8988 2662.91 18.4038 2664.01 17.7264C2665.1 16.9969 2665.65 16.085 2665.65 14.9908C2665.65 13.8965 2665.1 13.0107 2664.01 12.3333C2662.91 11.6038 2661.22 11.0827 2658.93 10.7701C2656.63 10.4053 2653.74 10.223 2650.25 10.223ZM2617.5 30.7011H2683V38.9079H2617.5V30.7011ZM2625.01 42.9723H2675.03V61.4964H2635.4V67.9055H2625.08V54.3056H2664.79V50.632H2625.01V42.9723ZM2625.08 65.6389H2676.98V73.5331H2625.08V65.6389Z" fill="#8000FF"/>
<path d="M2573.19 41.409H2583.51V52.3515H2573.19V41.409ZM2545.6 35.4688H2611.1V43.6757H2545.6V35.4688ZM2551.31 3.57928H2605.32V11.8643H2551.31V3.57928ZM2551.85 22.7286H2604.69V30.9355H2551.85V22.7286ZM2560.53 6.54939H2570.92V28.1217H2560.53V6.54939ZM2585.7 6.54939H2596.09V28.1217H2585.7V6.54939ZM2553.26 49.6159H2603.28V73.2204H2553.26V49.6159ZM2593.12 57.7446H2563.42V65.0135H2593.12V57.7446Z" fill="#8000FF"/>
<path d="M2525.99 1.54718H2535.91V73.9239H2525.99V1.54718ZM2502.15 26.3241H2514.19V34.7655H2502.15V26.3241ZM2511.37 2.71959H2521.06V70.6412H2511.37V2.71959ZM2486.6 13.3494H2494.41V20.7747C2494.41 24.8391 2494.1 28.8513 2493.47 32.8114C2492.9 36.7716 2491.99 40.5233 2490.74 44.0666C2489.49 47.5577 2487.85 50.7102 2485.81 53.524C2483.78 56.3378 2481.33 58.6566 2478.47 60.4803L2472.29 52.8206C2475.83 50.58 2478.65 47.7662 2480.73 44.3792C2482.82 40.9401 2484.3 37.1884 2485.19 33.1241C2486.13 29.0076 2486.6 24.8912 2486.6 20.7747V13.3494ZM2488.94 13.3494H2496.68V20.7747C2496.68 24.7869 2497.12 28.7471 2498.01 32.6551C2498.89 36.5631 2500.35 40.1325 2502.38 43.3631C2504.42 46.5417 2507.18 49.147 2510.67 51.1792L2504.65 58.6826C2500.79 56.3899 2497.72 53.2895 2495.43 49.3815C2493.13 45.4735 2491.47 41.0704 2490.42 36.1723C2489.43 31.2222 2488.94 26.0896 2488.94 20.7747V13.3494ZM2474.95 8.81612H2507.23V17.1793H2474.95V8.81612Z" fill="#8000FF"/>
<path d="M2386.38 37.3447H2451.8V45.6297H2386.38V37.3447ZM2394.28 23.1976H2444.61V31.4827H2394.28V23.1976ZM2394.28 4.20459H2443.99V12.4115H2404.59V26.1677H2394.28V4.20459ZM2394.04 64.3883H2445.08V72.6733H2394.04V64.3883ZM2394.04 51.0228H2404.44V66.4986H2394.04V51.0228Z" fill="#8000FF"/>
<path d="M2314.4 57.1194H2379.98V65.5607H2314.4V57.1194ZM2341.92 41.1746H2352.23V59.1516H2341.92V41.1746ZM2321.28 6.94025H2372.79V42.5033H2321.28V6.94025ZM2362.55 15.1471H2331.52V34.2183H2362.55V15.1471Z" fill="#8000FF"/>
<path fill-rule="evenodd" clip-rule="evenodd" d="M2225.85 11.4897H2238.2V2.5012H2250.44V11.4897H2262.48V21.6965H2225.85V11.4897ZM2249.44 12.4897V3.5012H2239.2V12.4897H2226.85V20.6965H2261.48V12.4897H2249.44ZM2229.56 50.6245C2228.12 47.8561 2227.41 44.6974 2227.41 41.1746C2227.41 37.654 2228.12 34.519 2229.56 31.7993C2231 29.0415 2233 26.8714 2235.55 25.3136L2235.56 25.3086C2238.18 23.7518 2241.09 22.9793 2244.28 22.9793C2247.52 22.9793 2250.41 23.7493 2252.93 25.3161C2255.49 26.8724 2257.49 29.0393 2258.92 31.7923C2260.42 34.5133 2261.15 37.651 2261.15 41.1746C2261.15 44.7019 2260.41 47.8645 2258.92 50.6348C2257.48 53.339 2255.49 55.4786 2252.93 57.0332C2250.41 58.5999 2247.52 59.37 2244.28 59.37C2241.04 59.37 2238.12 58.599 2235.55 57.0357C2233 55.4803 2231 53.3389 2229.56 50.6318L2229.56 50.6245ZM2252.41 26.1678C2250.06 24.7088 2247.36 23.9793 2244.28 23.9793C2241.26 23.9793 2238.52 24.7088 2236.07 26.1678C2233.68 27.6268 2231.8 29.659 2230.45 32.2643C2229.09 34.8176 2228.41 37.7877 2228.41 41.1746C2228.41 44.5616 2229.09 47.5577 2230.45 50.1631C2231.8 52.7163 2233.68 54.7225 2236.07 56.1815C2238.47 57.6405 2241.21 58.37 2244.28 58.37C2247.36 58.37 2250.06 57.6405 2252.41 56.1815C2254.81 54.7225 2256.68 52.7163 2258.04 50.1631C2259.44 47.5577 2260.15 44.5616 2260.15 41.1746C2260.15 37.7877 2259.44 34.8176 2258.04 32.2643C2256.68 29.659 2254.81 27.6268 2252.41 26.1678ZM2239.33 36.9729L2239.33 36.9798C2238.83 38.0645 2238.56 39.4502 2238.56 41.1746C2238.56 42.8971 2238.83 44.316 2239.33 45.4615C2239.84 46.6059 2240.52 47.4297 2241.37 47.9862C2242.25 48.5092 2243.21 48.7723 2244.28 48.7723C2245.41 48.7723 2246.36 48.5056 2247.17 47.9987C2247.97 47.445 2248.64 46.6183 2249.15 45.4615C2249.65 44.316 2249.92 42.8971 2249.92 41.1746C2249.92 39.4502 2249.65 38.0645 2249.16 36.9798L2249.15 36.9729L2249.15 36.9659C2248.64 35.8018 2247.96 34.9721 2247.16 34.4184C2246.35 33.8646 2245.4 33.577 2244.28 33.577C2243.22 33.577 2242.27 33.8602 2241.39 34.4315C2240.53 34.988 2239.84 35.8148 2239.33 36.9659L2239.33 36.9729ZM2247.72 48.8344C2246.73 49.4596 2245.58 49.7723 2244.28 49.7723C2243.03 49.7723 2241.88 49.4596 2240.84 48.8344C2239.8 48.157 2238.99 47.1669 2238.42 45.8643C2237.85 44.5616 2237.56 42.9984 2237.56 41.1746C2237.56 39.3509 2237.85 37.8137 2238.42 36.5632C2238.99 35.2605 2239.8 34.2704 2240.84 33.593C2241.88 32.9157 2243.03 32.577 2244.28 32.577C2245.58 32.577 2246.73 32.9157 2247.72 33.593C2248.71 34.2704 2249.49 35.2605 2250.06 36.5632C2250.64 37.8137 2250.92 39.3509 2250.92 41.1746C2250.92 42.9984 2250.64 44.5616 2250.06 45.8643C2249.49 47.1669 2248.71 48.157 2247.72 48.8344ZM2278.22 0.54718H2290.07V74.9239H2278.22V40.3769H2274.67V71.8757H2262.98V1.87591H2274.67V30.0137H2278.22V0.54718ZM2279.22 31.0137H2273.67V2.87591H2263.98V70.8757H2273.67V39.3769H2279.22V73.9239H2289.07V1.54718H2279.22V31.0137Z" fill="#8000FF"/>
<path fill-rule="evenodd" clip-rule="evenodd" d="M2181.04 30.0612C2180.7 30.0261 2180.37 29.9881 2180.04 29.9473V35.9379H2195.12V29.9873C2194.79 30.0256 2194.46 30.0613 2194.12 30.0942C2192.11 30.2904 2189.97 30.3885 2187.7 30.3885C2185.35 30.3885 2183.13 30.2794 2181.04 30.0612ZM2194.12 31.0988C2192.1 31.2924 2189.96 31.3885 2187.7 31.3885C2185.36 31.3885 2183.14 31.2816 2181.04 31.0666V34.9379H2194.12V31.0988ZM2169.72 27.238V35.9379H2154.95V44.0666H2220.45V35.9379H2205.52V27.3432C2205.86 27.1913 2206.2 27.0345 2206.52 26.8731C2208.2 26.0365 2209.61 25.0719 2210.76 23.9793C2212.89 21.895 2213.96 19.4199 2213.96 16.554C2213.96 13.6881 2212.89 11.213 2210.76 9.12875C2208.62 7.04447 2205.57 5.4552 2201.61 4.36095C2197.7 3.2146 2193.07 2.64142 2187.7 2.64142C2182.44 2.64142 2177.82 3.2146 2173.86 4.36095C2169.9 5.4552 2166.86 7.04447 2164.72 9.12875C2162.58 11.213 2161.52 13.6881 2161.52 16.554C2161.52 19.4199 2162.58 21.895 2164.72 23.9793C2165.81 25.0206 2167.15 25.9456 2168.72 26.7543C2169.05 26.9204 2169.38 27.0817 2169.72 27.238ZM2168.72 27.8724C2166.88 26.975 2165.31 25.9217 2164.03 24.7038L2164.02 24.6951C2161.7 22.4314 2160.52 19.7016 2160.52 16.554C2160.52 13.4064 2161.7 10.6767 2164.02 8.41297C2166.31 6.17591 2169.53 4.52174 2173.59 3.3987C2177.66 2.22126 2182.37 1.64142 2187.7 1.64142C2193.13 1.64142 2197.86 2.22054 2201.89 3.39918C2205.95 4.52221 2209.16 6.17622 2211.45 8.41297C2213.78 10.6767 2214.96 13.4064 2214.96 16.554C2214.96 19.7016 2213.78 22.4313 2211.45 24.6951L2211.45 24.7039C2210.11 25.973 2208.46 27.0635 2206.52 27.985V34.9379H2221.45V45.0666H2153.95V34.9379H2168.72V27.8724ZM2168.64 71.4533L2168.64 71.4511C2163.95 69.0273 2161.45 65.4944 2161.45 60.8711C2161.45 58.5754 2162.06 56.5121 2163.29 54.7172C2164.51 52.9315 2166.32 51.464 2168.64 50.2879C2173.32 47.8947 2179.65 46.7401 2187.54 46.7401C2195.44 46.7401 2201.76 47.8944 2206.44 50.2869C2208.79 51.4618 2210.61 52.9278 2211.85 54.7127C2213.1 56.5079 2213.71 58.5728 2213.71 60.8711C2213.71 65.5006 2211.18 69.0323 2206.44 71.4533C2201.77 73.8471 2195.44 75.0021 2187.54 75.0021C2179.65 75.0021 2173.32 73.8471 2168.64 71.4533ZM2179.59 57.1656L2179.58 57.1672C2177.51 57.5203 2176.07 58.0586 2175.15 58.7147C2174.28 59.3351 2173.93 60.0386 2173.93 60.8711C2173.93 61.7047 2174.28 62.4407 2175.16 63.1145C2176.08 63.7664 2177.52 64.3012 2179.58 64.6527C2181.7 65.0052 2184.35 65.186 2187.54 65.186C2190.74 65.186 2193.36 65.005 2195.42 64.6532L2195.43 64.6525C2197.54 64.3001 2199.01 63.764 2199.92 63.1145C2200.8 62.4407 2201.16 61.7046 2201.16 60.8711C2201.16 60.0386 2200.8 59.3351 2199.94 58.7147C2199.02 58.0613 2197.55 57.5219 2195.43 57.1679L2195.42 57.1656L2195.4 57.163C2193.35 56.7628 2190.74 56.5562 2187.54 56.5562C2184.35 56.5562 2181.71 56.7626 2179.6 57.1638L2179.59 57.1656ZM2200.52 63.9194C2199.42 64.701 2197.78 65.2741 2195.59 65.6389C2193.46 66.0036 2190.77 66.186 2187.54 66.186C2184.31 66.186 2181.6 66.0036 2179.41 65.6389C2177.28 65.2741 2175.66 64.701 2174.57 63.9194C2173.47 63.0856 2172.93 62.0696 2172.93 60.8711C2172.93 59.6726 2173.47 58.6826 2174.57 57.901C2175.66 57.1194 2177.28 56.5462 2179.41 56.1815C2181.6 55.7646 2184.31 55.5562 2187.54 55.5562C2190.77 55.5562 2193.46 55.7646 2195.59 56.1815C2197.78 56.5462 2199.42 57.1194 2200.52 57.901C2201.61 58.6826 2202.16 59.6726 2202.16 60.8711C2202.16 62.0696 2201.61 63.0856 2200.52 63.9194ZM2179.52 12.2218L2179.51 12.2237C2177.24 12.6268 2175.65 13.2385 2174.62 13.9909C2173.71 14.7012 2173.3 15.5361 2173.3 16.554C2173.3 17.5064 2173.7 18.3198 2174.62 19.039C2175.65 19.7963 2177.26 20.4321 2179.52 20.8862C2181.79 21.2887 2184.51 21.4942 2187.7 21.4942C2190.99 21.4942 2193.74 21.2884 2195.95 20.887C2198.17 20.4325 2199.75 19.7954 2200.78 19.0326C2201.77 18.3043 2202.17 17.4907 2202.17 16.554C2202.17 15.5514 2201.76 14.7163 2200.78 13.9973C2199.76 13.2393 2198.18 12.6263 2195.96 12.223L2195.95 12.221L2195.94 12.2188C2193.73 11.7677 2190.99 11.5356 2187.7 11.5356C2184.51 11.5356 2181.79 11.7672 2179.53 12.2197L2179.52 12.2218ZM2196.14 21.8689C2193.85 22.2858 2191.03 22.4942 2187.7 22.4942C2184.47 22.4942 2181.68 22.2858 2179.34 21.8689C2176.99 21.4 2175.22 20.7226 2174.02 19.8368C2172.87 18.9509 2172.3 17.8567 2172.3 16.554C2172.3 15.1992 2172.87 14.0789 2174.02 13.1931C2175.22 12.3073 2176.99 11.6559 2179.34 11.2391C2181.68 10.7701 2184.47 10.5356 2187.7 10.5356C2191.03 10.5356 2193.85 10.7701 2196.14 11.2391C2198.43 11.6559 2200.18 12.3073 2201.38 13.1931C2202.58 14.0789 2203.17 15.1992 2203.17 16.554C2203.17 17.8567 2202.58 18.9509 2201.38 19.8368C2200.18 20.7226 2198.43 21.4 2196.14 21.8689ZM2205.99 51.1792C2201.51 48.8865 2195.36 47.7401 2187.54 47.7401C2179.73 47.7401 2173.58 48.8865 2169.1 51.1792C2164.67 53.4198 2162.45 56.6504 2162.45 60.8711C2162.45 65.0397 2164.67 68.2703 2169.1 70.563C2173.58 72.8557 2179.73 74.0021 2187.54 74.0021C2195.36 74.0021 2201.51 72.8557 2205.99 70.563C2210.47 68.2703 2212.71 65.0397 2212.71 60.8711C2212.71 56.6504 2210.47 53.4198 2205.99 51.1792Z" fill="#8000FF"/>
<path fill-rule="evenodd" clip-rule="evenodd" d="M2098.38 6.17471H2110.78V17.6482C2110.78 20.8644 2111.08 24.0278 2111.7 27.1395C2112.36 30.2378 2113.35 33.1804 2114.66 35.9694C2116.03 38.6963 2117.72 41.141 2119.73 43.3073C2121.73 45.4547 2124.13 47.2343 2126.95 48.6433L2128.03 49.1841L2120.46 59.0957L2119.72 58.7114C2116.38 56.9875 2113.46 54.7226 2110.98 51.9199L2110.98 51.9123L2110.97 51.9045C2108.56 49.0616 2106.58 45.822 2105.03 42.1922L2105.03 42.1873C2104.88 41.8454 2104.74 41.5014 2104.61 41.1553C2104.35 41.775 2104.09 42.3872 2103.81 42.9918C2102.16 46.7244 2100.05 50.0654 2097.48 53.0091L2097.47 53.0159C2094.89 55.9266 2091.84 58.2462 2088.34 59.9705L2087.59 60.3374L2080.1 50.3165L2081.22 49.8009C2084.19 48.4454 2086.71 46.6445 2088.8 44.4003L2088.81 44.3917C2090.98 42.1223 2092.77 39.5496 2094.19 36.6693C2095.61 33.776 2096.65 30.73 2097.31 27.5289L2097.31 27.5172C2098.03 24.252 2098.38 20.9628 2098.38 17.6482V6.17471ZM2102.9 42.5815C2103.32 41.6621 2103.71 40.7244 2104.08 39.7686C2104.26 39.2795 2104.44 38.7855 2104.61 38.2868C2104.78 38.786 2104.96 39.281 2105.14 39.7718C2105.4 40.4559 2105.67 41.1319 2105.95 41.7999C2107.46 45.3432 2109.39 48.4956 2111.73 51.2573C2114.13 53.9669 2116.94 56.1554 2120.17 57.8228L2126.51 49.5378C2126.2 49.3855 2125.9 49.229 2125.61 49.0683C2123.07 47.6885 2120.87 45.9952 2119 43.9884C2116.92 41.7478 2115.17 39.2206 2113.77 36.4068C2112.41 33.5409 2111.39 30.5187 2110.72 27.3402C2110.09 24.1616 2109.78 20.931 2109.78 17.6482V7.17471H2099.38V17.6482C2099.38 21.0352 2099.02 24.3961 2098.29 27.731C2097.61 31.0137 2096.54 34.1401 2095.08 37.1102C2093.63 40.0803 2091.78 42.7378 2089.54 45.0826C2087.57 47.1904 2085.24 48.9192 2082.56 50.2691C2082.26 50.4209 2081.95 50.568 2081.64 50.7102L2087.89 59.0734C2091.28 57.4059 2094.22 55.1653 2096.73 52.3516C2099.23 49.4857 2101.29 46.229 2102.9 42.5815ZM2128.32 0.625305H2140.79V28.4505H2151.27V39.0482H2140.79V75.0021H2128.32V0.625305ZM2139.79 38.0482H2150.27V29.4505H2139.79V1.62531H2129.32V74.0021H2139.79V38.0482Z" fill="#8000FF"/>
<path fill-rule="evenodd" clip-rule="evenodd" d="M1994.65 33.0619H2062.15V42.5653H1994.65V33.0619ZM2002 44.2389H2054.41V63.4342H2014.4V65.3423H2056.45V74.3767H2002.08V54.8687H2042.18V53.2734H2002V44.2389ZM2043.18 52.2734V55.8687H2003.08V73.3767H2055.45V66.3423H2013.4V62.4342H2053.41V45.2389H2003V52.2734H2043.18ZM2002.63 1.79767H2054.18V20.9148H2015.02V22.6666H2055.51V31.701H2002.78V12.3494H2041.94V10.8321H2002.63V1.79767ZM2042.94 9.83212V13.3494H2003.78V30.701H2054.51V23.6666H2014.02V19.9148H2053.18V2.79767H2003.63V9.83212H2042.94ZM1995.65 34.0619V41.5653H2061.15V34.0619H1995.65Z" fill="#8000FF"/>
<path d="M1940.32 43.7539H1950.56V60.8711H1940.32V43.7539ZM1963.22 43.7539H1973.38V60.7929H1963.22V43.7539ZM1923.75 57.5884H1989.33V66.0297H1923.75V57.5884ZM1931.18 6.23682H1981.9V30.2321H1941.57V42.5034H1931.26V22.1034H1971.59V14.5218H1931.18V6.23682ZM1931.26 38.2045H1983.54V46.4895H1931.26V38.2045Z" fill="#8000FF"/>
<path d="M1904.61 1.54718H1914.54V73.9239H1904.61V1.54718ZM1896.01 29.2942H1907.97V37.7356H1896.01V29.2942ZM1889.05 2.71959H1898.75V70.7194H1889.05V2.71959ZM1864.75 12.8805H1872.64V19.2115C1872.64 23.6927 1872.35 28.0176 1871.78 32.1862C1871.26 36.3026 1870.37 40.1585 1869.12 43.7539C1867.93 47.2972 1866.31 50.4757 1864.28 53.2895C1862.25 56.1033 1859.72 58.396 1856.7 60.1677L1850.44 52.2734C1854.04 50.137 1856.88 47.3754 1858.96 43.9884C1861.05 40.6015 1862.53 36.7976 1863.42 32.577C1864.3 28.3042 1864.75 23.849 1864.75 19.2115V12.8805ZM1866.86 12.8805H1874.75V19.2115C1874.75 23.4322 1875.19 27.5226 1876.08 31.4827C1877.02 35.4428 1878.53 38.9861 1880.61 42.1126C1882.75 45.239 1885.62 47.7401 1889.21 49.616L1883.27 57.5102C1879.21 55.3217 1875.98 52.2995 1873.58 48.4436C1871.18 44.5876 1869.46 40.1585 1868.42 35.1563C1867.38 30.154 1866.86 24.8391 1866.86 19.2115V12.8805ZM1852.71 8.89428H1885.62V17.2575H1852.71V8.89428Z" fill="#8000FF"/>
<path d="M1810.88 1.62534H1821.28V55.7125H1810.88V1.62534ZM1818.39 23.6666H1830.89V32.2643H1818.39V23.6666ZM1764.38 9.20693H1806.9V17.3356H1764.38V9.20693ZM1785.64 19.9149C1789.13 19.9149 1792.2 20.5142 1794.86 21.7126C1797.57 22.859 1799.68 24.5004 1801.19 26.6367C1802.7 28.721 1803.46 31.118 1803.46 33.8275C1803.46 36.5892 1802.7 39.0382 1801.19 41.1746C1799.68 43.2589 1797.57 44.9003 1794.86 46.0987C1792.2 47.2451 1789.13 47.8183 1785.64 47.8183C1782.2 47.8183 1779.12 47.2451 1776.41 46.0987C1773.7 44.9003 1771.59 43.2589 1770.08 41.1746C1768.57 39.0382 1767.82 36.5892 1767.82 33.8275C1767.82 31.118 1768.57 28.721 1770.08 26.6367C1771.59 24.5004 1773.7 22.859 1776.41 21.7126C1779.12 20.5142 1782.2 19.9149 1785.64 19.9149ZM1785.64 27.8092C1783.34 27.8092 1781.47 28.3302 1780.01 29.3724C1778.55 30.4145 1777.82 31.9256 1777.82 33.9057C1777.82 35.8336 1778.55 37.3187 1780.01 38.3608C1781.47 39.403 1783.34 39.9241 1785.64 39.9241C1787.98 39.9241 1789.86 39.403 1791.26 38.3608C1792.72 37.3187 1793.45 35.8336 1793.45 33.9057C1793.45 31.9256 1792.72 30.4145 1791.26 29.3724C1789.86 28.3302 1787.98 27.8092 1785.64 27.8092ZM1780.48 1.54718H1790.8V13.115H1780.48V1.54718ZM1774.62 64.3883H1823.86V72.7515H1774.62V64.3883ZM1774.62 51.6482H1785.09V67.9837H1774.62V51.6482Z" fill="#8000FF"/>
<path d="M1709.98 9.0506H1718.58V13.5839C1718.58 18.1172 1717.83 22.4421 1716.31 26.5586C1714.86 30.6229 1712.62 34.1662 1709.59 37.1884C1706.57 40.2106 1702.71 42.4773 1698.03 43.9884L1692.71 35.9379C1696.77 34.6352 1700.06 32.8114 1702.56 30.4666C1705.11 28.0697 1706.99 25.4122 1708.19 22.4942C1709.38 19.5241 1709.98 16.554 1709.98 13.5839V9.0506ZM1712.17 9.0506H1720.61V13.5839C1720.61 15.7203 1720.95 17.8567 1721.63 19.9931C1722.31 22.0774 1723.32 24.0574 1724.68 25.9333C1726.08 27.8092 1727.86 29.5026 1729.99 31.0137C1732.13 32.5248 1734.66 33.7494 1737.57 34.6873L1732.34 42.816C1727.8 41.357 1724.05 39.1685 1721.08 36.2505C1718.11 33.3325 1715.87 29.9195 1714.36 26.0115C1712.9 22.0513 1712.17 17.9088 1712.17 13.5839V9.0506ZM1742.19 1.54718H1752.58V45.239H1742.19V1.54718ZM1703.26 48.4436H1752.58V74.0021H1742.19V56.6504H1703.26V48.4436ZM1695.52 5.84601H1734.92V14.0529H1695.52V5.84601Z" fill="#8000FF"/>
<path d="M1659.81 19.0551H1673.57V27.4965H1659.81V19.0551ZM1670.67 1.62531H1681.15V44.6137H1670.67V1.62531ZM1656.61 46.1769C1661.71 46.1769 1666.12 46.724 1669.82 47.8182C1673.51 48.9125 1676.35 50.5018 1678.33 52.586C1680.37 54.6703 1681.38 57.1715 1681.38 60.0895C1681.38 64.5707 1679.17 68.0097 1674.74 70.4067C1670.31 72.8557 1664.27 74.0802 1656.61 74.0802C1648.95 74.0802 1642.9 72.8557 1638.47 70.4067C1634.04 68.0097 1631.83 64.5707 1631.83 60.0895C1631.83 57.1715 1632.82 54.6703 1634.8 52.586C1636.83 50.5018 1639.7 48.9125 1643.4 47.8182C1647.1 46.724 1651.5 46.1769 1656.61 46.1769ZM1656.61 54.0711C1653.48 54.0711 1650.85 54.3056 1648.71 54.7745C1646.58 55.1914 1644.93 55.8427 1643.79 56.7286C1642.69 57.6144 1642.15 58.7347 1642.15 60.0895C1642.15 61.4442 1642.69 62.5906 1643.79 63.5285C1644.93 64.4144 1646.58 65.0917 1648.71 65.5607C1650.85 65.9776 1653.48 66.186 1656.61 66.186C1659.73 66.186 1662.36 65.9776 1664.5 65.5607C1666.64 65.0917 1668.25 64.4144 1669.35 63.5285C1670.44 62.5906 1670.99 61.4442 1670.99 60.0895C1670.99 58.7347 1670.44 57.6144 1669.35 56.7286C1668.25 55.8427 1666.64 55.1914 1664.5 54.7745C1662.36 54.3056 1659.73 54.0711 1656.61 54.0711ZM1637.3 8.81608H1645.74V13.4276C1645.74 18.013 1645.01 22.39 1643.55 26.5585C1642.09 30.7271 1639.85 34.4007 1636.83 37.5792C1633.86 40.7056 1630.06 43.0504 1625.42 44.6137L1620.18 36.4068C1623.15 35.4168 1625.71 34.088 1627.84 32.4206C1630.03 30.7532 1631.8 28.9034 1633.16 26.8712C1634.56 24.7869 1635.61 22.5984 1636.28 20.3057C1636.96 18.013 1637.3 15.7203 1637.3 13.4276V8.81608ZM1639.49 8.81608H1647.77V13.3494C1647.77 16.2153 1648.35 19.0291 1649.49 21.7907C1650.64 24.5524 1652.41 27.0536 1654.81 29.2942C1657.26 31.5348 1660.38 33.3064 1664.19 34.6091L1659.11 42.7378C1654.63 41.2267 1650.93 39.0121 1648.01 36.0941C1645.14 33.124 1643.01 29.685 1641.6 25.7769C1640.19 21.8168 1639.49 17.6743 1639.49 13.3494V8.81608ZM1623 6.0023H1661.92V14.2092H1623V6.0023Z" fill="#8000FF"/>
<path fill-rule="evenodd" clip-rule="evenodd" d="M1541.15 29.3724H1591.33V21.0873H1551.55V4.12646H1541.15V29.3724ZM1552.55 20.0873V3.12646H1540.15V30.3724H1592.33V20.0873H1552.55ZM1532.1 35.8758H1599.6V46.1608H1532.1V35.8758ZM1540.53 72.4389H1591.72V64.0757H1550.92V50.8665H1540.53V72.4389ZM1551.92 63.0757V49.8665H1539.53V73.4389H1592.72V63.0757H1551.92ZM1533.1 36.8758V45.1608H1598.6V36.8758H1533.1Z" fill="#8000FF"/>
<path fill-rule="evenodd" clip-rule="evenodd" d="M1470.6 37.6139L1470.59 37.6106C1467.58 36.0781 1465.16 33.9603 1463.34 31.2597L1463.34 31.2538L1463.33 31.2478C1461.55 28.5195 1460.67 25.4085 1460.67 21.9471C1460.67 18.4859 1461.55 15.397 1463.34 12.7165L1463.34 12.7126C1465.16 10.012 1467.58 7.89424 1470.59 6.3617L1470.6 6.35842C1473.67 4.82216 1477.11 4.06437 1480.9 4.06437C1484.78 4.06437 1488.25 4.8196 1491.27 6.36007C1494.33 7.89061 1496.76 10.0082 1498.53 12.7145C1500.37 15.3938 1501.28 18.4836 1501.28 21.9471C1501.28 25.4124 1500.37 28.5256 1498.53 31.2536C1496.76 33.962 1494.33 36.081 1491.27 37.6123C1488.25 39.1527 1484.78 39.9079 1480.9 39.9079C1477.11 39.9079 1473.67 39.1501 1470.6 37.6139ZM1490.82 36.7194C1493.74 35.2604 1496.03 33.2543 1497.7 30.7011C1499.42 28.1478 1500.28 25.2298 1500.28 21.9471C1500.28 18.6643 1499.42 15.7724 1497.7 13.2712C1496.03 10.718 1493.74 8.71187 1490.82 7.25287C1487.96 5.79387 1484.65 5.06437 1480.9 5.06437C1477.25 5.06437 1473.97 5.79387 1471.05 7.25287C1468.18 8.71187 1465.89 10.718 1464.17 13.2712C1462.5 15.7724 1461.67 18.6643 1461.67 21.9471C1461.67 25.2298 1462.5 28.1478 1464.17 30.7011C1465.89 33.2543 1468.18 35.2604 1471.05 36.7194C1473.97 38.1784 1477.25 38.9079 1480.9 38.9079C1484.65 38.9079 1487.96 38.1784 1490.82 36.7194ZM1476.63 15.4294L1476.61 15.4356C1475.39 15.9803 1474.42 16.812 1473.69 17.9483C1473.03 19.0097 1472.67 20.3271 1472.67 21.9471C1472.67 23.563 1473.03 24.8779 1473.69 25.938C1474.42 27.0277 1475.39 27.8707 1476.64 28.4713C1477.89 29.0753 1479.33 29.3884 1480.97 29.3884C1482.62 29.3884 1484.02 29.075 1485.22 28.4779L1485.22 28.4746L1485.23 28.4713C1486.48 27.8709 1487.42 27.0311 1488.1 25.9504L1488.11 25.9379L1488.11 25.9257C1488.82 24.867 1489.2 23.5573 1489.2 21.9471C1489.2 20.3369 1488.82 19.0272 1488.11 17.9684L1488.1 17.9487L1488.09 17.9282C1487.41 16.8044 1486.48 15.9786 1485.26 15.4356L1485.24 15.4264L1485.22 15.4162C1484.02 14.8191 1482.62 14.5057 1480.97 14.5057C1479.33 14.5057 1477.89 14.8188 1476.64 15.4228L1476.63 15.4294ZM1472.85 17.4137C1473.68 16.1111 1474.8 15.1471 1476.21 14.5218C1477.61 13.8444 1479.2 13.5057 1480.97 13.5057C1482.75 13.5057 1484.31 13.8444 1485.66 14.5218C1487.07 15.1471 1488.16 16.1111 1488.95 17.4137C1489.78 18.6643 1490.2 20.1754 1490.2 21.9471C1490.2 23.7187 1489.78 25.2298 1488.95 26.4804C1488.16 27.731 1487.07 28.6949 1485.66 29.3723C1484.31 30.0497 1482.75 30.3884 1480.97 30.3884C1479.2 30.3884 1477.61 30.0497 1476.21 29.3723C1474.8 28.6949 1473.68 27.731 1472.85 26.4804C1472.06 25.2298 1471.67 23.7187 1471.67 21.9471C1471.67 20.1754 1472.06 18.6643 1472.85 17.4137ZM1506.7 0.625305H1519.1V15.554H1528.71V26.0735H1519.1V38.1884H1506.7V0.625305ZM1518.1 25.0735H1527.71V16.554H1518.1V1.62531H1507.7V37.1884H1518.1V25.0735ZM1467.53 72.1262H1471.59C1473.99 72.1262 1476.21 72.048 1478.24 71.8917C1480.32 71.7875 1482.35 71.553 1484.34 71.1883C1486.32 70.8756 1488.3 70.3806 1490.28 69.7032L1488.79 61.4964C1488.47 61.6084 1488.15 61.7163 1487.83 61.82C1486.36 62.2949 1484.86 62.682 1483.32 62.9814C1481.8 63.2411 1480.24 63.4288 1478.61 63.5447C1478.28 63.5684 1477.95 63.589 1477.61 63.6067V44.1447H1467.53V72.1262ZM1478.61 62.5421V43.1447H1466.53V73.1262H1471.59C1474.01 73.1262 1476.24 73.0477 1478.3 72.8898C1480.42 72.7834 1482.49 72.545 1484.5 72.174C1486.54 71.8519 1488.57 71.3432 1490.6 70.6494L1491.41 70.3711L1489.57 60.1624L1488.46 60.5534C1486.74 61.1608 1484.96 61.6423 1483.14 61.9977C1481.68 62.2467 1480.18 62.4284 1478.61 62.5421ZM1486.77 43.3792H1499.83V38.2206H1511.91V43.3792H1524.88V52.8044H1508.37C1511.53 53.1249 1514.25 54.0692 1516.49 55.6786C1519.35 57.6815 1520.82 60.4295 1520.82 63.8412C1520.82 67.3462 1519.36 70.1531 1516.49 72.1638C1513.67 74.1356 1510.09 75.0802 1505.83 75.0802C1501.57 75.0802 1497.99 74.1356 1495.17 72.1638C1492.3 70.1531 1490.84 67.3462 1490.84 63.8412C1490.84 60.4295 1492.31 57.6815 1495.17 55.6786C1497.41 54.0692 1500.12 53.1249 1503.28 52.8044H1486.77V43.3792ZM1495.75 56.4941C1493.14 58.3178 1491.84 60.7669 1491.84 63.8412C1491.84 67.0197 1493.14 69.5208 1495.75 71.3446C1498.35 73.1683 1501.71 74.0802 1505.83 74.0802C1509.95 74.0802 1513.31 73.1683 1515.91 71.3446C1518.52 69.5208 1519.82 67.0197 1519.82 63.8412C1519.82 60.7669 1518.52 58.3178 1515.91 56.4941C1513.31 54.6182 1509.95 53.6803 1505.83 53.6803C1501.71 53.6803 1498.35 54.6182 1495.75 56.4941ZM1510.91 44.3792V39.2206H1500.83V44.3792H1487.77V51.8044H1523.88V44.3792H1510.91ZM1508.69 65.396L1508.7 65.39C1509.04 65.2038 1509.25 64.9914 1509.38 64.7655C1509.51 64.5386 1509.6 64.2425 1509.6 63.8412C1509.6 63.4749 1509.52 63.202 1509.39 62.9879C1509.26 62.7722 1509.05 62.561 1508.7 62.3705L1508.69 62.3645L1508.68 62.3583C1507.99 61.952 1507.06 61.7147 1505.83 61.7147C1504.61 61.7147 1503.64 61.9486 1502.89 62.3644C1502.32 62.702 1502.06 63.1514 1502.06 63.8412C1502.06 64.6043 1502.34 65.0688 1502.89 65.3962C1503.64 65.8119 1504.61 66.0458 1505.83 66.0458C1507.06 66.0458 1507.99 65.8085 1508.68 65.4022L1508.69 65.396ZM1502.39 66.2642C1501.5 65.7431 1501.06 64.9354 1501.06 63.8412C1501.06 62.799 1501.5 62.0174 1502.39 61.4964C1503.33 60.9753 1504.47 60.7147 1505.83 60.7147C1507.18 60.7147 1508.3 60.9753 1509.19 61.4964C1510.13 62.0174 1510.6 62.799 1510.6 63.8412C1510.6 64.9354 1510.13 65.7431 1509.19 66.2642C1508.3 66.7852 1507.18 67.0458 1505.83 67.0458C1504.47 67.0458 1503.33 66.7852 1502.39 66.2642Z" fill="#8000FF"/>
<path fill-rule="evenodd" clip-rule="evenodd" d="M1391.16 17.1011H1375.99V8.50344H1416.64V17.1011H1401.63V21.1655C1401.63 24.0314 1402 26.9494 1402.72 29.9195C1403.51 32.8375 1404.63 35.6252 1406.09 38.2826C1407.54 40.888 1409.39 43.2328 1411.63 45.3171C1413.64 47.1863 1415.99 48.7202 1418.67 49.9189C1418.98 50.0568 1419.29 50.1903 1419.61 50.3194L1413.9 58.6044C1410.46 57.0933 1407.47 55.0611 1404.91 52.5079C1402.36 49.9546 1400.22 47.0106 1398.5 43.6757C1398 42.6947 1397.53 41.6934 1397.1 40.6719C1396.91 40.2051 1396.72 39.7342 1396.54 39.259C1396.37 39.7409 1396.2 40.219 1396.03 40.6934C1395.51 42.0851 1394.93 43.4439 1394.28 44.77C1392.62 48.2612 1390.51 51.3615 1387.95 54.0711C1385.4 56.7286 1382.43 58.8389 1379.04 60.4021L1373.1 52.1952C1373.41 52.0516 1373.71 51.9037 1374.01 51.7514C1376.66 50.4117 1378.98 48.7359 1381 46.724C1383.29 44.4834 1385.16 41.9822 1386.62 39.2206C1388.13 36.4068 1389.25 33.4627 1389.98 30.3884C1390.77 27.262 1391.16 24.1877 1391.16 21.1655V17.1011ZM1390.16 18.1011H1374.99V7.50344H1417.64V18.1011H1402.63V21.1655C1402.63 23.9426 1402.98 26.7771 1403.69 29.6709C1404.45 32.5061 1405.54 35.2146 1406.96 37.7979C1408.37 40.3088 1410.15 42.5706 1412.32 44.5849C1414.46 46.5798 1417.01 48.1843 1419.98 49.3931L1421.14 49.8619L1414.26 59.8525L1413.5 59.5199C1409.95 57.9609 1406.85 55.8596 1404.21 53.215C1401.58 50.5859 1399.38 47.5571 1397.61 44.134C1397.25 43.4357 1396.91 42.7275 1396.59 42.0095C1396.16 43.0938 1395.69 44.1585 1395.18 45.2036C1393.47 48.7835 1391.31 51.9697 1388.68 54.7569L1388.67 54.764C1386.03 57.5124 1382.96 59.6952 1379.46 61.3101L1378.71 61.6548L1371.58 51.8L1372.68 51.2887C1375.6 49.9285 1378.14 48.1706 1380.29 46.0169L1380.3 46.0088C1382.52 43.8388 1384.33 41.4209 1385.74 38.7534L1385.74 38.7474C1387.21 36.0092 1388.3 33.1465 1389.01 30.1575L1389.01 30.1459C1389.78 27.0935 1390.16 24.1007 1390.16 21.1655V18.1011ZM1422.36 0.625305H1434.75V75.0021H1422.36V0.625305ZM1423.36 1.62531V74.0021H1433.75V1.62531H1423.36Z" fill="#8000FF"/>
<path fill-rule="evenodd" clip-rule="evenodd" d="M1347.17 0.625305H1359.57V28.8413H1369.97V39.439H1359.57V75.0021H1347.17V0.625305ZM1358.57 38.439H1368.97V29.8413H1358.57V1.62531H1348.17V74.0021H1358.57V38.439ZM1300.43 11.2551H1316.38V1.79771H1328.85V11.2551H1344.64V21.5402H1300.43V11.2551ZM1327.85 12.2551V2.79771H1317.38V12.2551H1301.43V20.5402H1343.64V12.2551H1327.85ZM1332.55 57.8403L1332.55 57.8435C1329.67 59.3921 1326.38 60.1515 1322.69 60.1515C1319.06 60.1515 1315.75 59.3908 1312.78 57.8508L1312.77 57.8457L1312.76 57.8403C1309.85 56.2513 1307.54 54.1038 1305.83 51.4011L1305.82 51.3911L1305.81 51.381C1304.15 48.6029 1303.33 45.4249 1303.33 41.878C1303.33 38.3316 1304.15 35.1759 1305.82 32.4456L1305.82 32.4393L1305.83 32.4331C1307.54 29.7282 1309.86 27.6043 1312.77 26.0668C1315.74 24.4715 1319.05 23.6827 1322.69 23.6827C1326.33 23.6827 1329.62 24.4708 1332.55 26.0686C1335.45 27.6062 1337.75 29.7312 1339.41 32.4394C1341.14 35.17 1341.98 38.3281 1341.98 41.878C1341.98 45.4299 1341.13 48.6116 1339.41 51.3909C1337.75 54.0997 1335.46 56.2503 1332.55 57.8403ZM1332.07 26.9494C1329.31 25.4382 1326.19 24.6827 1322.69 24.6827C1319.2 24.6827 1316.05 25.4382 1313.24 26.9494C1310.47 28.4083 1308.29 30.4145 1306.67 32.9677C1305.11 35.521 1304.33 38.4911 1304.33 41.878C1304.33 45.265 1305.11 48.2612 1306.67 50.8665C1308.29 53.4198 1310.47 55.4519 1313.24 56.963C1316.05 58.422 1319.2 59.1515 1322.69 59.1515C1326.24 59.1515 1329.36 58.422 1332.07 56.963C1334.83 55.4519 1337 53.4198 1338.56 50.8665C1340.18 48.2612 1340.98 45.265 1340.98 41.878C1340.98 38.4911 1340.18 35.521 1338.56 32.9677C1337 30.4145 1334.83 28.4083 1332.07 26.9494ZM1322.69 34.124C1321.16 34.124 1319.87 34.4339 1318.79 35.0194C1317.72 35.6021 1316.86 36.4526 1316.22 37.5988C1315.59 38.7186 1315.25 40.1301 1315.25 41.878C1315.25 43.5634 1315.59 44.9816 1316.22 46.1644C1316.87 47.3082 1317.72 48.1875 1318.81 48.8223C1319.89 49.403 1321.17 49.7102 1322.69 49.7102C1324.16 49.7102 1325.42 49.4054 1326.5 48.8223C1327.59 48.1876 1328.44 47.3082 1329.09 46.1645C1329.72 44.9816 1330.06 43.5634 1330.06 41.878C1330.06 40.1301 1329.72 38.7186 1329.09 37.5988C1328.45 36.4526 1327.59 35.6021 1326.52 35.0194C1325.43 34.4315 1324.17 34.124 1322.69 34.124ZM1329.96 46.6458C1329.23 47.9485 1328.24 48.9646 1326.99 49.6941C1325.74 50.3715 1324.31 50.7102 1322.69 50.7102C1321.03 50.7102 1319.57 50.3715 1318.32 49.6941C1317.07 48.9646 1316.08 47.9485 1315.35 46.6458C1314.62 45.291 1314.25 43.7018 1314.25 41.878C1314.25 40.0022 1314.62 38.4129 1315.35 37.1102C1316.08 35.8076 1317.07 34.8175 1318.32 34.1401C1319.57 33.4627 1321.03 33.124 1322.69 33.124C1324.31 33.124 1325.74 33.4627 1326.99 34.1401C1328.24 34.8175 1329.23 35.8076 1329.96 37.1102C1330.69 38.4129 1331.06 40.0022 1331.06 41.878C1331.06 43.7018 1330.69 45.291 1329.96 46.6458Z" fill="#8000FF"/>
<path fill-rule="evenodd" clip-rule="evenodd" d="M1227.72 5.76782C1232.36 3.63143 1238.82 2.56323 1247.1 2.56323C1255.33 2.56323 1261.74 3.63143 1266.33 5.76782C1270.97 7.90421 1273.29 10.9785 1273.29 14.9908C1273.29 18.9509 1270.97 21.9992 1266.33 24.1356C1261.74 26.272 1255.33 27.3402 1247.1 27.3402C1238.82 27.3402 1232.36 26.272 1227.72 24.1356C1223.13 21.9992 1220.84 18.9509 1220.84 14.9908C1220.84 10.9785 1223.13 7.90421 1227.72 5.76782ZM1266.75 25.043C1261.97 27.2672 1255.4 28.3402 1247.1 28.3402C1238.75 28.3402 1232.13 27.2668 1227.3 25.0438L1227.3 25.042C1224.9 23.9263 1223.03 22.5393 1221.76 20.8482C1220.48 19.1438 1219.84 17.1788 1219.84 14.9908C1219.84 12.7799 1220.48 10.7962 1221.76 9.07803C1223.03 7.3726 1224.9 5.97795 1227.3 4.86137L1227.3 4.85955C1232.13 2.63655 1238.75 1.56323 1247.1 1.56323C1255.4 1.56323 1261.97 2.63623 1266.75 4.86044C1269.17 5.97589 1271.06 7.36917 1272.34 9.07368C1273.64 10.792 1274.29 12.7771 1274.29 14.9908C1274.29 17.1816 1273.64 19.1481 1272.34 20.8525C1271.06 22.5427 1269.17 23.9283 1266.75 25.043ZM1238.57 11.7594L1238.56 11.7609C1236.32 12.0659 1234.77 12.5612 1233.8 13.177L1233.79 13.1836C1232.93 13.7164 1232.63 14.3088 1232.63 14.9908C1232.63 15.6741 1232.94 16.2966 1233.8 16.8792C1234.78 17.4501 1236.34 17.9171 1238.56 18.2206C1240.79 18.525 1243.61 18.6804 1247.02 18.6804C1250.49 18.6804 1253.33 18.5249 1255.56 18.2206C1257.8 17.9158 1259.32 17.4474 1260.24 16.8849C1261.11 16.3006 1261.42 15.6763 1261.42 14.9908C1261.42 14.3088 1261.11 13.7163 1260.25 13.1836L1260.24 13.1747L1260.23 13.1654C1259.32 12.5613 1257.8 12.0664 1255.56 11.7609L1255.55 11.7594L1255.54 11.7577C1253.32 11.4042 1250.49 11.223 1247.02 11.223C1243.61 11.223 1240.81 11.4041 1238.58 11.7577L1238.57 11.7594ZM1233.27 17.7264C1232.17 16.9969 1231.63 16.085 1231.63 14.9908C1231.63 13.8965 1232.17 13.0107 1233.27 12.3333C1234.41 11.6038 1236.13 11.0827 1238.43 10.7701C1240.72 10.4053 1243.58 10.223 1247.02 10.223C1250.51 10.223 1253.41 10.4053 1255.7 10.7701C1257.99 11.0827 1259.69 11.6038 1260.78 12.3333C1261.87 13.0107 1262.42 13.8965 1262.42 14.9908C1262.42 16.085 1261.87 16.9969 1260.78 17.7264C1259.69 18.4038 1257.99 18.8988 1255.7 19.2114C1253.41 19.5241 1250.51 19.6804 1247.02 19.6804C1243.58 19.6804 1240.72 19.5241 1238.43 19.2114C1236.13 18.8988 1234.41 18.4038 1233.27 17.7264ZM1213.27 29.7011H1280.77V39.9079H1213.27V29.7011ZM1220.78 41.9723H1272.8V62.4964H1233.17V64.6389H1274.75V74.5331H1220.86V53.3056H1260.56V51.632H1220.78V41.9723ZM1261.56 50.632V54.3056H1221.86V73.5331H1273.75V65.6389H1232.17V61.4964H1271.8V42.9723H1221.78V50.632H1261.56ZM1214.27 30.7011V38.9079H1279.77V30.7011H1214.27Z" fill="#8000FF"/>
<path d="M1192.55 1.62529H1203.03V45.3171H1192.55V1.62529ZM1183.56 22.7287H1196.77V31.17H1183.56V22.7287ZM1154.72 48.3653H1203.03V73.2204H1154.72V48.3653ZM1192.79 56.494H1164.96V65.0136H1192.79V56.494ZM1142.61 7.87814H1184.89V16.085H1142.61V7.87814ZM1163.79 18.4298C1167.18 18.4298 1170.17 18.9769 1172.78 20.0712C1175.38 21.1654 1177.41 22.7026 1178.87 24.6827C1180.38 26.6106 1181.14 28.8773 1181.14 31.4826C1181.14 34.0359 1180.38 36.3026 1178.87 38.2826C1177.41 40.2106 1175.38 41.7217 1172.78 42.8159C1170.17 43.9102 1167.18 44.4573 1163.79 44.4573C1160.45 44.4573 1157.46 43.9102 1154.8 42.8159C1152.19 41.7217 1150.14 40.2106 1148.63 38.2826C1147.17 36.3026 1146.44 34.0359 1146.44 31.4826C1146.44 28.8773 1147.17 26.6106 1148.63 24.6827C1150.14 22.7026 1152.19 21.1654 1154.8 20.0712C1157.46 18.9769 1160.45 18.4298 1163.79 18.4298ZM1163.87 26.0896C1162.36 26.0896 1161.03 26.298 1159.88 26.7148C1158.79 27.1317 1157.93 27.7309 1157.3 28.5125C1156.68 29.2941 1156.36 30.2581 1156.36 31.4045C1156.36 32.603 1156.68 33.619 1157.3 34.4528C1157.93 35.2344 1158.81 35.8336 1159.96 36.2504C1161.11 36.6673 1162.38 36.8757 1163.79 36.8757C1165.3 36.8757 1166.6 36.6673 1167.7 36.2504C1168.79 35.8336 1169.65 35.2344 1170.28 34.4528C1170.9 33.619 1171.21 32.603 1171.21 31.4045C1171.21 30.2581 1170.9 29.2941 1170.28 28.5125C1169.65 27.7309 1168.79 27.1317 1167.7 26.7148C1166.6 26.298 1165.33 26.0896 1163.87 26.0896ZM1158.63 1H1168.95V13.662H1158.63V1Z" fill="#8000FF"/>
<path d="M1120.26 1.62531H1130.65V38.1263H1120.26V1.62531ZM1082.43 41.3309H1130.65V60.9492H1092.75V68.2182H1082.51V53.524H1120.34V49.3033H1082.43V41.3309ZM1082.51 65.4044H1132.45V73.5331H1082.51V65.4044ZM1087.51 3.26668H1096.11V8.65976C1096.11 13.0889 1095.35 17.3095 1093.84 21.3218C1092.33 25.334 1090.01 28.8252 1086.88 31.7953C1083.81 34.7654 1079.9 36.98 1075.16 38.439L1070.16 30.2321C1073.18 29.2942 1075.79 28.0697 1077.97 26.5585C1080.16 25.0474 1081.96 23.3279 1083.37 21.3999C1084.77 19.472 1085.82 17.4398 1086.49 15.3034C1087.17 13.1149 1087.51 10.9004 1087.51 8.65976V3.26668ZM1089.62 3.26668H1098.06V8.65976C1098.06 10.8483 1098.4 12.9846 1099.08 15.0689C1099.76 17.1011 1100.77 19.0291 1102.13 20.8528C1103.48 22.6766 1105.23 24.2919 1107.36 25.6988C1109.5 27.1057 1112.03 28.226 1114.94 29.0597L1109.94 37.1884C1106.5 36.1463 1103.51 34.7133 1100.95 32.8896C1098.4 31.0137 1096.26 28.8252 1094.54 26.3241C1092.88 23.7708 1091.63 21.0091 1090.79 18.039C1090.01 15.0689 1089.62 11.9425 1089.62 8.65976V3.26668Z" fill="#8000FF"/>
<path d="M1026.08 36.3286H1036.4V46.4895H1026.08V36.3286ZM998.569 30.2321H1064.07V38.439H998.569V30.2321ZM1006.7 3.73566H1055.78V26.4022H1006.7V3.73566ZM1045.54 11.708H1016.86V18.4299H1045.54V11.708ZM1006.07 42.9723H1056.1V61.5745H1016.47V67.9055H1006.15V54.3056H1045.86V50.632H1006.07V42.9723ZM1006.15 65.6389H1058.05V73.5331H1006.15V65.6389Z" fill="#8000FF"/>
<path d="M926.824 35.6252H992.244V43.8321H926.824V35.6252ZM954.336 24.7609H964.732V38.8298H954.336V24.7609ZM934.718 21.4781H984.819V29.6068H934.718V21.4781ZM934.718 4.67358H984.428V12.8805H945.035V26.6367H934.718V4.67358ZM959.26 47.4275C967.076 47.4275 973.225 48.5999 977.706 50.9447C982.187 53.2374 984.428 56.5201 984.428 60.7929C984.428 65.0136 982.187 68.2703 977.706 70.563C973.225 72.9078 967.076 74.0802 959.26 74.0802C951.444 74.0802 945.296 72.9078 940.814 70.563C936.385 68.2703 934.171 65.0136 934.171 60.7929C934.171 56.5201 936.385 53.2374 940.814 50.9447C945.296 48.5999 951.444 47.4275 959.26 47.4275ZM959.26 55.3217C956.03 55.3217 953.32 55.5301 951.132 55.947C948.995 56.3117 947.38 56.9109 946.286 57.7447C945.191 58.5263 944.644 59.5163 944.644 60.7148C944.644 61.9653 945.191 63.0075 946.286 63.8412C947.38 64.6228 948.995 65.222 951.132 65.6389C953.32 66.0036 956.03 66.186 959.26 66.186C962.491 66.186 965.175 66.0036 967.311 65.6389C969.499 65.222 971.141 64.6228 972.235 63.8412C973.329 63.0075 973.876 61.9653 973.876 60.7148C973.876 59.5163 973.329 58.5263 972.235 57.7447C971.141 56.9109 969.499 56.3117 967.311 55.947C965.175 55.5301 962.491 55.3217 959.26 55.3217Z" fill="#8000FF"/>
<path fill-rule="evenodd" clip-rule="evenodd" d="M854.53 40.6606C853.126 40.2913 851.791 39.7852 850.528 39.1424C847.558 37.6313 845.213 35.521 843.494 32.8114C841.774 30.1019 840.914 27.0275 840.914 23.5885C840.914 20.1494 841.774 17.1011 843.494 14.4437C845.213 11.7341 847.558 9.62378 850.528 8.11268C853.498 6.60157 856.859 5.84601 860.611 5.84601C864.31 5.84601 867.645 6.60157 870.615 8.11268C873.585 9.62378 875.93 11.7341 877.65 14.4437C879.369 17.1011 880.229 20.1494 880.229 23.5885C880.229 27.0275 879.369 30.1019 877.65 32.8114C875.93 35.521 873.585 37.6313 870.615 39.1424C869.419 39.7513 868.163 40.2375 866.848 40.601C866.518 40.6921 866.185 40.7756 865.848 40.8513V50.7043C866.18 50.6887 866.514 50.6727 866.848 50.6563C867.009 50.6483 867.171 50.6402 867.333 50.6321C872.136 50.3895 876.782 49.9887 881.269 49.4298C881.601 49.3885 881.931 49.3464 882.261 49.3033L883.043 56.8068C878.041 57.7447 872.96 58.4221 867.802 58.8389C862.695 59.2037 857.745 59.4121 852.951 59.4642C848.209 59.5163 843.806 59.5424 839.742 59.5424L838.491 51.1792C838.826 51.1792 839.163 51.179 839.502 51.1787C843.394 51.1748 847.616 51.149 852.169 51.101C852.954 51.0928 853.741 51.0819 854.53 51.0684C854.863 51.0627 855.197 51.0566 855.53 51.05V40.8979C855.193 40.8264 854.86 40.7473 854.53 40.6606ZM854.53 41.693C852.967 41.3018 851.481 40.7494 850.075 40.0337C846.951 38.4446 844.469 36.2142 842.649 33.3473C840.821 30.4659 839.914 27.2031 839.914 23.5885C839.914 19.9756 840.82 16.7365 842.652 13.9041C844.471 11.039 846.952 8.80985 850.075 7.2214C853.202 5.63026 856.721 4.84601 860.611 4.84601C864.45 4.84601 867.943 5.63124 871.069 7.2214C874.191 8.80981 876.672 11.0389 878.492 13.9039C880.323 16.7364 881.229 19.9755 881.229 23.5885C881.229 27.2031 880.323 30.4659 878.494 33.3473C876.675 36.2142 874.192 38.4446 871.069 40.0337C869.729 40.7155 868.321 41.2493 866.848 41.6367V49.6551C866.992 49.6479 867.137 49.6407 867.282 49.6333C872.416 49.374 877.366 48.9334 882.132 48.3117L883.15 48.179L884.133 57.6198L883.227 57.7896C878.19 58.7341 873.075 59.4161 867.882 59.8357L867.873 59.8364C862.748 60.2025 857.777 60.4118 852.962 60.4642C852.962 60.4642 852.962 60.4642 852.962 60.4642M852.962 60.4642C848.217 60.5163 843.81 60.5424 839.742 60.5424H838.88L837.331 50.1792H838.491C842.656 50.1792 847.212 50.1532 852.159 50.1011C852.947 50.0928 853.737 50.0818 854.53 50.0683V41.693M856.049 16.6702L856.042 16.6734C854.811 17.2661 853.835 18.1498 853.099 19.3448L853.095 19.3523L853.09 19.3597C852.379 20.4702 851.997 21.8627 851.997 23.5885C851.997 25.3669 852.38 26.8155 853.095 27.981C853.827 29.1227 854.806 30.0144 856.049 30.663C857.352 31.2638 858.865 31.577 860.611 31.577C862.306 31.577 863.767 31.2631 865.016 30.6631C866.317 30.0114 867.319 29.1178 868.049 27.981C868.764 26.8155 869.146 25.3669 869.146 23.5885C869.146 21.8627 868.764 20.4702 868.054 19.3597L868.049 19.3523L868.044 19.3448C867.315 18.1591 866.319 17.2752 865.036 16.6794L865.016 16.6702L864.996 16.6602C863.752 16.0148 862.299 15.6782 860.611 15.6782C858.867 15.6782 857.356 16.0165 856.056 16.6668L856.049 16.6702ZM868.896 28.5126C868.062 29.8153 866.916 30.8314 865.457 31.5609C864.05 32.2383 862.435 32.577 860.611 32.577C858.735 32.577 857.068 32.2383 855.609 31.5609C854.202 30.8314 853.081 29.8153 852.248 28.5126C851.414 27.1578 850.997 25.5164 850.997 23.5885C850.997 21.7126 851.414 20.1234 852.248 18.8207C853.081 17.4659 854.202 16.4498 855.609 15.7724C857.068 15.0429 858.735 14.6782 860.611 14.6782C862.435 14.6782 864.05 15.0429 865.457 15.7724C866.916 16.4498 868.062 17.4659 868.896 18.8207C869.73 20.1234 870.146 21.7126 870.146 23.5885C870.146 25.5164 869.73 27.1578 868.896 28.5126ZM885.013 0.54718H897.408V28.9195H906.944V39.5172H897.408V74.9239H885.013V0.54718ZM896.408 38.5172H905.944V29.9195H896.408V1.54718H886.013V73.9239H896.408V38.5172Z" fill="#8000FF"/>
<path d="M783.941 43.7539H794.18V60.8711H783.941V43.7539ZM806.842 43.7539H817.003V60.7929H806.842V43.7539ZM767.371 57.5884H832.948V66.0297H767.371V57.5884ZM774.797 6.23682H825.523V30.2321H785.192V42.5034H774.875V22.1034H815.206V14.5218H774.797V6.23682ZM774.875 38.2045H827.164V46.4895H774.875V38.2045Z" fill="#8000FF"/>
<path d="M748.228 1.54718H758.155V73.9239H748.228V1.54718ZM739.631 29.2942H751.589V37.7356H739.631V29.2942ZM732.674 2.71959H742.366V70.7194H732.674V2.71959ZM708.366 12.8805H716.261V19.2115C716.261 23.6927 715.974 28.0176 715.401 32.1862C714.88 36.3026 713.994 40.1585 712.743 43.7539C711.545 47.2972 709.93 50.4757 707.897 53.2895C705.865 56.1033 703.338 58.396 700.316 60.1677L694.063 52.2734C697.658 50.137 700.498 47.3754 702.582 43.9884C704.667 40.6015 706.152 36.7976 707.038 32.577C707.923 28.3042 708.366 23.849 708.366 19.2115V12.8805ZM710.477 12.8805H718.371V19.2115C718.371 23.4322 718.814 27.5226 719.7 31.4827C720.638 35.4428 722.149 38.9861 724.233 42.1126C726.369 45.239 729.235 47.7401 732.831 49.616L726.89 57.5102C722.826 55.3217 719.595 52.2995 717.198 48.4436C714.802 44.5876 713.082 40.1585 712.04 35.1563C710.998 30.154 710.477 24.8391 710.477 19.2115V12.8805ZM696.33 8.89428H729.235V17.2575H696.33V8.89428Z" fill="#8000FF"/>
<path d="M654.502 1.62534H664.898V55.7125H654.502V1.62534ZM662.006 23.6666H674.512V32.2643H662.006V23.6666ZM607.997 9.20693H650.516V17.3356H607.997V9.20693ZM629.256 19.9149C632.748 19.9149 635.822 20.5142 638.479 21.7126C641.189 22.859 643.299 24.5004 644.81 26.6367C646.322 28.721 647.077 31.118 647.077 33.8275C647.077 36.5892 646.322 39.0382 644.81 41.1746C643.299 43.2589 641.189 44.9003 638.479 46.0987C635.822 47.2451 632.748 47.8183 629.256 47.8183C625.817 47.8183 622.743 47.2451 620.034 46.0987C617.324 44.9003 615.214 43.2589 613.703 41.1746C612.191 39.0382 611.436 36.5892 611.436 33.8275C611.436 31.118 612.191 28.721 613.703 26.6367C615.214 24.5004 617.324 22.859 620.034 21.7126C622.743 20.5142 625.817 19.9149 629.256 19.9149ZM629.256 27.8092C626.964 27.8092 625.088 28.3302 623.629 29.3724C622.17 30.4145 621.44 31.9256 621.44 33.9057C621.44 35.8336 622.17 37.3187 623.629 38.3608C625.088 39.403 626.964 39.9241 629.256 39.9241C631.601 39.9241 633.477 39.403 634.884 38.3608C636.343 37.3187 637.073 35.8336 637.073 33.9057C637.073 31.9256 636.343 30.4145 634.884 29.3724C633.477 28.3302 631.601 27.8092 629.256 27.8092ZM624.098 1.54718H634.415V13.115H624.098V1.54718ZM618.236 64.3883H667.477V72.7515H618.236V64.3883ZM618.236 51.6482H628.709V67.9837H618.236V51.6482Z" fill="#8000FF"/>
<path d="M572.987 16.9448H589.792V25.3861H572.987V16.9448ZM552.665 6.0023H561.028V13.8184C561.028 18.7164 560.325 23.3279 558.918 27.6528C557.511 31.9777 555.323 35.7554 552.353 38.9861C549.435 42.1646 545.683 44.5876 541.097 46.255L535.626 38.1263C538.648 37.0842 541.228 35.7294 543.364 34.062C545.501 32.3945 547.246 30.4926 548.601 28.3562C549.956 26.1677 550.972 23.849 551.649 21.3999C552.327 18.9509 552.665 16.4237 552.665 13.8184V6.0023ZM554.854 6.0023H563.139V13.8965C563.139 16.2413 563.451 18.5341 564.077 20.7747C564.702 23.0153 565.666 25.1517 566.969 27.1838C568.271 29.216 569.939 31.0398 571.971 32.6551C574.055 34.2183 576.504 35.4949 579.318 36.4849L573.847 44.4573C569.522 42.842 565.953 40.5232 563.139 37.501C560.325 34.4788 558.241 30.9355 556.886 26.8712C555.531 22.8068 554.854 18.4819 554.854 13.8965V6.0023ZM586.196 1.62531H596.67V55.009H586.196V1.62531ZM548.757 64.3883H598.233V72.7515H548.757V64.3883ZM548.757 49.6941H559.153V69.0779H548.757V49.6941Z" fill="#8000FF"/>
<path d="M513.904 1.62531H524.299V54.3837H513.904V1.62531ZM476.074 64.3883H526.175V72.7515H476.074V64.3883ZM476.074 49.3033H486.469V68.6871H476.074V49.3033ZM481.154 5.6115H489.752V12.646C489.752 17.3356 488.997 21.8168 487.485 26.0896C486.026 30.3624 483.786 34.1141 480.764 37.3447C477.741 40.5754 473.886 43.0244 469.196 44.6918L463.881 36.4068C467.945 34.9999 471.228 33.0459 473.729 30.5447C476.282 28.0436 478.158 25.2298 479.357 22.1034C480.555 18.977 481.154 15.8245 481.154 12.646V5.6115ZM483.265 5.6115H491.706V12.646C491.706 14.9908 492.019 17.3095 492.644 19.6022C493.321 21.8429 494.338 23.9792 495.692 26.0114C497.047 27.9915 498.793 29.7892 500.929 31.4045C503.066 33.0198 505.593 34.2965 508.511 35.2344L503.274 43.4412C498.689 41.9301 494.911 39.6374 491.941 36.5631C488.971 33.4888 486.782 29.8934 485.375 25.7769C483.968 21.6605 483.265 17.2835 483.265 12.646V5.6115Z" fill="#8000FF"/>
<path fill-rule="evenodd" clip-rule="evenodd" d="M375.643 37.5171H443.141V47.724H375.643V37.5171ZM384.615 72.7515H434.794V64.3883H395.01V51.57H384.615V72.7515ZM396.01 63.3883V50.57H383.615V73.7515H435.794V63.3883H396.01ZM395.346 32.6743L395.343 32.6732C391.322 31.4402 388.111 29.6487 385.776 27.2573C383.408 24.8338 382.208 21.9271 382.208 18.5862C382.208 15.2924 383.412 12.4131 385.776 9.99322C388.111 7.60183 391.322 5.81033 395.343 4.5773L395.346 4.57622C399.421 3.34308 404.107 2.73566 409.392 2.73566C414.726 2.73566 419.414 3.34255 423.44 4.57677C427.51 5.80892 430.749 7.59974 433.087 9.99322C435.45 12.4131 436.654 15.2925 436.654 18.5862C436.654 21.9271 435.454 24.8338 433.087 27.2573C430.749 29.6509 427.51 31.4417 423.439 32.6739C419.414 33.908 414.726 34.5149 409.392 34.5149C404.107 34.5149 399.421 33.9074 395.346 32.6743ZM423.148 31.7172C427.108 30.5187 430.183 28.7992 432.371 26.5586C434.56 24.318 435.654 21.6605 435.654 18.5862C435.654 15.564 434.56 12.9326 432.371 10.692C430.183 8.45135 427.108 6.73181 423.148 5.53335C419.24 4.33489 414.655 3.73566 409.392 3.73566C404.181 3.73566 399.596 4.33489 395.636 5.53335C391.728 6.73181 388.679 8.45135 386.491 10.692C384.302 12.9326 383.208 15.564 383.208 18.5862C383.208 21.6605 384.302 24.318 386.491 26.5586C388.679 28.7992 391.728 30.5187 395.636 31.7172C399.596 32.9156 404.181 33.5149 409.392 33.5149C414.655 33.5149 419.24 32.9156 423.148 31.7172ZM396.419 15.7702L396.408 15.7783C395.44 16.5362 394.994 17.4498 394.994 18.5862C394.994 19.7252 395.443 20.6745 396.429 21.4888C397.457 22.3381 399.057 23.0465 401.324 23.5502C403.579 24.0513 406.265 24.308 409.392 24.308C412.627 24.308 415.336 24.0507 417.534 23.5513C419.745 23.0486 421.323 22.3412 422.355 21.4888L422.363 21.4821L422.371 21.4757C423.408 20.6551 423.868 19.7084 423.868 18.5862C423.868 17.4672 423.412 16.5555 422.392 15.7908L422.373 15.7767L422.355 15.7618C421.323 14.9093 419.745 14.2019 417.534 13.6993C415.336 13.1998 412.627 12.9425 409.392 12.9425C406.265 12.9425 403.579 13.1992 401.324 13.7003C399.057 14.204 397.457 14.9124 396.429 15.7618L396.419 15.7702ZM376.643 38.5171V46.724H442.141V38.5171H376.643ZM401.107 12.7241C403.452 12.2031 406.213 11.9425 409.392 11.9425C412.675 11.9425 415.462 12.2031 417.755 12.7241C420.048 13.2452 421.793 14.0008 422.992 14.9908C424.243 15.9287 424.868 17.1272 424.868 18.5862C424.868 20.0452 424.243 21.2697 422.992 22.2597C421.793 23.2498 420.048 24.0053 417.755 24.5264C415.462 25.0475 412.675 25.308 409.392 25.308C406.213 25.308 403.452 25.0475 401.107 24.5264C398.762 24.0053 396.991 23.2498 395.792 22.2597C394.594 21.2697 393.994 20.0452 393.994 18.5862C393.994 17.1272 394.594 15.9287 395.792 14.9908C396.991 14.0008 398.762 13.2452 401.107 12.7241Z" fill="#8000FF"/>
<path fill-rule="evenodd" clip-rule="evenodd" d="M315.934 44.9424H366.785V55.1493H328.251V63.9354H367.801V74.2205H315.934V44.9424ZM316.934 73.2205H366.801V64.9354H327.251V54.1493H365.785V45.9424H316.934V73.2205ZM353.92 0.625305H366.394V43.6596H353.92V27.8712H344.265C343.81 29.536 343.11 31.1027 342.164 32.567C340.402 35.3729 338.007 37.598 334.999 39.2387L334.987 39.2455C331.962 40.8404 328.568 41.6275 324.828 41.6275C321.088 41.6275 317.672 40.8403 314.598 39.2488L314.589 39.2439L314.579 39.2387C311.572 37.5983 309.153 35.3748 307.341 32.573L307.333 32.5613C305.558 29.7319 304.679 26.5226 304.679 22.9632C304.679 19.3058 305.555 16.043 307.333 13.2087L307.34 13.1969C309.155 10.393 311.577 8.19328 314.589 6.60434C317.664 4.95776 321.084 4.14253 324.828 4.14253C328.571 4.14253 331.967 4.9571 334.993 6.60607C338.004 8.19515 340.401 10.396 342.164 13.2029C343.015 14.52 343.666 15.9302 344.119 17.4298H353.92V0.625305ZM354.92 18.4298H343.359C343.273 18.0916 343.177 17.7582 343.071 17.4298C342.649 16.1217 342.065 14.8918 341.32 13.7402C339.653 11.0827 337.386 8.99846 334.52 7.48735C331.654 5.92414 328.424 5.14253 324.828 5.14253C321.233 5.14253 317.976 5.92414 315.058 7.48735C312.192 8.99846 309.9 11.0827 308.18 13.7402C306.513 16.3977 305.679 19.472 305.679 22.9632C305.679 26.3501 306.513 29.3723 308.18 32.0298C309.9 34.6873 312.192 36.7976 315.058 38.3608C317.976 39.8719 321.233 40.6275 324.828 40.6275C328.424 40.6275 331.654 39.8719 334.52 38.3608C337.386 36.7976 339.653 34.6873 341.32 32.0298C342.161 30.7307 342.796 29.3446 343.226 27.8712C343.321 27.5422 343.407 27.2089 343.483 26.8712H354.92V42.6596H365.394V1.62531H354.92V18.4298ZM320.508 15.9635L320.494 15.9699C319.269 16.5599 318.325 17.436 317.644 18.6169L317.64 18.6243L317.635 18.6317C316.969 19.7423 316.605 21.1683 316.605 22.9632C316.605 24.6409 316.964 26.052 317.644 27.2312C318.326 28.4141 319.274 29.3204 320.508 29.9628C321.763 30.5645 323.171 30.8735 324.75 30.8735C326.39 30.8735 327.793 30.5612 328.986 29.9663C330.223 29.3236 331.173 28.4162 331.856 27.2312C332.537 26.052 332.895 24.6409 332.895 22.9632C332.895 21.1683 332.531 19.7423 331.865 18.6317L331.861 18.6243L331.856 18.6169C331.175 17.436 330.231 16.5599 329.006 15.9699L328.986 15.9601L328.966 15.9494C327.777 15.3095 326.382 14.9747 324.75 14.9747C323.177 14.9747 321.774 15.3071 320.521 15.9567L320.508 15.9635ZM329.44 30.8574C328.085 31.5348 326.522 31.8735 324.75 31.8735C323.031 31.8735 321.467 31.5348 320.061 30.8574C318.654 30.1279 317.559 29.0857 316.778 27.731C315.996 26.3762 315.605 24.7869 315.605 22.9632C315.605 21.0352 315.996 19.4199 316.778 18.1172C317.559 16.7624 318.654 15.7463 320.061 15.0689C321.467 14.3394 323.031 13.9747 324.75 13.9747C326.522 13.9747 328.085 14.3394 329.44 15.0689C330.847 15.7463 331.941 16.7624 332.723 18.1172C333.504 19.4199 333.895 21.0352 333.895 22.9632C333.895 24.7869 333.504 26.3762 332.723 27.731C331.941 29.0857 330.847 30.1279 329.44 30.8574Z" fill="#8000FF"/>
<path fill-rule="evenodd" clip-rule="evenodd" d="M252.847 23.2137H266.682V0.468994H279.077V75.0802H266.682V33.5769H252.847V23.2137ZM267.682 32.5769V74.0802H278.077V1.46899H267.682V24.2137H253.847V32.5769H267.682ZM233.151 6.09656H245.546V17.6482C245.546 20.9675 245.878 24.2611 246.542 27.5302C247.204 30.7365 248.194 33.7321 249.512 36.5199C250.871 39.288 252.606 41.7501 254.715 43.9107C256.811 46.0054 259.312 47.7084 262.229 49.0161L263.374 49.5294L255.867 59.476L255.125 59.1108C251.629 57.3894 248.608 55.1252 246.071 52.3187L246.065 52.3116C243.544 49.4688 241.483 46.2276 239.88 42.5943L239.875 42.583C239.713 42.2031 239.555 41.8198 239.401 41.433C239.165 42.0343 238.919 42.6287 238.663 43.2161C237.009 47.0035 234.897 50.3495 232.323 53.2465C229.788 56.1573 226.768 58.5018 223.27 60.2777L222.537 60.6499L214.772 50.7334L215.902 50.1976C218.869 48.7893 221.396 46.9602 223.494 44.713L223.502 44.7044C225.67 42.435 227.462 39.8622 228.876 36.982L228.88 36.9757C230.351 34.0326 231.417 30.9376 232.077 27.6882L232.079 27.6767C232.794 24.3584 233.151 21.016 233.151 17.6482V6.09656ZM238.866 40.0258C239.049 39.5261 239.225 39.0216 239.395 38.5122C239.566 39.0217 239.745 39.5255 239.93 40.0235C240.204 40.7584 240.492 41.4808 240.795 42.1907C242.358 45.734 244.364 48.8864 246.813 51.6481C249.262 54.3577 252.18 56.5462 255.567 58.2136L261.82 49.9286C261.507 49.7883 261.199 49.6436 260.895 49.4944C258.263 48.2025 255.966 46.5756 254.004 44.6137C251.815 42.3731 250.018 39.8198 248.611 36.9539C247.256 34.088 246.24 31.0137 245.562 27.731C244.885 24.3961 244.546 21.0352 244.546 17.6482V7.09656H234.151V17.6482C234.151 21.0873 233.786 24.5003 233.057 27.8873C232.379 31.2221 231.285 34.4007 229.774 37.4229C228.315 40.393 226.465 43.0505 224.225 45.3953C222.256 47.5041 219.93 49.2547 217.245 50.6471C216.945 50.8029 216.64 50.9542 216.33 51.101L222.818 59.386C226.205 57.6665 229.123 55.3998 231.572 52.5861C234.073 49.7723 236.131 46.5156 237.746 42.816C238.145 41.9034 238.518 40.9733 238.866 40.0258Z" fill="#8000FF"/>
<path fill-rule="evenodd" clip-rule="evenodd" d="M177.243 37.5632C176.973 41.0843 176.378 44.2421 175.458 47.0367C174.208 50.9968 172.384 54.0451 169.987 56.1815C167.642 58.2658 164.855 59.3079 161.624 59.3079C158.498 59.3079 155.736 58.2658 153.339 56.1815C150.994 54.0451 149.17 50.9968 147.868 47.0367C146.617 43.0765 145.992 38.3869 145.992 32.9678C145.992 27.4965 146.617 22.8069 147.868 18.8988C149.17 14.9387 150.994 11.9165 153.339 9.83221C155.736 7.69582 158.524 6.62762 161.702 6.62762C164.881 6.62762 167.642 7.69582 169.987 9.83221C172.384 11.9165 174.208 14.9387 175.458 18.8988C176.278 21.3567 176.839 24.1238 177.143 27.2C177.176 27.5297 177.206 27.8631 177.232 28.2H182.962V2.71959H192.654V70.7194H182.962V36.5632H177.311C177.291 36.8997 177.268 37.233 177.243 37.5632ZM178.246 37.5632C177.973 41.1789 177.364 44.4413 176.41 47.3435C175.121 51.4233 173.217 54.6426 170.653 56.928L170.651 56.9289C168.118 59.1811 165.091 60.3079 161.624 60.3079C158.252 60.3079 155.258 59.1758 152.683 56.9361L152.674 56.9285L152.665 56.9207C150.159 54.6374 148.258 51.4231 146.918 47.3491L146.914 47.3378C145.625 43.2558 144.992 38.4597 144.992 32.9678C144.992 27.4253 145.625 22.6272 146.915 18.5941L146.918 18.5864C148.258 14.5122 150.161 11.3192 152.674 9.08525C155.252 6.78772 158.276 5.62762 161.702 5.62762C165.125 5.62762 168.124 6.78583 170.652 9.08521C173.219 11.3205 175.122 14.5154 176.41 18.5902C177.263 21.1537 177.841 24.0254 178.148 27.2H181.962V1.71959H193.654V71.7194H181.962V37.5632H178.246ZM196.656 0.54718H208.582V74.9239H196.656V0.54718ZM164.276 47.0456L164.279 47.0412C165.128 45.9684 165.815 44.2959 166.269 41.9245C166.722 39.5587 166.955 36.5783 166.955 32.9678C166.955 29.2502 166.722 26.2464 166.27 23.9368L166.269 23.9329C165.815 21.5594 165.129 19.9238 164.292 18.9104L164.284 18.9003L164.276 18.8899C163.491 17.8878 162.643 17.4759 161.702 17.4759C160.761 17.4759 159.913 17.8878 159.129 18.8899C158.327 19.9141 157.64 21.5644 157.133 23.9449C156.682 26.2534 156.449 29.2545 156.449 32.9678C156.449 36.5732 156.681 39.5503 157.133 41.9145C157.638 44.286 158.325 45.9697 159.135 47.0537C159.918 48.05 160.763 48.4597 161.702 48.4597C162.643 48.4597 163.491 48.0478 164.276 47.0456ZM158.341 47.662C157.403 46.4114 156.674 44.5616 156.153 42.1126C155.684 39.6635 155.449 36.6153 155.449 32.9678C155.449 29.216 155.684 26.1417 156.153 23.7448C156.674 21.2958 157.403 19.472 158.341 18.2736C159.279 17.0751 160.399 16.4759 161.702 16.4759C163.005 16.4759 164.125 17.0751 165.063 18.2736C166.053 19.472 166.783 21.2958 167.252 23.7448C167.72 26.1417 167.955 29.216 167.955 32.9678C167.955 36.6153 167.72 39.6635 167.252 42.1126C166.783 44.5616 166.053 46.4114 165.063 47.662C164.125 48.8604 163.005 49.4597 161.702 49.4597C160.399 49.4597 159.279 48.8604 158.341 47.662ZM197.656 1.54718V73.9239H207.582V1.54718H197.656Z" fill="#8000FF"/>
<path d="M106.214 11.6299H127.552V19.993H106.214V11.6299ZM106.214 29.216H127.552V37.5792H106.214V29.216ZM123.644 1.62531H134.118V54.5401H123.644V1.62531ZM86.2832 64.3883H135.759V72.7515H86.2832V64.3883ZM86.2832 49.3815H96.6786V68.7653H86.2832V49.3815ZM93.474 5.92414C97.0694 5.92414 100.3 6.7318 103.166 8.34712C106.084 9.91033 108.377 12.0988 110.044 14.9126C111.764 17.7264 112.623 20.957 112.623 24.6045C112.623 28.1999 111.764 31.4306 110.044 34.2964C108.377 37.1102 106.084 39.3248 103.166 40.9401C100.3 42.5554 97.0694 43.3631 93.474 43.3631C89.9307 43.3631 86.7001 42.5554 83.7821 40.9401C80.9162 39.3248 78.6235 37.1102 76.904 34.2964C75.2365 31.4306 74.4028 28.1999 74.4028 24.6045C74.4028 20.957 75.2365 17.7264 76.904 14.9126C78.6235 12.0988 80.9162 9.91033 83.7821 8.34712C86.7001 6.7318 89.9307 5.92414 93.474 5.92414ZM93.474 14.9908C91.7545 14.9908 90.1913 15.3816 88.7844 16.1632C87.3775 16.9448 86.2572 18.0651 85.4235 19.5241C84.6419 20.931 84.2511 22.6245 84.2511 24.6045C84.2511 26.6367 84.6419 28.3823 85.4235 29.8413C86.2572 31.2482 87.3775 32.3424 88.7844 33.124C90.1913 33.8535 91.7545 34.2183 93.474 34.2183C95.2457 34.2183 96.8089 33.8535 98.1637 33.124C99.5706 32.3424 100.665 31.2482 101.446 29.8413C102.28 28.3823 102.697 26.6367 102.697 24.6045C102.697 22.6245 102.28 20.931 101.446 19.5241C100.665 18.0651 99.5706 16.9448 98.1637 16.1632C96.8089 15.3816 95.2457 14.9908 93.474 14.9908Z" fill="#8000FF"/>
<path d="M17.8206 13.0368H26.0275V21.1655C26.0275 25.1777 25.5846 29.19 24.6988 33.2022C23.865 37.2144 22.6145 40.9922 20.9471 44.5355C19.2796 48.0267 17.1693 51.1531 14.616 53.9148C12.1149 56.6764 9.1969 58.8389 5.86205 60.4021L0 52.1952C3.02221 50.7883 5.62757 48.9385 7.81606 46.6458C10.0567 44.3531 11.9065 41.7999 13.3655 38.9861C14.8766 36.1723 15.9969 33.2543 16.7264 30.2321C17.4559 27.1578 17.8206 24.1356 17.8206 21.1655V13.0368ZM20.0091 13.0368H28.216V21.1655C28.216 23.875 28.5807 26.6628 29.3102 29.5287C30.0397 32.3945 31.1079 35.1562 32.5148 37.8137C33.9738 40.4711 35.7976 42.8941 37.9861 45.0826C40.2267 47.219 42.832 48.9646 45.8021 50.3194L40.0182 58.6044C36.6834 57.0412 33.7654 54.9569 31.2643 52.3516C28.8152 49.6941 26.7309 46.6979 25.0114 43.3631C23.344 39.9761 22.0934 36.4068 21.2597 32.6551C20.426 28.8513 20.0091 25.0214 20.0091 21.1655V13.0368ZM2.81378 8.50344H42.5975V17.1011H2.81378V8.50344ZM47.8343 1.62531H58.3078V74.0021H47.8343V1.62531ZM56.0412 29.216H68.7814V37.7355H56.0412V29.216Z" fill="#8000FF"/>
</svg>
